<?xml version="1.0" encoding="UTF-8"?>
<svg id="Camada_2" data-name="Camada 2" xmlns="http://www.w3.org/2000/svg" viewBox="0 0 200 200">
  <defs>
    <style>
      .cls-1 {
        fill: #000;
        stroke-width: 0px;
      }
    </style>
  </defs>
  <g id="Camada_1-2" data-name="Camada 1">
    <g>
      <rect id="p" class="cls-1" width="8" height="8"/>
      <rect id="p-2" data-name="p" class="cls-1" y="8" width="8" height="8"/>
      <rect id="p-3" data-name="p" class="cls-1" y="16" width="8" height="8"/>
      <rect id="p-4" data-name="p" class="cls-1" y="24" width="8" height="8"/>
      <rect id="p-5" data-name="p" class="cls-1" y="32" width="8" height="8"/>
      <rect id="p-6" data-name="p" class="cls-1" y="40" width="8" height="8"/>
      <rect id="p-7" data-name="p" class="cls-1" y="48" width="8" height="8"/>
      <rect id="p-8" data-name="p" class="cls-1" y="64" width="8" height="8"/>
      <rect id="p-9" data-name="p" class="cls-1" y="72" width="8" height="8"/>
      <rect id="p-10" data-name="p" class="cls-1" y="80" width="8" height="8"/>
      <rect id="p-11" data-name="p" class="cls-1" y="88" width="8" height="8"/>
      <rect id="p-12" data-name="p" class="cls-1" y="96" width="8" height="8"/>
      <rect id="p-13" data-name="p" class="cls-1" y="144" width="8" height="8"/>
      <rect id="p-14" data-name="p" class="cls-1" y="152" width="8" height="8"/>
      <rect id="p-15" data-name="p" class="cls-1" y="160" width="8" height="8"/>
      <rect id="p-16" data-name="p" class="cls-1" y="168" width="8" height="8"/>
      <rect id="p-17" data-name="p" class="cls-1" y="176" width="8" height="8"/>
      <rect id="p-18" data-name="p" class="cls-1" y="184" width="8" height="8"/>
      <rect id="p-19" data-name="p" class="cls-1" y="192" width="8" height="8"/>
      <rect id="p-20" data-name="p" class="cls-1" x="8" width="8" height="8"/>
      <rect id="p-21" data-name="p" class="cls-1" x="8" y="48" width="8" height="8"/>
      <rect id="p-22" data-name="p" class="cls-1" x="8" y="64" width="8" height="8"/>
      <rect id="p-23" data-name="p" class="cls-1" x="8" y="72" width="8" height="8"/>
      <rect id="p-24" data-name="p" class="cls-1" x="8" y="80" width="8" height="8"/>
      <rect id="p-25" data-name="p" class="cls-1" x="8" y="104" width="8" height="8"/>
      <rect id="p-26" data-name="p" class="cls-1" x="8" y="120" width="8" height="8"/>
      <rect id="p-27" data-name="p" class="cls-1" x="8" y="128" width="8" height="8"/>
      <rect id="p-28" data-name="p" class="cls-1" x="8" y="144" width="8" height="8"/>
      <rect id="p-29" data-name="p" class="cls-1" x="8" y="192" width="8" height="8"/>
      <rect id="p-30" data-name="p" class="cls-1" x="16" width="8" height="8"/>
      <rect id="p-31" data-name="p" class="cls-1" x="16" y="16" width="8" height="8"/>
      <rect id="p-32" data-name="p" class="cls-1" x="16" y="24" width="8" height="8"/>
      <rect id="p-33" data-name="p" class="cls-1" x="16" y="32" width="8" height="8"/>
      <rect id="p-34" data-name="p" class="cls-1" x="16" y="48" width="8" height="8"/>
      <rect id="p-35" data-name="p" class="cls-1" x="16" y="96" width="8" height="8"/>
      <rect id="p-36" data-name="p" class="cls-1" x="16" y="128" width="8" height="8"/>
      <rect id="p-37" data-name="p" class="cls-1" x="16" y="144" width="8" height="8"/>
      <rect id="p-38" data-name="p" class="cls-1" x="16" y="160" width="8" height="8"/>
      <rect id="p-39" data-name="p" class="cls-1" x="16" y="168" width="8" height="8"/>
      <rect id="p-40" data-name="p" class="cls-1" x="16" y="176" width="8" height="8"/>
      <rect id="p-41" data-name="p" class="cls-1" x="16" y="192" width="8" height="8"/>
      <rect id="p-42" data-name="p" class="cls-1" x="24" width="8" height="8"/>
      <rect id="p-43" data-name="p" class="cls-1" x="24" y="16" width="8" height="8"/>
      <rect id="p-44" data-name="p" class="cls-1" x="24" y="24" width="8" height="8"/>
      <rect id="p-45" data-name="p" class="cls-1" x="24" y="32" width="8" height="8"/>
      <rect id="p-46" data-name="p" class="cls-1" x="24" y="48" width="8" height="8"/>
      <rect id="p-47" data-name="p" class="cls-1" x="24" y="64" width="8" height="8"/>
      <rect id="p-48" data-name="p" class="cls-1" x="24" y="80" width="8" height="8"/>
      <rect id="p-49" data-name="p" class="cls-1" x="24" y="104" width="8" height="8"/>
      <rect id="p-50" data-name="p" class="cls-1" x="24" y="112" width="8" height="8"/>
      <rect id="p-51" data-name="p" class="cls-1" x="24" y="120" width="8" height="8"/>
      <rect id="p-52" data-name="p" class="cls-1" x="24" y="128" width="8" height="8"/>
      <rect id="p-53" data-name="p" class="cls-1" x="24" y="144" width="8" height="8"/>
      <rect id="p-54" data-name="p" class="cls-1" x="24" y="160" width="8" height="8"/>
      <rect id="p-55" data-name="p" class="cls-1" x="24" y="168" width="8" height="8"/>
      <rect id="p-56" data-name="p" class="cls-1" x="24" y="176" width="8" height="8"/>
      <rect id="p-57" data-name="p" class="cls-1" x="24" y="192" width="8" height="8"/>
      <rect id="p-58" data-name="p" class="cls-1" x="32" width="8" height="8"/>
      <rect id="p-59" data-name="p" class="cls-1" x="32" y="16" width="8" height="8"/>
      <rect id="p-60" data-name="p" class="cls-1" x="32" y="24" width="8" height="8"/>
      <rect id="p-61" data-name="p" class="cls-1" x="32" y="32" width="8" height="8"/>
      <rect id="p-62" data-name="p" class="cls-1" x="32" y="48" width="8" height="8"/>
      <rect id="p-63" data-name="p" class="cls-1" x="32" y="64" width="8" height="8"/>
      <rect id="p-64" data-name="p" class="cls-1" x="32" y="72" width="8" height="8"/>
      <rect id="p-65" data-name="p" class="cls-1" x="32" y="104" width="8" height="8"/>
      <rect id="p-66" data-name="p" class="cls-1" x="32" y="120" width="8" height="8"/>
      <rect id="p-67" data-name="p" class="cls-1" x="32" y="128" width="8" height="8"/>
      <rect id="p-68" data-name="p" class="cls-1" x="32" y="144" width="8" height="8"/>
      <rect id="p-69" data-name="p" class="cls-1" x="32" y="160" width="8" height="8"/>
      <rect id="p-70" data-name="p" class="cls-1" x="32" y="168" width="8" height="8"/>
      <rect id="p-71" data-name="p" class="cls-1" x="32" y="176" width="8" height="8"/>
      <rect id="p-72" data-name="p" class="cls-1" x="32" y="192" width="8" height="8"/>
      <rect id="p-73" data-name="p" class="cls-1" x="40" width="8" height="8"/>
      <rect id="p-74" data-name="p" class="cls-1" x="40" y="48" width="8" height="8"/>
      <rect id="p-75" data-name="p" class="cls-1" x="40" y="80" width="8" height="8"/>
      <rect id="p-76" data-name="p" class="cls-1" x="40" y="104" width="8" height="8"/>
      <rect id="p-77" data-name="p" class="cls-1" x="40" y="144" width="8" height="8"/>
      <rect id="p-78" data-name="p" class="cls-1" x="40" y="192" width="8" height="8"/>
      <rect id="p-79" data-name="p" class="cls-1" x="48" width="8" height="8"/>
      <rect id="p-80" data-name="p" class="cls-1" x="48" y="8" width="8" height="8"/>
      <rect id="p-81" data-name="p" class="cls-1" x="48" y="16" width="8" height="8"/>
      <rect id="p-82" data-name="p" class="cls-1" x="48" y="24" width="8" height="8"/>
      <rect id="p-83" data-name="p" class="cls-1" x="48" y="32" width="8" height="8"/>
      <rect id="p-84" data-name="p" class="cls-1" x="48" y="40" width="8" height="8"/>
      <rect id="p-85" data-name="p" class="cls-1" x="48" y="48" width="8" height="8"/>
      <rect id="p-86" data-name="p" class="cls-1" x="48" y="64" width="8" height="8"/>
      <rect id="p-87" data-name="p" class="cls-1" x="48" y="80" width="8" height="8"/>
      <rect id="p-88" data-name="p" class="cls-1" x="48" y="96" width="8" height="8"/>
      <rect id="p-89" data-name="p" class="cls-1" x="48" y="112" width="8" height="8"/>
      <rect id="p-90" data-name="p" class="cls-1" x="48" y="128" width="8" height="8"/>
      <rect id="p-91" data-name="p" class="cls-1" x="48" y="144" width="8" height="8"/>
      <rect id="p-92" data-name="p" class="cls-1" x="48" y="152" width="8" height="8"/>
      <rect id="p-93" data-name="p" class="cls-1" x="48" y="160" width="8" height="8"/>
      <rect id="p-94" data-name="p" class="cls-1" x="48" y="168" width="8" height="8"/>
      <rect id="p-95" data-name="p" class="cls-1" x="48" y="176" width="8" height="8"/>
      <rect id="p-96" data-name="p" class="cls-1" x="48" y="184" width="8" height="8"/>
      <rect id="p-97" data-name="p" class="cls-1" x="48" y="192" width="8" height="8"/>
      <rect id="p-98" data-name="p" class="cls-1" x="56" y="72" width="8" height="8"/>
      <rect id="p-99" data-name="p" class="cls-1" x="56" y="104" width="8" height="8"/>
      <rect id="p-100" data-name="p" class="cls-1" x="56" y="112" width="8" height="8"/>
      <rect id="p-101" data-name="p" class="cls-1" x="56" y="128" width="8" height="8"/>
      <rect id="p-102" data-name="p" class="cls-1" x="64" width="8" height="8"/>
      <rect id="p-103" data-name="p" class="cls-1" x="64" y="48" width="8" height="8"/>
      <rect id="p-104" data-name="p" class="cls-1" x="64" y="56" width="8" height="8"/>
      <rect id="p-105" data-name="p" class="cls-1" x="64" y="72" width="8" height="8"/>
      <rect id="p-106" data-name="p" class="cls-1" x="64" y="96" width="8" height="8"/>
      <rect id="p-107" data-name="p" class="cls-1" x="64" y="112" width="8" height="8"/>
      <rect id="p-108" data-name="p" class="cls-1" x="64" y="128" width="8" height="8"/>
      <rect id="p-109" data-name="p" class="cls-1" x="64" y="136" width="8" height="8"/>
      <rect id="p-110" data-name="p" class="cls-1" x="64" y="160" width="8" height="8"/>
      <rect id="p-111" data-name="p" class="cls-1" x="64" y="168" width="8" height="8"/>
      <rect id="p-112" data-name="p" class="cls-1" x="64" y="184" width="8" height="8"/>
      <rect id="p-113" data-name="p" class="cls-1" x="64" y="192" width="8" height="8"/>
      <rect id="p-114" data-name="p" class="cls-1" x="72" y="8" width="8" height="8"/>
      <rect id="p-115" data-name="p" class="cls-1" x="72" y="32" width="8" height="8"/>
      <rect id="p-116" data-name="p" class="cls-1" x="72" y="64" width="8" height="8"/>
      <rect id="p-117" data-name="p" class="cls-1" x="72" y="72" width="8" height="8"/>
      <rect id="p-118" data-name="p" class="cls-1" x="72" y="88" width="8" height="8"/>
      <rect id="p-119" data-name="p" class="cls-1" x="72" y="96" width="8" height="8"/>
      <rect id="p-120" data-name="p" class="cls-1" x="72" y="104" width="8" height="8"/>
      <rect id="p-121" data-name="p" class="cls-1" x="72" y="112" width="8" height="8"/>
      <rect id="p-122" data-name="p" class="cls-1" x="72" y="128" width="8" height="8"/>
      <rect id="p-123" data-name="p" class="cls-1" x="72" y="136" width="8" height="8"/>
      <rect id="p-124" data-name="p" class="cls-1" x="72" y="152" width="8" height="8"/>
      <rect id="p-125" data-name="p" class="cls-1" x="72" y="160" width="8" height="8"/>
      <rect id="p-126" data-name="p" class="cls-1" x="72" y="168" width="8" height="8"/>
      <rect id="p-127" data-name="p" class="cls-1" x="72" y="176" width="8" height="8"/>
      <rect id="p-128" data-name="p" class="cls-1" x="72" y="184" width="8" height="8"/>
      <rect id="p-129" data-name="p" class="cls-1" x="72" y="192" width="8" height="8"/>
      <rect id="p-130" data-name="p" class="cls-1" x="80" width="8" height="8"/>
      <rect id="p-131" data-name="p" class="cls-1" x="80" y="8" width="8" height="8"/>
      <rect id="p-132" data-name="p" class="cls-1" x="80" y="16" width="8" height="8"/>
      <rect id="p-133" data-name="p" class="cls-1" x="80" y="40" width="8" height="8"/>
      <rect id="p-134" data-name="p" class="cls-1" x="80" y="48" width="8" height="8"/>
      <rect id="p-135" data-name="p" class="cls-1" x="80" y="56" width="8" height="8"/>
      <rect id="p-136" data-name="p" class="cls-1" x="80" y="64" width="8" height="8"/>
      <rect id="p-137" data-name="p" class="cls-1" x="80" y="80" width="8" height="8"/>
      <rect id="p-138" data-name="p" class="cls-1" x="80" y="88" width="8" height="8"/>
      <rect id="p-139" data-name="p" class="cls-1" x="80" y="112" width="8" height="8"/>
      <rect id="p-140" data-name="p" class="cls-1" x="80" y="120" width="8" height="8"/>
      <rect id="p-141" data-name="p" class="cls-1" x="80" y="136" width="8" height="8"/>
      <rect id="p-142" data-name="p" class="cls-1" x="80" y="144" width="8" height="8"/>
      <rect id="p-143" data-name="p" class="cls-1" x="80" y="160" width="8" height="8"/>
      <rect id="p-144" data-name="p" class="cls-1" x="80" y="176" width="8" height="8"/>
      <rect id="p-145" data-name="p" class="cls-1" x="80" y="184" width="8" height="8"/>
      <rect id="p-146" data-name="p" class="cls-1" x="88" width="8" height="8"/>
      <rect id="p-147" data-name="p" class="cls-1" x="88" y="40" width="8" height="8"/>
      <rect id="p-148" data-name="p" class="cls-1" x="88" y="56" width="8" height="8"/>
      <rect id="p-149" data-name="p" class="cls-1" x="88" y="72" width="8" height="8"/>
      <rect id="p-150" data-name="p" class="cls-1" x="88" y="80" width="8" height="8"/>
      <rect id="p-151" data-name="p" class="cls-1" x="88" y="96" width="8" height="8"/>
      <rect id="p-152" data-name="p" class="cls-1" x="88" y="104" width="8" height="8"/>
      <rect id="p-153" data-name="p" class="cls-1" x="88" y="128" width="8" height="8"/>
      <rect id="p-154" data-name="p" class="cls-1" x="88" y="144" width="8" height="8"/>
      <rect id="p-155" data-name="p" class="cls-1" x="88" y="152" width="8" height="8"/>
      <rect id="p-156" data-name="p" class="cls-1" x="88" y="160" width="8" height="8"/>
      <rect id="p-157" data-name="p" class="cls-1" x="88" y="168" width="8" height="8"/>
      <rect id="p-158" data-name="p" class="cls-1" x="88" y="176" width="8" height="8"/>
      <rect id="p-159" data-name="p" class="cls-1" x="88" y="184" width="8" height="8"/>
      <rect id="p-160" data-name="p" class="cls-1" x="88" y="192" width="8" height="8"/>
      <rect id="p-161" data-name="p" class="cls-1" x="96" width="8" height="8"/>
      <rect id="p-162" data-name="p" class="cls-1" x="96" y="24" width="8" height="8"/>
      <rect id="p-163" data-name="p" class="cls-1" x="96" y="40" width="8" height="8"/>
      <rect id="p-164" data-name="p" class="cls-1" x="96" y="48" width="8" height="8"/>
      <rect id="p-165" data-name="p" class="cls-1" x="96" y="56" width="8" height="8"/>
      <rect id="p-166" data-name="p" class="cls-1" x="96" y="88" width="8" height="8"/>
      <rect id="p-167" data-name="p" class="cls-1" x="96" y="96" width="8" height="8"/>
      <rect id="p-168" data-name="p" class="cls-1" x="96" y="120" width="8" height="8"/>
      <rect id="p-169" data-name="p" class="cls-1" x="96" y="128" width="8" height="8"/>
      <rect id="p-170" data-name="p" class="cls-1" x="96" y="160" width="8" height="8"/>
      <rect id="p-171" data-name="p" class="cls-1" x="96" y="176" width="8" height="8"/>
      <rect id="p-172" data-name="p" class="cls-1" x="96" y="192" width="8" height="8"/>
      <rect id="p-173" data-name="p" class="cls-1" x="104" y="16" width="8" height="8"/>
      <rect id="p-174" data-name="p" class="cls-1" x="104" y="24" width="8" height="8"/>
      <rect id="p-175" data-name="p" class="cls-1" x="104" y="40" width="8" height="8"/>
      <rect id="p-176" data-name="p" class="cls-1" x="104" y="56" width="8" height="8"/>
      <rect id="p-177" data-name="p" class="cls-1" x="104" y="72" width="8" height="8"/>
      <rect id="p-178" data-name="p" class="cls-1" x="104" y="80" width="8" height="8"/>
      <rect id="p-179" data-name="p" class="cls-1" x="104" y="104" width="8" height="8"/>
      <rect id="p-180" data-name="p" class="cls-1" x="104" y="128" width="8" height="8"/>
      <rect id="p-181" data-name="p" class="cls-1" x="104" y="144" width="8" height="8"/>
      <rect id="p-182" data-name="p" class="cls-1" x="104" y="152" width="8" height="8"/>
      <rect id="p-183" data-name="p" class="cls-1" x="104" y="168" width="8" height="8"/>
      <rect id="p-184" data-name="p" class="cls-1" x="112" width="8" height="8"/>
      <rect id="p-185" data-name="p" class="cls-1" x="112" y="16" width="8" height="8"/>
      <rect id="p-186" data-name="p" class="cls-1" x="112" y="32" width="8" height="8"/>
      <rect id="p-187" data-name="p" class="cls-1" x="112" y="40" width="8" height="8"/>
      <rect id="p-188" data-name="p" class="cls-1" x="112" y="48" width="8" height="8"/>
      <rect id="p-189" data-name="p" class="cls-1" x="112" y="56" width="8" height="8"/>
      <rect id="p-190" data-name="p" class="cls-1" x="112" y="64" width="8" height="8"/>
      <rect id="p-191" data-name="p" class="cls-1" x="112" y="72" width="8" height="8"/>
      <rect id="p-192" data-name="p" class="cls-1" x="112" y="88" width="8" height="8"/>
      <rect id="p-193" data-name="p" class="cls-1" x="112" y="120" width="8" height="8"/>
      <rect id="p-194" data-name="p" class="cls-1" x="112" y="136" width="8" height="8"/>
      <rect id="p-195" data-name="p" class="cls-1" x="112" y="160" width="8" height="8"/>
      <rect id="p-196" data-name="p" class="cls-1" x="112" y="168" width="8" height="8"/>
      <rect id="p-197" data-name="p" class="cls-1" x="112" y="184" width="8" height="8"/>
      <rect id="p-198" data-name="p" class="cls-1" x="120" y="16" width="8" height="8"/>
      <rect id="p-199" data-name="p" class="cls-1" x="120" y="64" width="8" height="8"/>
      <rect id="p-200" data-name="p" class="cls-1" x="120" y="72" width="8" height="8"/>
      <rect id="p-201" data-name="p" class="cls-1" x="120" y="80" width="8" height="8"/>
      <rect id="p-202" data-name="p" class="cls-1" x="120" y="88" width="8" height="8"/>
      <rect id="p-203" data-name="p" class="cls-1" x="120" y="104" width="8" height="8"/>
      <rect id="p-204" data-name="p" class="cls-1" x="120" y="112" width="8" height="8"/>
      <rect id="p-205" data-name="p" class="cls-1" x="120" y="120" width="8" height="8"/>
      <rect id="p-206" data-name="p" class="cls-1" x="120" y="128" width="8" height="8"/>
      <rect id="p-207" data-name="p" class="cls-1" x="120" y="136" width="8" height="8"/>
      <rect id="p-208" data-name="p" class="cls-1" x="120" y="152" width="8" height="8"/>
      <rect id="p-209" data-name="p" class="cls-1" x="120" y="160" width="8" height="8"/>
      <rect id="p-210" data-name="p" class="cls-1" x="120" y="184" width="8" height="8"/>
      <rect id="p-211" data-name="p" class="cls-1" x="128" width="8" height="8"/>
      <rect id="p-212" data-name="p" class="cls-1" x="128" y="8" width="8" height="8"/>
      <rect id="p-213" data-name="p" class="cls-1" x="128" y="24" width="8" height="8"/>
      <rect id="p-214" data-name="p" class="cls-1" x="128" y="32" width="8" height="8"/>
      <rect id="p-215" data-name="p" class="cls-1" x="128" y="48" width="8" height="8"/>
      <rect id="p-216" data-name="p" class="cls-1" x="128" y="56" width="8" height="8"/>
      <rect id="p-217" data-name="p" class="cls-1" x="128" y="64" width="8" height="8"/>
      <rect id="p-218" data-name="p" class="cls-1" x="128" y="96" width="8" height="8"/>
      <rect id="p-219" data-name="p" class="cls-1" x="128" y="112" width="8" height="8"/>
      <rect id="p-220" data-name="p" class="cls-1" x="128" y="120" width="8" height="8"/>
      <rect id="p-221" data-name="p" class="cls-1" x="128" y="128" width="8" height="8"/>
      <rect id="p-222" data-name="p" class="cls-1" x="128" y="136" width="8" height="8"/>
      <rect id="p-223" data-name="p" class="cls-1" x="128" y="144" width="8" height="8"/>
      <rect id="p-224" data-name="p" class="cls-1" x="128" y="152" width="8" height="8"/>
      <rect id="p-225" data-name="p" class="cls-1" x="128" y="160" width="8" height="8"/>
      <rect id="p-226" data-name="p" class="cls-1" x="128" y="168" width="8" height="8"/>
      <rect id="p-227" data-name="p" class="cls-1" x="128" y="192" width="8" height="8"/>
      <rect id="p-228" data-name="p" class="cls-1" x="136" y="80" width="8" height="8"/>
      <rect id="p-229" data-name="p" class="cls-1" x="136" y="112" width="8" height="8"/>
      <rect id="p-230" data-name="p" class="cls-1" x="136" y="128" width="8" height="8"/>
      <rect id="p-231" data-name="p" class="cls-1" x="136" y="160" width="8" height="8"/>
      <rect id="p-232" data-name="p" class="cls-1" x="136" y="168" width="8" height="8"/>
      <rect id="p-233" data-name="p" class="cls-1" x="136" y="176" width="8" height="8"/>
      <rect id="p-234" data-name="p" class="cls-1" x="136" y="184" width="8" height="8"/>
      <rect id="p-235" data-name="p" class="cls-1" x="144" width="8" height="8"/>
      <rect id="p-236" data-name="p" class="cls-1" x="144" y="8" width="8" height="8"/>
      <rect id="p-237" data-name="p" class="cls-1" x="144" y="16" width="8" height="8"/>
      <rect id="p-238" data-name="p" class="cls-1" x="144" y="24" width="8" height="8"/>
      <rect id="p-239" data-name="p" class="cls-1" x="144" y="32" width="8" height="8"/>
      <rect id="p-240" data-name="p" class="cls-1" x="144" y="40" width="8" height="8"/>
      <rect id="p-241" data-name="p" class="cls-1" x="144" y="48" width="8" height="8"/>
      <rect id="p-242" data-name="p" class="cls-1" x="144" y="64" width="8" height="8"/>
      <rect id="p-243" data-name="p" class="cls-1" x="144" y="88" width="8" height="8"/>
      <rect id="p-244" data-name="p" class="cls-1" x="144" y="96" width="8" height="8"/>
      <rect id="p-245" data-name="p" class="cls-1" x="144" y="128" width="8" height="8"/>
      <rect id="p-246" data-name="p" class="cls-1" x="144" y="144" width="8" height="8"/>
      <rect id="p-247" data-name="p" class="cls-1" x="144" y="160" width="8" height="8"/>
      <rect id="p-248" data-name="p" class="cls-1" x="144" y="168" width="8" height="8"/>
      <rect id="p-249" data-name="p" class="cls-1" x="152" width="8" height="8"/>
      <rect id="p-250" data-name="p" class="cls-1" x="152" y="48" width="8" height="8"/>
      <rect id="p-251" data-name="p" class="cls-1" x="152" y="72" width="8" height="8"/>
      <rect id="p-252" data-name="p" class="cls-1" x="152" y="88" width="8" height="8"/>
      <rect id="p-253" data-name="p" class="cls-1" x="152" y="96" width="8" height="8"/>
      <rect id="p-254" data-name="p" class="cls-1" x="152" y="120" width="8" height="8"/>
      <rect id="p-255" data-name="p" class="cls-1" x="152" y="128" width="8" height="8"/>
      <rect id="p-256" data-name="p" class="cls-1" x="152" y="160" width="8" height="8"/>
      <rect id="p-257" data-name="p" class="cls-1" x="152" y="184" width="8" height="8"/>
      <rect id="p-258" data-name="p" class="cls-1" x="160" width="8" height="8"/>
      <rect id="p-259" data-name="p" class="cls-1" x="160" y="16" width="8" height="8"/>
      <rect id="p-260" data-name="p" class="cls-1" x="160" y="24" width="8" height="8"/>
      <rect id="p-261" data-name="p" class="cls-1" x="160" y="32" width="8" height="8"/>
      <rect id="p-262" data-name="p" class="cls-1" x="160" y="48" width="8" height="8"/>
      <rect id="p-263" data-name="p" class="cls-1" x="160" y="72" width="8" height="8"/>
      <rect id="p-264" data-name="p" class="cls-1" x="160" y="80" width="8" height="8"/>
      <rect id="p-265" data-name="p" class="cls-1" x="160" y="88" width="8" height="8"/>
      <rect id="p-266" data-name="p" class="cls-1" x="160" y="104" width="8" height="8"/>
      <rect id="p-267" data-name="p" class="cls-1" x="160" y="112" width="8" height="8"/>
      <rect id="p-268" data-name="p" class="cls-1" x="160" y="128" width="8" height="8"/>
      <rect id="p-269" data-name="p" class="cls-1" x="160" y="136" width="8" height="8"/>
      <rect id="p-270" data-name="p" class="cls-1" x="160" y="144" width="8" height="8"/>
      <rect id="p-271" data-name="p" class="cls-1" x="160" y="152" width="8" height="8"/>
      <rect id="p-272" data-name="p" class="cls-1" x="160" y="160" width="8" height="8"/>
      <rect id="p-273" data-name="p" class="cls-1" x="160" y="176" width="8" height="8"/>
      <rect id="p-274" data-name="p" class="cls-1" x="160" y="184" width="8" height="8"/>
      <rect id="p-275" data-name="p" class="cls-1" x="168" width="8" height="8"/>
      <rect id="p-276" data-name="p" class="cls-1" x="168" y="16" width="8" height="8"/>
      <rect id="p-277" data-name="p" class="cls-1" x="168" y="24" width="8" height="8"/>
      <rect id="p-278" data-name="p" class="cls-1" x="168" y="32" width="8" height="8"/>
      <rect id="p-279" data-name="p" class="cls-1" x="168" y="48" width="8" height="8"/>
      <rect id="p-280" data-name="p" class="cls-1" x="168" y="72" width="8" height="8"/>
      <rect id="p-281" data-name="p" class="cls-1" x="168" y="80" width="8" height="8"/>
      <rect id="p-282" data-name="p" class="cls-1" x="168" y="88" width="8" height="8"/>
      <rect id="p-283" data-name="p" class="cls-1" x="168" y="112" width="8" height="8"/>
      <rect id="p-284" data-name="p" class="cls-1" x="168" y="120" width="8" height="8"/>
      <rect id="p-285" data-name="p" class="cls-1" x="168" y="176" width="8" height="8"/>
      <rect id="p-286" data-name="p" class="cls-1" x="168" y="192" width="8" height="8"/>
      <rect id="p-287" data-name="p" class="cls-1" x="176" width="8" height="8"/>
      <rect id="p-288" data-name="p" class="cls-1" x="176" y="16" width="8" height="8"/>
      <rect id="p-289" data-name="p" class="cls-1" x="176" y="24" width="8" height="8"/>
      <rect id="p-290" data-name="p" class="cls-1" x="176" y="32" width="8" height="8"/>
      <rect id="p-291" data-name="p" class="cls-1" x="176" y="48" width="8" height="8"/>
      <rect id="p-292" data-name="p" class="cls-1" x="176" y="72" width="8" height="8"/>
      <rect id="p-293" data-name="p" class="cls-1" x="176" y="88" width="8" height="8"/>
      <rect id="p-294" data-name="p" class="cls-1" x="176" y="112" width="8" height="8"/>
      <rect id="p-295" data-name="p" class="cls-1" x="176" y="120" width="8" height="8"/>
      <rect id="p-296" data-name="p" class="cls-1" x="176" y="128" width="8" height="8"/>
      <rect id="p-297" data-name="p" class="cls-1" x="176" y="136" width="8" height="8"/>
      <rect id="p-298" data-name="p" class="cls-1" x="176" y="176" width="8" height="8"/>
      <rect id="p-299" data-name="p" class="cls-1" x="176" y="184" width="8" height="8"/>
      <rect id="p-300" data-name="p" class="cls-1" x="184" width="8" height="8"/>
      <rect id="p-301" data-name="p" class="cls-1" x="184" y="48" width="8" height="8"/>
      <rect id="p-302" data-name="p" class="cls-1" x="184" y="72" width="8" height="8"/>
      <rect id="p-303" data-name="p" class="cls-1" x="184" y="88" width="8" height="8"/>
      <rect id="p-304" data-name="p" class="cls-1" x="184" y="104" width="8" height="8"/>
      <rect id="p-305" data-name="p" class="cls-1" x="184" y="112" width="8" height="8"/>
      <rect id="p-306" data-name="p" class="cls-1" x="184" y="128" width="8" height="8"/>
      <rect id="p-307" data-name="p" class="cls-1" x="184" y="136" width="8" height="8"/>
      <rect id="p-308" data-name="p" class="cls-1" x="184" y="152" width="8" height="8"/>
      <rect id="p-309" data-name="p" class="cls-1" x="184" y="160" width="8" height="8"/>
      <rect id="p-310" data-name="p" class="cls-1" x="184" y="168" width="8" height="8"/>
      <rect id="p-311" data-name="p" class="cls-1" x="184" y="176" width="8" height="8"/>
      <rect id="p-312" data-name="p" class="cls-1" x="184" y="184" width="8" height="8"/>
      <rect id="p-313" data-name="p" class="cls-1" x="192" width="8" height="8"/>
      <rect id="p-314" data-name="p" class="cls-1" x="192" y="8" width="8" height="8"/>
      <rect id="p-315" data-name="p" class="cls-1" x="192" y="16" width="8" height="8"/>
      <rect id="p-316" data-name="p" class="cls-1" x="192" y="24" width="8" height="8"/>
      <rect id="p-317" data-name="p" class="cls-1" x="192" y="32" width="8" height="8"/>
      <rect id="p-318" data-name="p" class="cls-1" x="192" y="40" width="8" height="8"/>
      <rect id="p-319" data-name="p" class="cls-1" x="192" y="48" width="8" height="8"/>
      <rect id="p-320" data-name="p" class="cls-1" x="192" y="64" width="8" height="8"/>
      <rect id="p-321" data-name="p" class="cls-1" x="192" y="80" width="8" height="8"/>
      <rect id="p-322" data-name="p" class="cls-1" x="192" y="88" width="8" height="8"/>
      <rect id="p-323" data-name="p" class="cls-1" x="192" y="96" width="8" height="8"/>
      <rect id="p-324" data-name="p" class="cls-1" x="192" y="112" width="8" height="8"/>
      <rect id="p-325" data-name="p" class="cls-1" x="192" y="120" width="8" height="8"/>
      <rect id="p-326" data-name="p" class="cls-1" x="192" y="144" width="8" height="8"/>
      <rect id="p-327" data-name="p" class="cls-1" x="192" y="152" width="8" height="8"/>
      <rect id="p-328" data-name="p" class="cls-1" x="192" y="168" width="8" height="8"/>
      <rect id="p-329" data-name="p" class="cls-1" x="192" y="176" width="8" height="8"/>
      <rect id="p-330" data-name="p" class="cls-1" x="192" y="184" width="8" height="8"/>
      <rect id="p-331" data-name="p" class="cls-1" x="192" y="192" width="8" height="8"/>
    </g>
  </g>
</svg>