<?xml version="1.0" encoding="UTF-8"?>
<svg id="Camada_2" data-name="Camada 2" xmlns="http://www.w3.org/2000/svg" version="1.1" viewBox="0 0 200 200">
  <defs>
    <style>
      .cls-1 {
        fill: #fff;
        stroke-width: 0px;
      }
    </style>
  </defs>
  <g id="Camada_1-2" data-name="Camada 1-2">
    <g>
      <rect id="p" class="cls-1" width="8" height="8"/>
      <rect id="p-2" class="cls-1" y="8" width="8" height="8"/>
      <rect id="p-3" class="cls-1" y="16" width="8" height="8"/>
      <rect id="p-4" class="cls-1" y="24" width="8" height="8"/>
      <rect id="p-5" class="cls-1" y="32" width="8" height="8"/>
      <rect id="p-6" class="cls-1" y="40" width="8" height="8"/>
      <rect id="p-7" class="cls-1" y="48" width="8" height="8"/>
      <rect id="p-8" class="cls-1" y="64" width="8" height="8"/>
      <rect id="p-9" class="cls-1" y="72" width="8" height="8"/>
      <rect id="p-10" class="cls-1" y="80" width="8" height="8"/>
      <rect id="p-11" class="cls-1" y="88" width="8" height="8"/>
      <rect id="p-12" class="cls-1" y="96" width="8" height="8"/>
      <rect id="p-13" class="cls-1" y="144" width="8" height="8"/>
      <rect id="p-14" class="cls-1" y="152" width="8" height="8"/>
      <rect id="p-15" class="cls-1" y="160" width="8" height="8"/>
      <rect id="p-16" class="cls-1" y="168" width="8" height="8"/>
      <rect id="p-17" class="cls-1" y="176" width="8" height="8"/>
      <rect id="p-18" class="cls-1" y="184" width="8" height="8"/>
      <rect id="p-19" class="cls-1" y="192" width="8" height="8"/>
      <rect id="p-20" class="cls-1" x="8" width="8" height="8"/>
      <rect id="p-21" class="cls-1" x="8" y="48" width="8" height="8"/>
      <rect id="p-22" class="cls-1" x="8" y="64" width="8" height="8"/>
      <rect id="p-23" class="cls-1" x="8" y="72" width="8" height="8"/>
      <rect id="p-24" class="cls-1" x="8" y="80" width="8" height="8"/>
      <rect id="p-25" class="cls-1" x="8" y="104" width="8" height="8"/>
      <rect id="p-26" class="cls-1" x="8" y="120" width="8" height="8"/>
      <rect id="p-27" class="cls-1" x="8" y="128" width="8" height="8"/>
      <rect id="p-28" class="cls-1" x="8" y="144" width="8" height="8"/>
      <rect id="p-29" class="cls-1" x="8" y="192" width="8" height="8"/>
      <rect id="p-30" class="cls-1" x="16" width="8" height="8"/>
      <rect id="p-31" class="cls-1" x="16" y="16" width="8" height="8"/>
      <rect id="p-32" class="cls-1" x="16" y="24" width="8" height="8"/>
      <rect id="p-33" class="cls-1" x="16" y="32" width="8" height="8"/>
      <rect id="p-34" class="cls-1" x="16" y="48" width="8" height="8"/>
      <rect id="p-35" class="cls-1" x="16" y="96" width="8" height="8"/>
      <rect id="p-36" class="cls-1" x="16" y="128" width="8" height="8"/>
      <rect id="p-37" class="cls-1" x="16" y="144" width="8" height="8"/>
      <rect id="p-38" class="cls-1" x="16" y="160" width="8" height="8"/>
      <rect id="p-39" class="cls-1" x="16" y="168" width="8" height="8"/>
      <rect id="p-40" class="cls-1" x="16" y="176" width="8" height="8"/>
      <rect id="p-41" class="cls-1" x="16" y="192" width="8" height="8"/>
      <rect id="p-42" class="cls-1" x="24" width="8" height="8"/>
      <rect id="p-43" class="cls-1" x="24" y="16" width="8" height="8"/>
      <rect id="p-44" class="cls-1" x="24" y="24" width="8" height="8"/>
      <rect id="p-45" class="cls-1" x="24" y="32" width="8" height="8"/>
      <rect id="p-46" class="cls-1" x="24" y="48" width="8" height="8"/>
      <rect id="p-47" class="cls-1" x="24" y="64" width="8" height="8"/>
      <rect id="p-48" class="cls-1" x="24" y="80" width="8" height="8"/>
      <rect id="p-49" class="cls-1" x="24" y="104" width="8" height="8"/>
      <rect id="p-50" class="cls-1" x="24" y="112" width="8" height="8"/>
      <rect id="p-51" class="cls-1" x="24" y="120" width="8" height="8"/>
      <rect id="p-52" class="cls-1" x="24" y="128" width="8" height="8"/>
      <rect id="p-53" class="cls-1" x="24" y="144" width="8" height="8"/>
      <rect id="p-54" class="cls-1" x="24" y="160" width="8" height="8"/>
      <rect id="p-55" class="cls-1" x="24" y="168" width="8" height="8"/>
      <rect id="p-56" class="cls-1" x="24" y="176" width="8" height="8"/>
      <rect id="p-57" class="cls-1" x="24" y="192" width="8" height="8"/>
      <rect id="p-58" class="cls-1" x="32" width="8" height="8"/>
      <rect id="p-59" class="cls-1" x="32" y="16" width="8" height="8"/>
      <rect id="p-60" class="cls-1" x="32" y="24" width="8" height="8"/>
      <rect id="p-61" class="cls-1" x="32" y="32" width="8" height="8"/>
      <rect id="p-62" class="cls-1" x="32" y="48" width="8" height="8"/>
      <rect id="p-63" class="cls-1" x="32" y="64" width="8" height="8"/>
      <rect id="p-64" class="cls-1" x="32" y="72" width="8" height="8"/>
      <rect id="p-65" class="cls-1" x="32" y="104" width="8" height="8"/>
      <rect id="p-66" class="cls-1" x="32" y="120" width="8" height="8"/>
      <rect id="p-67" class="cls-1" x="32" y="128" width="8" height="8"/>
      <rect id="p-68" class="cls-1" x="32" y="144" width="8" height="8"/>
      <rect id="p-69" class="cls-1" x="32" y="160" width="8" height="8"/>
      <rect id="p-70" class="cls-1" x="32" y="168" width="8" height="8"/>
      <rect id="p-71" class="cls-1" x="32" y="176" width="8" height="8"/>
      <rect id="p-72" class="cls-1" x="32" y="192" width="8" height="8"/>
      <rect id="p-73" class="cls-1" x="40" width="8" height="8"/>
      <rect id="p-74" class="cls-1" x="40" y="48" width="8" height="8"/>
      <rect id="p-75" class="cls-1" x="40" y="80" width="8" height="8"/>
      <rect id="p-76" class="cls-1" x="40" y="104" width="8" height="8"/>
      <rect id="p-77" class="cls-1" x="40" y="144" width="8" height="8"/>
      <rect id="p-78" class="cls-1" x="40" y="192" width="8" height="8"/>
      <rect id="p-79" class="cls-1" x="48" width="8" height="8"/>
      <rect id="p-80" class="cls-1" x="48" y="8" width="8" height="8"/>
      <rect id="p-81" class="cls-1" x="48" y="16" width="8" height="8"/>
      <rect id="p-82" class="cls-1" x="48" y="24" width="8" height="8"/>
      <rect id="p-83" class="cls-1" x="48" y="32" width="8" height="8"/>
      <rect id="p-84" class="cls-1" x="48" y="40" width="8" height="8"/>
      <rect id="p-85" class="cls-1" x="48" y="48" width="8" height="8"/>
      <rect id="p-86" class="cls-1" x="48" y="64" width="8" height="8"/>
      <rect id="p-87" class="cls-1" x="48" y="80" width="8" height="8"/>
      <rect id="p-88" class="cls-1" x="48" y="96" width="8" height="8"/>
      <rect id="p-89" class="cls-1" x="48" y="112" width="8" height="8"/>
      <rect id="p-90" class="cls-1" x="48" y="128" width="8" height="8"/>
      <rect id="p-91" class="cls-1" x="48" y="144" width="8" height="8"/>
      <rect id="p-92" class="cls-1" x="48" y="152" width="8" height="8"/>
      <rect id="p-93" class="cls-1" x="48" y="160" width="8" height="8"/>
      <rect id="p-94" class="cls-1" x="48" y="168" width="8" height="8"/>
      <rect id="p-95" class="cls-1" x="48" y="176" width="8" height="8"/>
      <rect id="p-96" class="cls-1" x="48" y="184" width="8" height="8"/>
      <rect id="p-97" class="cls-1" x="48" y="192" width="8" height="8"/>
      <rect id="p-98" class="cls-1" x="56" y="72" width="8" height="8"/>
      <rect id="p-99" class="cls-1" x="56" y="104" width="8" height="8"/>
      <rect id="p-100" class="cls-1" x="56" y="112" width="8" height="8"/>
      <rect id="p-101" class="cls-1" x="56" y="128" width="8" height="8"/>
      <rect id="p-102" class="cls-1" x="64" width="8" height="8"/>
      <rect id="p-103" class="cls-1" x="64" y="48" width="8" height="8"/>
      <rect id="p-104" class="cls-1" x="64" y="56" width="8" height="8"/>
      <rect id="p-105" class="cls-1" x="64" y="72" width="8" height="8"/>
      <rect id="p-106" class="cls-1" x="64" y="96" width="8" height="8"/>
      <rect id="p-107" class="cls-1" x="64" y="112" width="8" height="8"/>
      <rect id="p-108" class="cls-1" x="64" y="128" width="8" height="8"/>
      <rect id="p-109" class="cls-1" x="64" y="136" width="8" height="8"/>
      <rect id="p-110" class="cls-1" x="64" y="160" width="8" height="8"/>
      <rect id="p-111" class="cls-1" x="64" y="168" width="8" height="8"/>
      <rect id="p-112" class="cls-1" x="64" y="184" width="8" height="8"/>
      <rect id="p-113" class="cls-1" x="64" y="192" width="8" height="8"/>
      <rect id="p-114" class="cls-1" x="72" y="8" width="8" height="8"/>
      <rect id="p-115" class="cls-1" x="72" y="32" width="8" height="8"/>
      <rect id="p-116" class="cls-1" x="72" y="64" width="8" height="8"/>
      <rect id="p-117" class="cls-1" x="72" y="72" width="8" height="8"/>
      <rect id="p-118" class="cls-1" x="72" y="88" width="8" height="8"/>
      <rect id="p-119" class="cls-1" x="72" y="96" width="8" height="8"/>
      <rect id="p-120" class="cls-1" x="72" y="104" width="8" height="8"/>
      <rect id="p-121" class="cls-1" x="72" y="112" width="8" height="8"/>
      <rect id="p-122" class="cls-1" x="72" y="128" width="8" height="8"/>
      <rect id="p-123" class="cls-1" x="72" y="136" width="8" height="8"/>
      <rect id="p-124" class="cls-1" x="72" y="152" width="8" height="8"/>
      <rect id="p-125" class="cls-1" x="72" y="160" width="8" height="8"/>
      <rect id="p-126" class="cls-1" x="72" y="168" width="8" height="8"/>
      <rect id="p-127" class="cls-1" x="72" y="176" width="8" height="8"/>
      <rect id="p-128" class="cls-1" x="72" y="184" width="8" height="8"/>
      <rect id="p-129" class="cls-1" x="72" y="192" width="8" height="8"/>
      <rect id="p-130" class="cls-1" x="80" width="8" height="8"/>
      <rect id="p-131" class="cls-1" x="80" y="8" width="8" height="8"/>
      <rect id="p-132" class="cls-1" x="80" y="16" width="8" height="8"/>
      <rect id="p-133" class="cls-1" x="80" y="40" width="8" height="8"/>
      <rect id="p-134" class="cls-1" x="80" y="48" width="8" height="8"/>
      <rect id="p-135" class="cls-1" x="80" y="56" width="8" height="8"/>
      <rect id="p-136" class="cls-1" x="80" y="64" width="8" height="8"/>
      <rect id="p-137" class="cls-1" x="80" y="80" width="8" height="8"/>
      <rect id="p-138" class="cls-1" x="80" y="88" width="8" height="8"/>
      <rect id="p-139" class="cls-1" x="80" y="112" width="8" height="8"/>
      <rect id="p-140" class="cls-1" x="80" y="120" width="8" height="8"/>
      <rect id="p-141" class="cls-1" x="80" y="136" width="8" height="8"/>
      <rect id="p-142" class="cls-1" x="80" y="144" width="8" height="8"/>
      <rect id="p-143" class="cls-1" x="80" y="160" width="8" height="8"/>
      <rect id="p-144" class="cls-1" x="80" y="176" width="8" height="8"/>
      <rect id="p-145" class="cls-1" x="80" y="184" width="8" height="8"/>
      <rect id="p-146" class="cls-1" x="88" width="8" height="8"/>
      <rect id="p-147" class="cls-1" x="88" y="40" width="8" height="8"/>
      <rect id="p-148" class="cls-1" x="88" y="56" width="8" height="8"/>
      <rect id="p-149" class="cls-1" x="88" y="72" width="8" height="8"/>
      <rect id="p-150" class="cls-1" x="88" y="80" width="8" height="8"/>
      <rect id="p-151" class="cls-1" x="88" y="96" width="8" height="8"/>
      <rect id="p-152" class="cls-1" x="88" y="104" width="8" height="8"/>
      <rect id="p-153" class="cls-1" x="88" y="128" width="8" height="8"/>
      <rect id="p-154" class="cls-1" x="88" y="144" width="8" height="8"/>
      <rect id="p-155" class="cls-1" x="88" y="152" width="8" height="8"/>
      <rect id="p-156" class="cls-1" x="88" y="160" width="8" height="8"/>
      <rect id="p-157" class="cls-1" x="88" y="168" width="8" height="8"/>
      <rect id="p-158" class="cls-1" x="88" y="176" width="8" height="8"/>
      <rect id="p-159" class="cls-1" x="88" y="184" width="8" height="8"/>
      <rect id="p-160" class="cls-1" x="88" y="192" width="8" height="8"/>
      <rect id="p-161" class="cls-1" x="96" width="8" height="8"/>
      <rect id="p-162" class="cls-1" x="96" y="24" width="8" height="8"/>
      <rect id="p-163" class="cls-1" x="96" y="40" width="8" height="8"/>
      <rect id="p-164" class="cls-1" x="96" y="48" width="8" height="8"/>
      <rect id="p-165" class="cls-1" x="96" y="56" width="8" height="8"/>
      <rect id="p-166" class="cls-1" x="96" y="88" width="8" height="8"/>
      <rect id="p-167" class="cls-1" x="96" y="96" width="8" height="8"/>
      <rect id="p-168" class="cls-1" x="96" y="120" width="8" height="8"/>
      <rect id="p-169" class="cls-1" x="96" y="128" width="8" height="8"/>
      <rect id="p-170" class="cls-1" x="96" y="160" width="8" height="8"/>
      <rect id="p-171" class="cls-1" x="96" y="176" width="8" height="8"/>
      <rect id="p-172" class="cls-1" x="96" y="192" width="8" height="8"/>
      <rect id="p-173" class="cls-1" x="104" y="16" width="8" height="8"/>
      <rect id="p-174" class="cls-1" x="104" y="24" width="8" height="8"/>
      <rect id="p-175" class="cls-1" x="104" y="40" width="8" height="8"/>
      <rect id="p-176" class="cls-1" x="104" y="56" width="8" height="8"/>
      <rect id="p-177" class="cls-1" x="104" y="72" width="8" height="8"/>
      <rect id="p-178" class="cls-1" x="104" y="80" width="8" height="8"/>
      <rect id="p-179" class="cls-1" x="104" y="104" width="8" height="8"/>
      <rect id="p-180" class="cls-1" x="104" y="128" width="8" height="8"/>
      <rect id="p-181" class="cls-1" x="104" y="144" width="8" height="8"/>
      <rect id="p-182" class="cls-1" x="104" y="152" width="8" height="8"/>
      <rect id="p-183" class="cls-1" x="104" y="168" width="8" height="8"/>
      <rect id="p-184" class="cls-1" x="112" width="8" height="8"/>
      <rect id="p-185" class="cls-1" x="112" y="16" width="8" height="8"/>
      <rect id="p-186" class="cls-1" x="112" y="32" width="8" height="8"/>
      <rect id="p-187" class="cls-1" x="112" y="40" width="8" height="8"/>
      <rect id="p-188" class="cls-1" x="112" y="48" width="8" height="8"/>
      <rect id="p-189" class="cls-1" x="112" y="56" width="8" height="8"/>
      <rect id="p-190" class="cls-1" x="112" y="64" width="8" height="8"/>
      <rect id="p-191" class="cls-1" x="112" y="72" width="8" height="8"/>
      <rect id="p-192" class="cls-1" x="112" y="88" width="8" height="8"/>
      <rect id="p-193" class="cls-1" x="112" y="120" width="8" height="8"/>
      <rect id="p-194" class="cls-1" x="112" y="136" width="8" height="8"/>
      <rect id="p-195" class="cls-1" x="112" y="160" width="8" height="8"/>
      <rect id="p-196" class="cls-1" x="112" y="168" width="8" height="8"/>
      <rect id="p-197" class="cls-1" x="112" y="184" width="8" height="8"/>
      <rect id="p-198" class="cls-1" x="120" y="16" width="8" height="8"/>
      <rect id="p-199" class="cls-1" x="120" y="64" width="8" height="8"/>
      <rect id="p-200" class="cls-1" x="120" y="72" width="8" height="8"/>
      <rect id="p-201" class="cls-1" x="120" y="80" width="8" height="8"/>
      <rect id="p-202" class="cls-1" x="120" y="88" width="8" height="8"/>
      <rect id="p-203" class="cls-1" x="120" y="104" width="8" height="8"/>
      <rect id="p-204" class="cls-1" x="120" y="112" width="8" height="8"/>
      <rect id="p-205" class="cls-1" x="120" y="120" width="8" height="8"/>
      <rect id="p-206" class="cls-1" x="120" y="128" width="8" height="8"/>
      <rect id="p-207" class="cls-1" x="120" y="136" width="8" height="8"/>
      <rect id="p-208" class="cls-1" x="120" y="152" width="8" height="8"/>
      <rect id="p-209" class="cls-1" x="120" y="160" width="8" height="8"/>
      <rect id="p-210" class="cls-1" x="120" y="184" width="8" height="8"/>
      <rect id="p-211" class="cls-1" x="128" width="8" height="8"/>
      <rect id="p-212" class="cls-1" x="128" y="8" width="8" height="8"/>
      <rect id="p-213" class="cls-1" x="128" y="24" width="8" height="8"/>
      <rect id="p-214" class="cls-1" x="128" y="32" width="8" height="8"/>
      <rect id="p-215" class="cls-1" x="128" y="48" width="8" height="8"/>
      <rect id="p-216" class="cls-1" x="128" y="56" width="8" height="8"/>
      <rect id="p-217" class="cls-1" x="128" y="64" width="8" height="8"/>
      <rect id="p-218" class="cls-1" x="128" y="96" width="8" height="8"/>
      <rect id="p-219" class="cls-1" x="128" y="112" width="8" height="8"/>
      <rect id="p-220" class="cls-1" x="128" y="120" width="8" height="8"/>
      <rect id="p-221" class="cls-1" x="128" y="128" width="8" height="8"/>
      <rect id="p-222" class="cls-1" x="128" y="136" width="8" height="8"/>
      <rect id="p-223" class="cls-1" x="128" y="144" width="8" height="8"/>
      <rect id="p-224" class="cls-1" x="128" y="152" width="8" height="8"/>
      <rect id="p-225" class="cls-1" x="128" y="160" width="8" height="8"/>
      <rect id="p-226" class="cls-1" x="128" y="168" width="8" height="8"/>
      <rect id="p-227" class="cls-1" x="128" y="192" width="8" height="8"/>
      <rect id="p-228" class="cls-1" x="136" y="80" width="8" height="8"/>
      <rect id="p-229" class="cls-1" x="136" y="112" width="8" height="8"/>
      <rect id="p-230" class="cls-1" x="136" y="128" width="8" height="8"/>
      <rect id="p-231" class="cls-1" x="136" y="160" width="8" height="8"/>
      <rect id="p-232" class="cls-1" x="136" y="168" width="8" height="8"/>
      <rect id="p-233" class="cls-1" x="136" y="176" width="8" height="8"/>
      <rect id="p-234" class="cls-1" x="136" y="184" width="8" height="8"/>
      <rect id="p-235" class="cls-1" x="144" width="8" height="8"/>
      <rect id="p-236" class="cls-1" x="144" y="8" width="8" height="8"/>
      <rect id="p-237" class="cls-1" x="144" y="16" width="8" height="8"/>
      <rect id="p-238" class="cls-1" x="144" y="24" width="8" height="8"/>
      <rect id="p-239" class="cls-1" x="144" y="32" width="8" height="8"/>
      <rect id="p-240" class="cls-1" x="144" y="40" width="8" height="8"/>
      <rect id="p-241" class="cls-1" x="144" y="48" width="8" height="8"/>
      <rect id="p-242" class="cls-1" x="144" y="64" width="8" height="8"/>
      <rect id="p-243" class="cls-1" x="144" y="88" width="8" height="8"/>
      <rect id="p-244" class="cls-1" x="144" y="96" width="8" height="8"/>
      <rect id="p-245" class="cls-1" x="144" y="128" width="8" height="8"/>
      <rect id="p-246" class="cls-1" x="144" y="144" width="8" height="8"/>
      <rect id="p-247" class="cls-1" x="144" y="160" width="8" height="8"/>
      <rect id="p-248" class="cls-1" x="144" y="168" width="8" height="8"/>
      <rect id="p-249" class="cls-1" x="152" width="8" height="8"/>
      <rect id="p-250" class="cls-1" x="152" y="48" width="8" height="8"/>
      <rect id="p-251" class="cls-1" x="152" y="72" width="8" height="8"/>
      <rect id="p-252" class="cls-1" x="152" y="88" width="8" height="8"/>
      <rect id="p-253" class="cls-1" x="152" y="96" width="8" height="8"/>
      <rect id="p-254" class="cls-1" x="152" y="120" width="8" height="8"/>
      <rect id="p-255" class="cls-1" x="152" y="128" width="8" height="8"/>
      <rect id="p-256" class="cls-1" x="152" y="160" width="8" height="8"/>
      <rect id="p-257" class="cls-1" x="152" y="184" width="8" height="8"/>
      <rect id="p-258" class="cls-1" x="160" width="8" height="8"/>
      <rect id="p-259" class="cls-1" x="160" y="16" width="8" height="8"/>
      <rect id="p-260" class="cls-1" x="160" y="24" width="8" height="8"/>
      <rect id="p-261" class="cls-1" x="160" y="32" width="8" height="8"/>
      <rect id="p-262" class="cls-1" x="160" y="48" width="8" height="8"/>
      <rect id="p-263" class="cls-1" x="160" y="72" width="8" height="8"/>
      <rect id="p-264" class="cls-1" x="160" y="80" width="8" height="8"/>
      <rect id="p-265" class="cls-1" x="160" y="88" width="8" height="8"/>
      <rect id="p-266" class="cls-1" x="160" y="104" width="8" height="8"/>
      <rect id="p-267" class="cls-1" x="160" y="112" width="8" height="8"/>
      <rect id="p-268" class="cls-1" x="160" y="128" width="8" height="8"/>
      <rect id="p-269" class="cls-1" x="160" y="136" width="8" height="8"/>
      <rect id="p-270" class="cls-1" x="160" y="144" width="8" height="8"/>
      <rect id="p-271" class="cls-1" x="160" y="152" width="8" height="8"/>
      <rect id="p-272" class="cls-1" x="160" y="160" width="8" height="8"/>
      <rect id="p-273" class="cls-1" x="160" y="176" width="8" height="8"/>
      <rect id="p-274" class="cls-1" x="160" y="184" width="8" height="8"/>
      <rect id="p-275" class="cls-1" x="168" width="8" height="8"/>
      <rect id="p-276" class="cls-1" x="168" y="16" width="8" height="8"/>
      <rect id="p-277" class="cls-1" x="168" y="24" width="8" height="8"/>
      <rect id="p-278" class="cls-1" x="168" y="32" width="8" height="8"/>
      <rect id="p-279" class="cls-1" x="168" y="48" width="8" height="8"/>
      <rect id="p-280" class="cls-1" x="168" y="72" width="8" height="8"/>
      <rect id="p-281" class="cls-1" x="168" y="80" width="8" height="8"/>
      <rect id="p-282" class="cls-1" x="168" y="88" width="8" height="8"/>
      <rect id="p-283" class="cls-1" x="168" y="112" width="8" height="8"/>
      <rect id="p-284" class="cls-1" x="168" y="120" width="8" height="8"/>
      <rect id="p-285" class="cls-1" x="168" y="176" width="8" height="8"/>
      <rect id="p-286" class="cls-1" x="168" y="192" width="8" height="8"/>
      <rect id="p-287" class="cls-1" x="176" width="8" height="8"/>
      <rect id="p-288" class="cls-1" x="176" y="16" width="8" height="8"/>
      <rect id="p-289" class="cls-1" x="176" y="24" width="8" height="8"/>
      <rect id="p-290" class="cls-1" x="176" y="32" width="8" height="8"/>
      <rect id="p-291" class="cls-1" x="176" y="48" width="8" height="8"/>
      <rect id="p-292" class="cls-1" x="176" y="72" width="8" height="8"/>
      <rect id="p-293" class="cls-1" x="176" y="88" width="8" height="8"/>
      <rect id="p-294" class="cls-1" x="176" y="112" width="8" height="8"/>
      <rect id="p-295" class="cls-1" x="176" y="120" width="8" height="8"/>
      <rect id="p-296" class="cls-1" x="176" y="128" width="8" height="8"/>
      <rect id="p-297" class="cls-1" x="176" y="136" width="8" height="8"/>
      <rect id="p-298" class="cls-1" x="176" y="176" width="8" height="8"/>
      <rect id="p-299" class="cls-1" x="176" y="184" width="8" height="8"/>
      <rect id="p-300" class="cls-1" x="184" width="8" height="8"/>
      <rect id="p-301" class="cls-1" x="184" y="48" width="8" height="8"/>
      <rect id="p-302" class="cls-1" x="184" y="72" width="8" height="8"/>
      <rect id="p-303" class="cls-1" x="184" y="88" width="8" height="8"/>
      <rect id="p-304" class="cls-1" x="184" y="104" width="8" height="8"/>
      <rect id="p-305" class="cls-1" x="184" y="112" width="8" height="8"/>
      <rect id="p-306" class="cls-1" x="184" y="128" width="8" height="8"/>
      <rect id="p-307" class="cls-1" x="184" y="136" width="8" height="8"/>
      <rect id="p-308" class="cls-1" x="184" y="152" width="8" height="8"/>
      <rect id="p-309" class="cls-1" x="184" y="160" width="8" height="8"/>
      <rect id="p-310" class="cls-1" x="184" y="168" width="8" height="8"/>
      <rect id="p-311" class="cls-1" x="184" y="176" width="8" height="8"/>
      <rect id="p-312" class="cls-1" x="184" y="184" width="8" height="8"/>
      <rect id="p-313" class="cls-1" x="192" width="8" height="8"/>
      <rect id="p-314" class="cls-1" x="192" y="8" width="8" height="8"/>
      <rect id="p-315" class="cls-1" x="192" y="16" width="8" height="8"/>
      <rect id="p-316" class="cls-1" x="192" y="24" width="8" height="8"/>
      <rect id="p-317" class="cls-1" x="192" y="32" width="8" height="8"/>
      <rect id="p-318" class="cls-1" x="192" y="40" width="8" height="8"/>
      <rect id="p-319" class="cls-1" x="192" y="48" width="8" height="8"/>
      <rect id="p-320" class="cls-1" x="192" y="64" width="8" height="8"/>
      <rect id="p-321" class="cls-1" x="192" y="80" width="8" height="8"/>
      <rect id="p-322" class="cls-1" x="192" y="88" width="8" height="8"/>
      <rect id="p-323" class="cls-1" x="192" y="96" width="8" height="8"/>
      <rect id="p-324" class="cls-1" x="192" y="112" width="8" height="8"/>
      <rect id="p-325" class="cls-1" x="192" y="120" width="8" height="8"/>
      <rect id="p-326" class="cls-1" x="192" y="144" width="8" height="8"/>
      <rect id="p-327" class="cls-1" x="192" y="152" width="8" height="8"/>
      <rect id="p-328" class="cls-1" x="192" y="168" width="8" height="8"/>
      <rect id="p-329" class="cls-1" x="192" y="176" width="8" height="8"/>
      <rect id="p-330" class="cls-1" x="192" y="184" width="8" height="8"/>
      <rect id="p-331" class="cls-1" x="192" y="192" width="8" height="8"/>
    </g>
  </g>
</svg>