<?xml version="1.0" encoding="utf-8"?>
<!-- Generator: Adobe Illustrator 27.9.0, SVG Export Plug-In . SVG Version: 6.00 Build 0)  -->
<svg version="1.1" id="Camada_2_00000149343362531945900650000000770225780108573844_"
	 xmlns="http://www.w3.org/2000/svg" xmlns:xlink="http://www.w3.org/1999/xlink" x="0px" y="0px" viewBox="0 0 358.8 169.5"
	 style="enable-background:new 0 0 358.8 169.5;" xml:space="preserve">
<style type="text/css">
	.st0{fill:#FFFFFF;}
	.st1{fill:url(#SVGID_1_);}
	.st2{fill:url(#SVGID_00000049929275223303914890000017949415096445435815_);}
</style>
<g id="Logo_2">
	<polygon class="st0" points="33.8,118.6 19.7,118.6 19.7,98.2 33.5,98.2 33,101.7 24.1,101.7 24.1,106.3 32.6,106.3 32.2,109.9 
		24.1,109.9 24.1,115.1 33.5,115.1 	"/>
	<polygon class="st0" points="63.7,118.6 59.1,118.6 59.2,104.8 58.2,104.8 53.9,118.6 49.8,118.6 45.7,104.8 44.6,104.8 
		44.7,118.6 40.3,118.6 41,98.2 47.6,98.2 52,112.8 56.4,98.2 63,98.2 	"/>
	<path class="st0" d="M78.9,101.6h-3v7.1h2.3c2.4,0,3.5-1.8,3.5-3.9s-0.8-3.1-2.9-3.1 M78.4,112.1h-2.5v6.5h-4.4V98.2h7.6
		c5.3,0,7.3,1.6,7.3,6.4S83,112.2,78.4,112.1"/>
	<path class="st0" d="M100.3,101.6h-3v5.7h2.4c1.9,0,3-1.5,3-3.2S102.1,101.6,100.3,101.6 M109.7,118.6h-5.2l-3.9-8.1h-3.2v8.1H93
		V98.2h8c4.8,0,6.4,1.4,6.4,4.7s-3.8,5.5-3.8,5.5v0.6c0.9,0,1.7,0.8,2.1,1.5C107.1,113.3,108.4,116,109.7,118.6"/>
	<polygon class="st0" points="129.2,118.6 115.1,118.6 115.1,98.2 129,98.2 128.4,101.7 119.6,101.7 119.6,106.3 128,106.3 
		127.7,109.9 119.6,109.9 119.6,115.1 129,115.1 	"/>
	<path class="st0" d="M141.7,119c-5.2,0-7.5-1.2-7.5-1.2l1.2-3.7c0,0,2.6,1.2,6.3,1.2s2.8-1.2,2.8-2.3c0-3.8-9.9-3-9.9-9.6
		s2.3-5.4,5.8-5.4s7.5,0.3,7.5,0.3l-0.9,3.6c0,0-3.1-0.3-5.6-0.3s-2.3,0.5-2.3,1.7c0,3.4,9.9,2.3,9.9,9.5S146.2,119.1,141.7,119"/>
	<path class="st0" d="M165.8,110.3l-2-7.7h-1.4l-2.3,7.7h5.8H165.8z M172.7,118.6h-4.6l-1.5-5h-7.5l-1.6,5H153l6.8-20.4h6.7
		L172.7,118.6L172.7,118.6L172.7,118.6z"/>
	<path class="st0" d="M185.8,101.6h-3v5.7h2.4c1.9,0,3-1.5,3-3.2s-0.6-2.5-2.5-2.5 M195.2,118.6H190l-3.9-8.1h-3.2v8.1h-4.4V98.2h8
		c4.8,0,6.4,1.4,6.4,4.7s-3.8,5.5-3.8,5.5v0.6c0.9,0,1.7,0.8,2.1,1.5c1.4,2.8,2.7,5.5,4.1,8.2"/>
	<rect x="200.8" y="98.2" class="st0" width="4.4" height="20.4"/>
	<path class="st0" d="M223.8,110.3l-2-7.7h-1.4l-2.3,7.7h5.8H223.8z M230.7,118.6h-4.6l-1.5-5h-7.5l-1.6,5H211l6.8-20.4h6.7
		L230.7,118.6L230.7,118.6L230.7,118.6z"/>
	<polygon class="st0" points="250.5,118.6 236.5,118.6 236.5,98.2 240.9,98.2 240.9,115.1 250.2,115.1 	"/>
	<path class="st0" d="M24.1,131.4c-0.4-0.2-0.8-0.3-1.4-0.3c-1.3,0-2,1-2,2.5c0,1.6,0.7,2.6,2,2.6s1.9-1.1,1.9-2.5v-2.1L24.1,131.4
		L24.1,131.4z M26.5,137.5c0,0.1,0,0.2-0.2,0.2h-0.8c-0.1,0-0.2,0-0.2-0.2l-0.2-0.7c0-0.2-0.2-0.2-0.3,0c-0.6,0.7-1.4,1-2.3,1
		c-2.2,0-3.5-1.6-3.5-4.2s1.4-4.2,3.8-4.2s1,0,1.5,0.3l0.5,0.2v-4c0-0.1,0-0.2,0.2-0.2h1.5c0.1,0,0.2,0,0.2,0.2v11.6l0,0H26.5z"/>
	<path class="st0" d="M32.7,132.9c0.6,0,0.9-0.4,0.9-0.8c0-0.7-0.5-1-1.4-1c-0.9,0-1.9,0.7-2,2.2L32.7,132.9L32.7,132.9z M34,137.7
		c-0.6,0.2-1.2,0.2-1.7,0.2c-2.5,0-3.9-1.6-3.9-4.2s1.4-4.2,3.9-4.2s3.2,1,3.2,2.7s-0.8,2-2.5,2.3l-2.6,0.4c0.2,0.9,0.9,1.4,1.9,1.4
		c1,0,1,0,1.3-0.2l0.7-0.2c0.1,0,0.2,0,0.2,0.1l0.3,1.3c0,0.1,0,0.2-0.1,0.2L34,137.7L34,137.7z"/>
	<path class="st0" d="M41.1,126h1.5c0.1,0,0.2,0,0.2,0.2v11.3c0,0,0,0.2-0.2,0.2h-1.5c-0.1,0-0.2,0-0.2-0.2v-11.3
		C40.9,126.2,40.9,126,41.1,126z"/>
	<path class="st0" d="M46.6,130.4c0.1,0.2,0.2,0.2,0.4,0c0.6-0.7,1.5-1,2.3-1c1.9,0,3.1,1.2,3.1,3.2v4.9c0,0.1,0,0.2-0.2,0.2h-1.5
		c-0.1,0-0.2,0-0.2-0.2v-4.7c0-1.1-0.5-1.7-1.5-1.7s-2,0.9-2,2.5v3.9c0,0.1,0,0.2-0.2,0.2h-1.5c-0.1,0-0.2,0-0.2-0.2v-7.8
		c0-0.1,0-0.2,0.2-0.2h0.8c0.1,0,0.2,0,0.2,0.2v0.7c0.1,0,0.1,0,0.1,0H46.6z"/>
	<path class="st0" d="M56,133.7c0,1.6,0.8,2.6,2,2.6s2-0.9,2-2.6s-0.8-2.5-2-2.5S56,132.2,56,133.7 M61.9,133.7
		c0,2.6-1.5,4.2-3.8,4.2s-3.9-1.6-3.9-4.2s1.5-4.2,3.9-4.2S61.9,131.1,61.9,133.7"/>
	<path class="st0" d="M69.2,133.8c-0.5,1.3-1,2.7-1.3,3.8c0,0,0,0.2-0.2,0.2h-1.8c-0.1,0-0.2,0-0.2-0.2c-0.3-1.1-0.8-2.5-1.3-3.8
		l-1.7-3.9c0-0.1,0-0.2,0.2-0.2h1.6c0,0,0.2,0,0.2,0.1l1.2,2.8c0.4,1,0.7,2,0.8,2.8c0,0.2,0.2,0.2,0.3,0c0.1-0.8,0.4-1.8,0.8-2.8
		l1.2-2.8c0,0,0.1-0.1,0.2-0.1h1.6c0.1,0,0.2,0,0.2,0.2L69.2,133.8L69.2,133.8z"/>
	<path class="st0" d="M74.9,134.2c-0.8,0-1.2,0.4-1.2,1s0.5,1.1,1.3,1.1c1.3,0,2-0.7,2-1.9l0,0C77,134.3,74.9,134.3,74.9,134.2
		L74.9,134.2z M73.4,129.7c0.6-0.2,1.1-0.2,1.8-0.2c2.3,0,3.7,1.2,3.7,3.2v4.9c0,0.1,0,0.2-0.2,0.2h-0.8c-0.1,0-0.2,0-0.2-0.2v-0.5
		c-0.2-0.2-0.3-0.2-0.5,0c-0.5,0.6-1.3,0.9-2.3,0.9c-1.9,0-2.9-1-2.9-2.5s1.1-2.6,3-2.6h2.1c0-1.1-0.7-1.7-1.9-1.7s-0.9,0-1.3,0.2
		l-0.6,0.2c-0.1,0-0.2,0-0.2-0.1l-0.4-1.2c0-0.1,0-0.2,0.1-0.2l0.6-0.2l0,0L73.4,129.7z"/>
	<path class="st0" d="M86.1,137.7c-0.5,0.1-1,0.2-1.6,0.2l-0.2,0.5h0.1c0.8,0,1.3,0.6,1.3,1.5s-0.6,1.6-1.8,1.6s-0.6,0-0.8-0.1h-0.3
		c0-0.1-0.2-0.2,0-0.3l0.3-0.9c0-0.1,0.1-0.2,0.2-0.1h0.2c0.2,0.1,0.3,0.1,0.5,0.1c0.3,0,0.6-0.2,0.6-0.5c0-0.3-0.2-0.5-0.6-0.5
		h-0.6c0,0-0.2,0-0.2-0.1c0,0,0-0.1,0-0.2l0.3-1.1c-1.9-0.4-2.9-1.9-2.9-4.2c0-2.3,1.4-4.2,4-4.2s0.9,0,1.4,0.2l0.7,0.2
		c0.1,0,0.2,0.1,0.1,0.2l-0.4,1.3c0,0-0.1,0.2-0.2,0.1l-0.6-0.2c-0.4-0.1-0.8-0.2-1.1-0.2c-1.5,0-2.2,0.9-2.2,2.5s0.7,2.6,2.1,2.6
		s0.8,0,1.2-0.2l0.6-0.2c0.1,0,0.2,0,0.2,0.1l0.4,1.3c0,0.1,0,0.2-0.1,0.2l-0.7,0.2l0,0L86.1,137.7z"/>
	<path class="st0" d="M91.4,134.2c-0.8,0-1.2,0.4-1.2,1s0.4,1.1,1.3,1.1c1.3,0,2-0.7,2-1.9l0,0C93.5,134.3,91.4,134.3,91.4,134.2
		L91.4,134.2L91.4,134.2z M89.8,126.5c0.3-0.6,0.7-0.9,1.3-0.9s0.6,0,0.9,0.3l0.6,0.4c0.1,0,0.2,0.1,0.3,0.1s0.2,0,0.4-0.3l0.2-0.3
		c0,0,0.1-0.1,0.2-0.1h0.8c0.2,0,0.2,0,0.1,0.2l-0.4,0.8c-0.3,0.6-0.7,0.9-1.3,0.9s-0.6-0.1-0.9-0.3l-0.6-0.3
		c-0.1,0-0.2-0.2-0.3-0.2s-0.2,0-0.3,0.3l-0.2,0.3c0,0-0.1,0.1-0.2,0.1h-0.8c-0.1,0-0.2,0-0.1-0.2L89.8,126.5L89.8,126.5L89.8,126.5
		z M89.8,129.7c0.6-0.2,1.1-0.2,1.8-0.2c2.3,0,3.7,1.2,3.7,3.2v4.9c0,0.1,0,0.2-0.2,0.2h-0.8c-0.1,0-0.2,0-0.2-0.2v-0.5
		c-0.2-0.2-0.3-0.2-0.5,0c-0.5,0.6-1.3,0.9-2.3,0.9c-1.9,0-2.9-1-2.9-2.5s1.1-2.6,3.1-2.6h2.1c0-1.1-0.7-1.7-1.9-1.7s-0.9,0-1.3,0.2
		l-0.6,0.2c-0.1,0-0.2,0-0.2-0.1l-0.4-1.2c0-0.1,0-0.2,0.1-0.2l0.6-0.2l0,0L89.8,129.7z"/>
	<path class="st0" d="M98.9,133.7c0,1.6,0.8,2.6,2,2.6s2-0.9,2-2.6s-0.8-2.5-2-2.5S98.9,132.2,98.9,133.7 M104.7,133.7
		c0,2.6-1.5,4.2-3.8,4.2s-3.9-1.6-3.9-4.2s1.5-4.2,3.9-4.2S104.7,131.1,104.7,133.7"/>
	<path class="st0" d="M114,132.9c0.6,0,0.9-0.4,0.9-0.8c0-0.7-0.5-1-1.4-1s-1.9,0.7-2,2.2L114,132.9L114,132.9z M115.3,137.7
		c-0.6,0.2-1.2,0.2-1.7,0.2c-2.5,0-3.9-1.6-3.9-4.2s1.4-4.2,3.9-4.2s3.2,1,3.2,2.7s-0.8,2-2.5,2.3l-2.6,0.4c0.2,0.9,0.8,1.4,1.9,1.4
		s1,0,1.3-0.2l0.7-0.2c0.1,0,0.2,0,0.2,0.1l0.3,1.3c0,0.1,0,0.2-0.1,0.2L115.3,137.7L115.3,137.7L115.3,137.7z"/>
	<path class="st0" d="M124.2,136h2.2c2,0,3.2-1.5,3.2-4.2s-1.2-4.2-3.2-4.2h-2.2V136L124.2,136z M126.4,126c3.2,0,5.1,2.3,5.1,5.9
		c0,3.6-2,5.8-5.1,5.8h-3.9c-0.1,0-0.2,0-0.2-0.2v-11.3c0-0.1,0-0.2,0.2-0.2C122.5,126,126.4,126,126.4,126z"/>
	<path class="st0" d="M137.4,132.9c0.6,0,0.9-0.4,0.9-0.8c0-0.7-0.5-1-1.4-1s-1.9,0.7-2,2.2L137.4,132.9L137.4,132.9z M138.7,137.7
		c-0.6,0.2-1.2,0.2-1.7,0.2c-2.5,0-3.9-1.6-3.9-4.2s1.4-4.2,3.9-4.2s3.2,1,3.2,2.7s-0.8,2-2.5,2.3l-2.6,0.4c0.2,0.9,0.8,1.4,1.9,1.4
		s1,0,1.3-0.2l0.7-0.2c0.1,0,0.2,0,0.2,0.1l0.3,1.3c0,0.1,0,0.2-0.1,0.2L138.7,137.7L138.7,137.7L138.7,137.7z"/>
	<path class="st0" d="M143.9,134.1c-1.4-0.3-2-1.1-2-2.3c0-1.2,1.1-2.4,3.1-2.4s1.5,0.1,2.1,0.3l0.7,0.2c0.1,0,0.2,0.1,0.1,0.2
		l-0.4,1.2c0,0.1-0.1,0.2-0.2,0.1l-0.7-0.2c-0.4-0.1-1.1-0.2-1.6-0.2c-0.8,0-1.2,0.3-1.2,0.7s0.2,0.6,0.8,0.8l1.7,0.4
		c1.5,0.4,2.1,1.1,2.1,2.3s-1.2,2.5-3.2,2.5s-1.7-0.1-2.6-0.3l-0.7-0.2c-0.1,0-0.2-0.1-0.1-0.2l0.4-1.3c0,0,0.1-0.2,0.2-0.1l0.6,0.2
		c0.6,0.2,1.5,0.3,2.1,0.3c0.6,0,1.3-0.3,1.3-0.8s-0.2-0.7-0.8-0.8L143.9,134.1L143.9,134.1L143.9,134.1z"/>
	<path class="st0" d="M154,132.9c0.6,0,0.9-0.4,0.9-0.8c0-0.7-0.5-1-1.4-1s-1.9,0.7-2,2.2L154,132.9L154,132.9z M155.3,137.7
		c-0.6,0.2-1.2,0.2-1.7,0.2c-2.5,0-3.9-1.6-3.9-4.2s1.4-4.2,3.9-4.2s3.2,1,3.2,2.7s-0.8,2-2.5,2.3l-2.6,0.4c0.2,0.9,0.9,1.4,1.9,1.4
		s1,0,1.3-0.2l0.7-0.2c0.1,0,0.2,0,0.2,0.1l0.3,1.3c0,0.1,0,0.2-0.1,0.2l-0.8,0.2l0,0L155.3,137.7z"/>
	<path class="st0" d="M159.9,130.4c0.1,0.2,0.2,0.2,0.4,0c0.6-0.7,1.5-1,2.3-1c1.9,0,3.1,1.2,3.1,3.2v4.9c0,0.1,0,0.2-0.2,0.2H164
		c-0.1,0-0.2,0-0.2-0.2v-4.7c0-1.1-0.6-1.7-1.5-1.7s-2,0.9-2,2.5v3.9c0,0.1,0,0.2-0.2,0.2h-1.5c-0.1,0-0.2,0-0.2-0.2v-7.8
		c0-0.1,0-0.2,0.2-0.2h0.8c0.1,0,0.2,0,0.2,0.2v0.7C159.7,130.4,159.8,130.4,159.9,130.4L159.9,130.4z"/>
	<path class="st0" d="M173.4,133.8c-0.5,1.3-1,2.7-1.3,3.8c0,0-0.1,0.2-0.2,0.2h-1.8c-0.1,0-0.2,0-0.2-0.2c-0.3-1.1-0.8-2.5-1.3-3.8
		l-1.7-3.9c0-0.1,0-0.2,0.1-0.2h1.6c0.1,0,0.2,0,0.2,0.1l1.2,2.8c0.4,1,0.7,2,0.8,2.8c0,0.2,0.2,0.2,0.3,0c0.1-0.8,0.4-1.8,0.8-2.8
		l1.2-2.8c0,0,0.1-0.1,0.2-0.1h1.6c0.1,0,0.2,0,0.1,0.2L173.4,133.8L173.4,133.8z"/>
	<path class="st0" d="M178,133.7c0,1.6,0.8,2.6,2,2.6s2-0.9,2-2.6s-0.8-2.5-2-2.5S178,132.2,178,133.7 M183.9,133.7
		c0,2.6-1.5,4.2-3.9,4.2s-3.9-1.6-3.9-4.2s1.5-4.2,3.9-4.2S183.9,131.1,183.9,133.7"/>
	<path class="st0" d="M187.6,135.8c0,0.3,0.1,0.4,0.3,0.4h0.1c0.1,0,0.2,0,0.2,0l0.5,1.2c0,0.1,0,0.2,0,0.2c-0.2,0-0.5,0.2-0.8,0.2
		c-1.4,0-2.2-0.8-2.2-2.1v-9.9c0-0.1,0-0.2,0.2-0.2h1.5c0.1,0,0.2,0,0.2,0.2v9.9l0,0V135.8z"/>
	<path class="st0" d="M195.8,133.8c-0.5,1.3-1,2.7-1.3,3.8c0,0-0.1,0.2-0.2,0.2h-1.8c-0.1,0-0.2,0-0.2-0.2c-0.3-1.1-0.8-2.5-1.3-3.8
		l-1.7-3.9c0-0.1,0-0.2,0.1-0.2h1.6c0.1,0,0.2,0,0.2,0.1l1.2,2.8c0.4,1,0.7,2,0.8,2.8c0,0.2,0.2,0.2,0.3,0c0.1-0.8,0.4-1.8,0.8-2.8
		l1.2-2.8c0,0,0.1-0.1,0.2-0.1h1.6c0.1,0,0.2,0,0.1,0.2L195.8,133.8L195.8,133.8z"/>
	<path class="st0" d="M201.6,126.7c0,0.7-0.4,1.1-1.1,1.1s-1.1-0.4-1.1-1.1s0.4-1.1,1.1-1.1S201.6,126,201.6,126.7 M201.6,137.5
		c0,0.1,0,0.2-0.2,0.2h-1.5c-0.1,0-0.2,0-0.2-0.2v-6.3h-0.8c-0.1,0-0.2,0-0.2-0.2v-1.3c0-0.1,0-0.2,0.2-0.2h2.5c0.1,0,0.2,0,0.2,0.2
		V137.5z"/>
	<path class="st0" d="M205.2,130.4c0.1,0.2,0.2,0.2,0.4,0c0.6-0.7,1.4-1,2.2-1s1.7,0.5,2.2,1.1c0.2,0.2,0.4,0.2,0.6,0
		c0.7-0.9,1.5-1.1,2.3-1.1c1.9,0,2.9,1.2,2.9,3.2v4.9c0,0.1,0,0.2-0.2,0.2h-1.5c-0.1,0-0.2,0-0.2-0.2v-4.7c0-1.1-0.4-1.7-1.3-1.7
		c-1.3,0-1.8,1-1.8,2.5v3.9c0,0.1,0,0.2-0.2,0.2h-1.5c-0.1,0-0.2,0-0.2-0.2v-4.8c0-1-0.5-1.7-1.3-1.7c-1.3,0-1.8,1-1.8,2.5v3.9
		c0,0.1,0,0.2-0.2,0.2h-1.5c-0.1,0-0.2,0-0.2-0.2v-7.8c0-0.1,0-0.2,0.2-0.2h0.8c0.1,0,0.2,0,0.2,0.2v0.7
		C205.2,130.3,205.2,130.3,205.2,130.4L205.2,130.4z"/>
	<path class="st0" d="M221.9,132.9c0.6,0,0.9-0.4,0.9-0.8c0-0.7-0.5-1-1.4-1s-1.9,0.7-2,2.2L221.9,132.9L221.9,132.9z M223.2,137.7
		c-0.6,0.2-1.2,0.2-1.7,0.2c-2.5,0-3.9-1.6-3.9-4.2s1.4-4.2,3.9-4.2s3.2,1,3.2,2.7s-0.8,2-2.5,2.3l-2.6,0.4c0.2,0.9,0.9,1.4,1.9,1.4
		s1,0,1.3-0.2l0.7-0.2c0.1,0,0.2,0,0.2,0.1l0.3,1.3c0,0.1,0,0.2-0.1,0.2l-0.8,0.2l0,0L223.2,137.7z"/>
	<path class="st0" d="M227.9,130.4c0.1,0.2,0.2,0.2,0.4,0c0.6-0.7,1.5-1,2.3-1c1.9,0,3.1,1.2,3.1,3.2v4.9c0,0.1,0,0.2-0.2,0.2H232
		c-0.1,0-0.2,0-0.2-0.2v-4.7c0-1.1-0.6-1.7-1.5-1.7s-2,0.9-2,2.5v3.9c0,0.1,0,0.2-0.2,0.2h-1.5c-0.1,0-0.2,0-0.2-0.2v-7.8
		c0-0.1,0-0.2,0.2-0.2h0.8c0.1,0,0.2,0,0.2,0.2v0.7C227.7,130.4,227.8,130.4,227.9,130.4L227.9,130.4z"/>
	<path class="st0" d="M240,129.6c0.1,0,0.2,0,0.2,0.2v1.3c0,0.1,0,0.2-0.2,0.2h-1.9v4.1c0,0.6,0.2,0.9,0.6,0.9s0.3,0,0.4,0
		c0.1,0,0.2,0,0.2,0l0.5,1.1v0.2c-0.3,0.2-0.7,0.3-1.1,0.3c-1.6,0-2.5-1-2.5-2.6v-4.1h-0.8c-0.1,0-0.2,0-0.2-0.2v-1.3
		c0-0.1,0-0.2,0.2-0.2h0.8v-1.9c0,0,0-0.2,0.1-0.2l1.5-0.5c0.1,0,0.2,0,0.2,0.2v2.5h1.9l0,0H240z"/>
	<path class="st0" d="M243.3,133.7c0,1.6,0.8,2.6,2,2.6s2-0.9,2-2.6s-0.8-2.5-2-2.5S243.3,132.2,243.3,133.7 M249.2,133.7
		c0,2.6-1.5,4.2-3.9,4.2s-3.9-1.6-3.9-4.2s1.5-4.2,3.9-4.2S249.2,131.1,249.2,133.7"/>
	<path class="st0" d="M64.8,66.7c0-8.1,4.2-15.2,10.5-19.3l6.1,9.5c-3.2,2.1-5.3,5.7-5.3,9.8c0,6.4,5.2,11.6,11.6,11.6
		s11.6-5.2,11.6-11.6S97.2,59,94,56.9l6.1-9.5c6.3,4.1,10.5,11.2,10.5,19.3c0,12.7-10.3,22.9-22.9,22.9S64.8,79.3,64.8,66.7"/>
	<path class="st0" d="M199.5,43.8v24.8c0,11.4-9,20.9-20.4,21.1c-11.6,0.2-21.2-9.2-21.2-20.8V43.7h11.3v25c0,5.1,4,9.5,9.1,9.7
		c5.4,0.2,9.8-4.1,9.8-9.4V50.6c0-3.7,3-6.7,6.7-6.7L199.5,43.8L199.5,43.8z"/>
	<path class="st0" d="M149.9,71.2c2.6-3,4.2-6.9,4.1-11.2c-0.2-9.1-7.8-16.3-16.9-16.3h-23.6V55h23.7c2.7,0,5.1,2,5.4,4.7
		c0.3,3.1-2.2,5.7-5.2,5.7h-16.2c-4.3,0-7.7,3.5-7.7,7.7v16.3h11.3V76.7h12.6c2.9,0,5.2,2.3,5.2,5.2v7.5h11.3v-7.5
		c0-2-0.4-3.9-1-5.7c-0.7-1.9-1.8-3.7-3.1-5.2"/>
	
		<linearGradient id="SVGID_1_" gradientUnits="userSpaceOnUse" x1="87.85" y1="631.2944" x2="87.85" y2="617.5944" gradientTransform="matrix(1 0 0 1 0 -575)">
		<stop  offset="0" style="stop-color:#FBB90A"/>
		<stop  offset="1" style="stop-color:#F28B20"/>
	</linearGradient>
	<path class="st1" d="M82.9,44.6c-1.1,1.1-1.7,2.5-1.9,3.9c0,0.3,0,0.7,0,1c0,1.7,0.7,3.5,2,4.8c1.3,1.3,0.9,0.8,1.5,1.1
		c2.6,1.5,6,1.1,8.2-1.1c0.6-0.6,1.1-1.3,1.4-2.1c0.4-0.9,0.6-1.8,0.6-2.8c0-1.7-0.7-3.5-2-4.9c-1.3-1.4-3.1-2-4.8-2s-3.5,0.7-4.8,2
		"/>
	<path class="st0" d="M241.4,43.8l-14.6,16l-14.6-16H204v45.9h3.4c4.4,0,8-3.6,8-8V64.1l0.2,0.3l0,0l11.2,12.3l11.4-12.5v17.6
		c0,4.4,3.6,8,8,8h3.4v-46L241.4,43.8L241.4,43.8z"/>
	<path class="st0" d="M54.2,55.1c4,0,7.2-3.2,7.2-7.2v-4.1h-32c-4.7,0-8.4,3.8-8.4,8.4v20.2l0,0v17.3h3.4c4.4,0,8-3.6,8-8v-9.3h21.8
		c4,0,7.3-3.2,7.3-7.3V61H32.3v-5.9H54.2z"/>
	
		<linearGradient id="SVGID_00000127766526242871976540000009060367982356590994_" gradientUnits="userSpaceOnUse" x1="326.6" y1="727.5" x2="326.6" y2="700.7" gradientTransform="matrix(1 0 0 1 0 -575)">
		<stop  offset="0" style="stop-color:#FBB90A"/>
		<stop  offset="1" style="stop-color:#F28B20"/>
	</linearGradient>
	<path style="fill:url(#SVGID_00000127766526242871976540000009060367982356590994_);" d="M317.1,129.6c-2.1,2.1-3.4,4.8-3.8,7.6
		c-0.1,0.6-0.1,1.3-0.1,1.9c0,3.4,1.3,6.9,3.9,9.5c0.9,0.9,1.8,1.6,2.9,2.2c5.1,2.9,11.7,2.2,16.1-2.2c1.2-1.2,2.1-2.6,2.8-4.1
		c0.8-1.7,1.1-3.6,1.1-5.4c0-3.4-1.3-6.9-3.9-9.5c-2.6-2.6-6-3.9-9.5-3.9S319.7,127,317.1,129.6"/>
	<path class="st0" d="M319.8,79.8h-14.7c-2.9,0-5.6,1.2-7.5,3.1s-3.1,4.6-3.1,7.5h10.3l-7.6,7.8c-8.4,8.4-8.4,21.9,0,30.3
		c0.7,0.7,1.4,1.3,2.1,1.8c1-3.4,2.8-6.7,5.5-9.4l15.1-15.5v10.3c2.9,0,5.6-1.2,7.5-3.1s3.1-4.6,3.1-7.5V79.8H319.8L319.8,79.8
		L319.8,79.8z"/>
	<path class="st0" d="M321.5,17H303c-3.7,0-7,1.5-9.5,3.9s-3.9,5.8-3.9,9.5h12.9l-33,33c-5.2,5.2-7.9,12.1-7.9,18.9
		s2.6,13.7,7.9,18.9l7.2,7.2c0.5-9.5,4.4-18.9,11.7-26.2l33-33v12.9c3.7,0,7-1.5,9.5-3.9c2.4-2.4,3.9-5.8,3.9-9.5V17H321.5L321.5,17
		z"/>
</g>
</svg>
