<?xml version="1.0" encoding="utf-8"?>
<!-- Generator: Adobe Illustrator 27.9.0, SVG Export Plug-In . SVG Version: 6.00 Build 0)  -->
<svg version="1.1" id="Camada_2_00000036241118419356775920000013857653282777692577_"
	 xmlns="http://www.w3.org/2000/svg" xmlns:xlink="http://www.w3.org/1999/xlink" x="0px" y="0px" viewBox="0 0 321 135.5"
	 style="enable-background:new 0 0 321 135.5;" xml:space="preserve">
<style type="text/css">
	.st0{fill:#FFFFFF;}
	.st1{fill:url(#SVGID_1_);}
	.st2{fill:url(#SVGID_00000165918829517139611030000005666220590088566180_);}
</style>
<g id="Logo_2">
	<polygon class="st0" points="14.9,101.6 0.8,101.6 0.8,81.2 14.6,81.2 14.1,84.7 5.2,84.7 5.2,89.3 13.7,89.3 13.3,92.9 5.2,92.9 
		5.2,98.1 14.6,98.1 	"/>
	<polygon class="st0" points="44.8,101.6 40.2,101.6 40.3,87.8 39.3,87.8 35,101.6 30.9,101.6 26.8,87.8 25.7,87.8 25.8,101.6 
		21.4,101.6 22.1,81.2 28.7,81.2 33.1,95.8 37.5,81.2 44.1,81.2 	"/>
	<path class="st0" d="M60,84.6h-3v7.1h2.3c2.4,0,3.5-1.8,3.5-3.9s-0.8-3.1-2.9-3.1 M59.5,95.1H57v6.5h-4.4V81.2h7.6
		c5.3,0,7.3,1.6,7.3,6.4S64.1,95.2,59.5,95.1"/>
	<path class="st0" d="M81.4,84.6h-3v5.7h2.4c1.9,0,3-1.5,3-3.2S83.2,84.6,81.4,84.6 M90.8,101.6h-5.2l-3.9-8.1h-3.2v8.1h-4.4V81.2h8
		c4.8,0,6.4,1.4,6.4,4.7s-3.8,5.5-3.8,5.5V92c0.9,0,1.7,0.8,2.1,1.5C88.2,96.3,89.5,99,90.8,101.6"/>
	<polygon class="st0" points="110.3,101.6 96.2,101.6 96.2,81.2 110.1,81.2 109.5,84.7 100.7,84.7 100.7,89.3 109.1,89.3 
		108.8,92.9 100.7,92.9 100.7,98.1 110.1,98.1 	"/>
	<path class="st0" d="M122.8,102c-5.2,0-7.5-1.2-7.5-1.2l1.2-3.7c0,0,2.6,1.2,6.3,1.2s2.8-1.2,2.8-2.3c0-3.8-9.9-3-9.9-9.6
		s2.3-5.4,5.8-5.4s7.5,0.3,7.5,0.3l-0.9,3.6c0,0-3.1-0.3-5.6-0.3s-2.3,0.5-2.3,1.7c0,3.4,9.9,2.3,9.9,9.5S127.3,102.1,122.8,102"/>
	<path class="st0" d="M146.9,93.3l-2-7.7h-1.4l-2.3,7.7h5.8H146.9z M153.8,101.6h-4.6l-1.5-5h-7.5l-1.6,5h-4.5l6.8-20.4h6.7
		L153.8,101.6L153.8,101.6L153.8,101.6z"/>
	<path class="st0" d="M166.9,84.6h-3v5.7h2.4c1.9,0,3-1.5,3-3.2s-0.6-2.5-2.5-2.5 M176.3,101.6h-5.2l-3.9-8.1H164v8.1h-4.4V81.2h8
		c4.8,0,6.4,1.4,6.4,4.7s-3.8,5.5-3.8,5.5V92c0.9,0,1.7,0.8,2.1,1.5c1.4,2.8,2.7,5.5,4.1,8.2"/>
	<rect x="181.9" y="81.2" class="st0" width="4.4" height="20.4"/>
	<path class="st0" d="M204.9,93.3l-2-7.7h-1.4l-2.3,7.7h5.8H204.9z M211.8,101.6h-4.6l-1.5-5h-7.5l-1.6,5h-4.5l6.8-20.4h6.7
		L211.8,101.6L211.8,101.6L211.8,101.6z"/>
	<polygon class="st0" points="231.6,101.6 217.6,101.6 217.6,81.2 222,81.2 222,98.1 231.3,98.1 	"/>
	<path class="st0" d="M5.2,114.4c-0.4-0.2-0.8-0.3-1.4-0.3c-1.3,0-2,1-2,2.5c0,1.6,0.7,2.6,2,2.6s1.9-1.1,1.9-2.5v-2.1L5.2,114.4
		L5.2,114.4z M7.6,120.5c0,0.1,0,0.2-0.2,0.2H6.6c-0.1,0-0.2,0-0.2-0.2l-0.2-0.7c0-0.2-0.2-0.2-0.3,0c-0.6,0.7-1.4,1-2.3,1
		c-2.2,0-3.5-1.6-3.5-4.2s1.4-4.2,3.8-4.2s1,0,1.5,0.3l0.5,0.2v-4c0-0.1,0-0.2,0.2-0.2h1.5c0.1,0,0.2,0,0.2,0.2v11.6l0,0L7.6,120.5z
		"/>
	<path class="st0" d="M13.8,115.9c0.6,0,0.9-0.4,0.9-0.8c0-0.7-0.5-1-1.4-1s-1.9,0.7-2,2.2L13.8,115.9
		C13.8,115.9,13.8,115.9,13.8,115.9z M15.1,120.7c-0.6,0.2-1.2,0.2-1.7,0.2c-2.5,0-3.9-1.6-3.9-4.2s1.4-4.2,3.9-4.2s3.2,1,3.2,2.7
		s-0.8,2-2.5,2.3l-2.6,0.4c0.2,0.9,0.9,1.4,1.9,1.4s1,0,1.3-0.2l0.7-0.2c0.1,0,0.2,0,0.2,0.1l0.3,1.3c0,0.1,0,0.2-0.1,0.2l-0.8,0.2
		L15.1,120.7z"/>
	<path class="st0" d="M22.2,109h1.5c0.1,0,0.2,0,0.2,0.2v11.3c0,0,0,0.2-0.2,0.2h-1.5c-0.1,0-0.2,0-0.2-0.2v-11.3
		C22,109.2,22,109,22.2,109z"/>
	<path class="st0" d="M27.7,113.4c0.1,0.2,0.2,0.2,0.4,0c0.6-0.7,1.5-1,2.3-1c1.9,0,3.1,1.2,3.1,3.2v4.9c0,0.1,0,0.2-0.2,0.2h-1.5
		c-0.1,0-0.2,0-0.2-0.2v-4.7c0-1.1-0.5-1.7-1.5-1.7s-2,0.9-2,2.5v3.9c0,0.1,0,0.2-0.2,0.2h-1.5c-0.1,0-0.2,0-0.2-0.2v-7.8
		c0-0.1,0-0.2,0.2-0.2h0.8c0.1,0,0.2,0,0.2,0.2v0.7c0.1,0,0.1,0,0.1,0H27.7z"/>
	<path class="st0" d="M37.1,116.7c0,1.6,0.8,2.6,2,2.6s2-0.9,2-2.6s-0.8-2.5-2-2.5S37.1,115.2,37.1,116.7 M43,116.7
		c0,2.6-1.5,4.2-3.8,4.2s-3.9-1.6-3.9-4.2s1.5-4.2,3.9-4.2S43,114.1,43,116.7"/>
	<path class="st0" d="M50.3,116.8c-0.5,1.3-1,2.7-1.3,3.8c0,0,0,0.2-0.2,0.2H47c-0.1,0-0.2,0-0.2-0.2c-0.3-1.1-0.8-2.5-1.3-3.8
		l-1.7-3.9c0-0.1,0-0.2,0.2-0.2h1.6c0,0,0.2,0,0.2,0.1l1.2,2.8c0.4,1,0.7,2,0.8,2.8c0,0.2,0.2,0.2,0.3,0c0.1-0.8,0.4-1.8,0.8-2.8
		l1.2-2.8c0,0,0.1-0.1,0.2-0.1h1.6c0.1,0,0.2,0,0.2,0.2L50.3,116.8L50.3,116.8z"/>
	<path class="st0" d="M56,117.2c-0.8,0-1.2,0.4-1.2,1s0.5,1.1,1.3,1.1c1.3,0,2-0.7,2-1.9l0,0C58.1,117.3,56,117.3,56,117.2L56,117.2
		z M54.5,112.7c0.6-0.2,1.1-0.2,1.8-0.2c2.3,0,3.7,1.2,3.7,3.2v4.9c0,0.1,0,0.2-0.2,0.2H59c-0.1,0-0.2,0-0.2-0.2v-0.5
		c-0.2-0.2-0.3-0.2-0.5,0c-0.5,0.6-1.3,0.9-2.3,0.9c-1.9,0-2.9-1-2.9-2.5s1.1-2.6,3-2.6h2.1c0-1.1-0.7-1.7-1.9-1.7s-0.9,0-1.3,0.2
		l-0.6,0.2c-0.1,0-0.2,0-0.2-0.1l-0.4-1.2c0-0.1,0-0.2,0.1-0.2l0.6-0.2l0,0L54.5,112.7z"/>
	<path class="st0" d="M67.2,120.7c-0.5,0.1-1,0.2-1.6,0.2l-0.2,0.5h0.1c0.8,0,1.3,0.6,1.3,1.5s-0.6,1.6-1.8,1.6s-0.6,0-0.8-0.1h-0.3
		c0-0.1-0.2-0.2,0-0.3l0.3-0.9c0-0.1,0.1-0.2,0.2-0.1h0.2c0.2,0.1,0.3,0.1,0.5,0.1c0.3,0,0.6-0.2,0.6-0.5s-0.2-0.5-0.6-0.5h-0.6
		c0,0-0.2,0-0.2-0.1c0,0,0-0.1,0-0.2l0.3-1.1c-1.9-0.4-2.9-1.9-2.9-4.2s1.4-4.2,4-4.2s0.9,0,1.4,0.2l0.7,0.2c0.1,0,0.2,0.1,0.1,0.2
		l-0.4,1.3c0,0-0.1,0.2-0.2,0.1l-0.6-0.2c-0.4-0.1-0.8-0.2-1.1-0.2c-1.5,0-2.2,0.9-2.2,2.5s0.7,2.6,2.1,2.6s0.8,0,1.2-0.2l0.6-0.2
		c0.1,0,0.2,0,0.2,0.1l0.4,1.3c0,0.1,0,0.2-0.1,0.2l-0.7,0.2l0,0L67.2,120.7z"/>
	<path class="st0" d="M72.5,117.2c-0.8,0-1.2,0.4-1.2,1s0.4,1.1,1.3,1.1c1.3,0,2-0.7,2-1.9l0,0C74.6,117.3,72.5,117.3,72.5,117.2
		L72.5,117.2L72.5,117.2z M70.9,109.5c0.3-0.6,0.7-0.9,1.3-0.9s0.6,0,0.9,0.3l0.6,0.4c0.1,0,0.2,0.1,0.3,0.1s0.2,0,0.4-0.3l0.2-0.3
		c0,0,0.1-0.1,0.2-0.1h0.8c0.2,0,0.2,0,0.1,0.2l-0.4,0.8c-0.3,0.6-0.7,0.9-1.3,0.9s-0.6-0.1-0.9-0.3l-0.6-0.3
		c-0.1,0-0.2-0.2-0.3-0.2s-0.2,0-0.3,0.3l-0.2,0.3c0,0-0.1,0.1-0.2,0.1h-0.8c-0.1,0-0.2,0-0.1-0.2L70.9,109.5L70.9,109.5L70.9,109.5
		z M70.9,112.7c0.6-0.2,1.1-0.2,1.8-0.2c2.3,0,3.7,1.2,3.7,3.2v4.9c0,0.1,0,0.2-0.2,0.2h-0.8c-0.1,0-0.2,0-0.2-0.2v-0.5
		c-0.2-0.2-0.3-0.2-0.5,0c-0.5,0.6-1.3,0.9-2.3,0.9c-1.9,0-2.9-1-2.9-2.5s1.1-2.6,3.1-2.6h2.1c0-1.1-0.7-1.7-1.9-1.7s-0.9,0-1.3,0.2
		l-0.6,0.2c-0.1,0-0.2,0-0.2-0.1l-0.4-1.2c0-0.1,0-0.2,0.1-0.2l0.6-0.2l0,0L70.9,112.7z"/>
	<path class="st0" d="M80,116.7c0,1.6,0.8,2.6,2,2.6s2-0.9,2-2.6s-0.8-2.5-2-2.5S80,115.2,80,116.7 M85.8,116.7
		c0,2.6-1.5,4.2-3.8,4.2s-3.9-1.6-3.9-4.2s1.5-4.2,3.9-4.2S85.8,114.1,85.8,116.7"/>
	<path class="st0" d="M95.1,115.9c0.6,0,0.9-0.4,0.9-0.8c0-0.7-0.5-1-1.4-1s-1.9,0.7-2,2.2L95.1,115.9
		C95.1,115.9,95.1,115.9,95.1,115.9z M96.4,120.7c-0.6,0.2-1.2,0.2-1.7,0.2c-2.5,0-3.9-1.6-3.9-4.2s1.4-4.2,3.9-4.2s3.2,1,3.2,2.7
		s-0.8,2-2.5,2.3l-2.6,0.4c0.2,0.9,0.8,1.4,1.9,1.4s1,0,1.3-0.2l0.7-0.2c0.1,0,0.2,0,0.2,0.1l0.3,1.3c0,0.1,0,0.2-0.1,0.2
		L96.4,120.7L96.4,120.7L96.4,120.7z"/>
	<path class="st0" d="M105.3,119h2.2c2,0,3.2-1.5,3.2-4.2s-1.2-4.2-3.2-4.2h-2.2V119L105.3,119z M107.5,109c3.2,0,5.1,2.3,5.1,5.9
		s-2,5.8-5.1,5.8h-3.9c-0.1,0-0.2,0-0.2-0.2v-11.3c0-0.1,0-0.2,0.2-0.2C103.6,109,107.5,109,107.5,109z"/>
	<path class="st0" d="M118.5,115.9c0.6,0,0.9-0.4,0.9-0.8c0-0.7-0.5-1-1.4-1s-1.9,0.7-2,2.2L118.5,115.9
		C118.5,115.9,118.5,115.9,118.5,115.9z M119.8,120.7c-0.6,0.2-1.2,0.2-1.7,0.2c-2.5,0-3.9-1.6-3.9-4.2s1.4-4.2,3.9-4.2
		s3.2,1,3.2,2.7s-0.8,2-2.5,2.3l-2.6,0.4c0.2,0.9,0.8,1.4,1.9,1.4s1,0,1.3-0.2l0.7-0.2c0.1,0,0.2,0,0.2,0.1l0.3,1.3
		c0,0.1,0,0.2-0.1,0.2L119.8,120.7L119.8,120.7L119.8,120.7z"/>
	<path class="st0" d="M125,117.1c-1.4-0.3-2-1.1-2-2.3s1.1-2.4,3.1-2.4c2,0,1.5,0.1,2.1,0.3l0.7,0.2c0.1,0,0.2,0.1,0.1,0.2l-0.4,1.2
		c0,0.1-0.1,0.2-0.2,0.1l-0.7-0.2c-0.4-0.1-1.1-0.2-1.6-0.2c-0.8,0-1.2,0.3-1.2,0.7s0.2,0.6,0.8,0.8l1.7,0.4
		c1.5,0.4,2.1,1.1,2.1,2.3s-1.2,2.5-3.2,2.5s-1.7-0.1-2.6-0.3l-0.7-0.2c-0.1,0-0.2-0.1-0.1-0.2l0.4-1.3c0,0,0.1-0.2,0.2-0.1l0.6,0.2
		c0.6,0.2,1.5,0.3,2.1,0.3s1.3-0.3,1.3-0.8s-0.2-0.7-0.8-0.8L125,117.1L125,117.1L125,117.1z"/>
	<path class="st0" d="M135.1,115.9c0.6,0,0.9-0.4,0.9-0.8c0-0.7-0.5-1-1.4-1s-1.9,0.7-2,2.2L135.1,115.9
		C135.1,115.9,135.1,115.9,135.1,115.9z M136.4,120.7c-0.6,0.2-1.2,0.2-1.7,0.2c-2.5,0-3.9-1.6-3.9-4.2s1.4-4.2,3.9-4.2
		s3.2,1,3.2,2.7s-0.8,2-2.5,2.3l-2.6,0.4c0.2,0.9,0.9,1.4,1.9,1.4s1,0,1.3-0.2l0.7-0.2c0.1,0,0.2,0,0.2,0.1l0.3,1.3
		c0,0.1,0,0.2-0.1,0.2l-0.8,0.2l0,0L136.4,120.7z"/>
	<path class="st0" d="M141,113.4c0.1,0.2,0.2,0.2,0.4,0c0.6-0.7,1.5-1,2.3-1c1.9,0,3.1,1.2,3.1,3.2v4.9c0,0.1,0,0.2-0.2,0.2h-1.5
		c-0.1,0-0.2,0-0.2-0.2v-4.7c0-1.1-0.6-1.7-1.5-1.7s-2,0.9-2,2.5v3.9c0,0.1,0,0.2-0.2,0.2h-1.5c-0.1,0-0.2,0-0.2-0.2v-7.8
		c0-0.1,0-0.2,0.2-0.2h0.8c0.1,0,0.2,0,0.2,0.2v0.7C140.8,113.4,140.9,113.4,141,113.4L141,113.4z"/>
	<path class="st0" d="M154.5,116.8c-0.5,1.3-1,2.7-1.3,3.8c0,0-0.1,0.2-0.2,0.2h-1.8c-0.1,0-0.2,0-0.2-0.2c-0.3-1.1-0.8-2.5-1.3-3.8
		l-1.7-3.9c0-0.1,0-0.2,0.1-0.2h1.6c0.1,0,0.2,0,0.2,0.1l1.2,2.8c0.4,1,0.7,2,0.8,2.8c0,0.2,0.2,0.2,0.3,0c0.1-0.8,0.4-1.8,0.8-2.8
		l1.2-2.8c0,0,0.1-0.1,0.2-0.1h1.6c0.1,0,0.2,0,0.1,0.2L154.5,116.8L154.5,116.8z"/>
	<path class="st0" d="M159.1,116.7c0,1.6,0.8,2.6,2,2.6s2-0.9,2-2.6s-0.8-2.5-2-2.5S159.1,115.2,159.1,116.7 M165,116.7
		c0,2.6-1.5,4.2-3.9,4.2s-3.9-1.6-3.9-4.2s1.5-4.2,3.9-4.2S165,114.1,165,116.7"/>
	<path class="st0" d="M168.7,118.8c0,0.3,0.1,0.4,0.3,0.4h0.1c0.1,0,0.2,0,0.2,0l0.5,1.2c0,0.1,0,0.2,0,0.2c-0.2,0-0.5,0.2-0.8,0.2
		c-1.4,0-2.2-0.8-2.2-2.1v-9.9c0-0.1,0-0.2,0.2-0.2h1.5c0.1,0,0.2,0,0.2,0.2v9.9l0,0V118.8z"/>
	<path class="st0" d="M176.9,116.8c-0.5,1.3-1,2.7-1.3,3.8c0,0-0.1,0.2-0.2,0.2h-1.8c-0.1,0-0.2,0-0.2-0.2c-0.3-1.1-0.8-2.5-1.3-3.8
		l-1.7-3.9c0-0.1,0-0.2,0.1-0.2h1.6c0.1,0,0.2,0,0.2,0.1l1.2,2.8c0.4,1,0.7,2,0.8,2.8c0,0.2,0.2,0.2,0.3,0c0.1-0.8,0.4-1.8,0.8-2.8
		l1.2-2.8c0,0,0.1-0.1,0.2-0.1h1.6c0.1,0,0.2,0,0.1,0.2L176.9,116.8L176.9,116.8z"/>
	<path class="st0" d="M182.7,109.7c0,0.7-0.4,1.1-1.1,1.1s-1.1-0.4-1.1-1.1s0.4-1.1,1.1-1.1S182.7,109,182.7,109.7 M182.7,120.5
		c0,0.1,0,0.2-0.2,0.2H181c-0.1,0-0.2,0-0.2-0.2v-6.3H180c-0.1,0-0.2,0-0.2-0.2v-1.3c0-0.1,0-0.2,0.2-0.2h2.5c0.1,0,0.2,0,0.2,0.2
		V120.5z"/>
	<path class="st0" d="M186.3,113.4c0.1,0.2,0.2,0.2,0.4,0c0.6-0.7,1.4-1,2.2-1s1.7,0.5,2.2,1.1c0.2,0.2,0.4,0.2,0.6,0
		c0.7-0.9,1.5-1.1,2.3-1.1c1.9,0,2.9,1.2,2.9,3.2v4.9c0,0.1,0,0.2-0.2,0.2h-1.5c-0.1,0-0.2,0-0.2-0.2v-4.7c0-1.1-0.4-1.7-1.3-1.7
		c-1.3,0-1.8,1-1.8,2.5v3.9c0,0.1,0,0.2-0.2,0.2h-1.5c-0.1,0-0.2,0-0.2-0.2v-4.8c0-1-0.5-1.7-1.3-1.7c-1.3,0-1.8,1-1.8,2.5v3.9
		c0,0.1,0,0.2-0.2,0.2h-1.5c-0.1,0-0.2,0-0.2-0.2v-7.8c0-0.1,0-0.2,0.2-0.2h0.8c0.1,0,0.2,0,0.2,0.2v0.7
		C186.3,113.3,186.3,113.3,186.3,113.4L186.3,113.4z"/>
	<path class="st0" d="M203,115.9c0.6,0,0.9-0.4,0.9-0.8c0-0.7-0.5-1-1.4-1s-1.9,0.7-2,2.2L203,115.9C203,115.9,203,115.9,203,115.9z
		 M204.3,120.7c-0.6,0.2-1.2,0.2-1.7,0.2c-2.5,0-3.9-1.6-3.9-4.2s1.4-4.2,3.9-4.2s3.2,1,3.2,2.7s-0.8,2-2.5,2.3l-2.6,0.4
		c0.2,0.9,0.9,1.4,1.9,1.4s1,0,1.3-0.2l0.7-0.2c0.1,0,0.2,0,0.2,0.1l0.3,1.3c0,0.1,0,0.2-0.1,0.2l-0.8,0.2l0,0L204.3,120.7z"/>
	<path class="st0" d="M209,113.4c0.1,0.2,0.2,0.2,0.4,0c0.6-0.7,1.5-1,2.3-1c1.9,0,3.1,1.2,3.1,3.2v4.9c0,0.1,0,0.2-0.2,0.2h-1.5
		c-0.1,0-0.2,0-0.2-0.2v-4.7c0-1.1-0.6-1.7-1.5-1.7s-2,0.9-2,2.5v3.9c0,0.1,0,0.2-0.2,0.2h-1.5c-0.1,0-0.2,0-0.2-0.2v-7.8
		c0-0.1,0-0.2,0.2-0.2h0.8c0.1,0,0.2,0,0.2,0.2v0.7C208.8,113.4,208.9,113.4,209,113.4L209,113.4z"/>
	<path class="st0" d="M221.1,112.6c0.1,0,0.2,0,0.2,0.2v1.3c0,0.1,0,0.2-0.2,0.2h-1.9v4.1c0,0.6,0.2,0.9,0.6,0.9s0.3,0,0.4,0
		c0.1,0,0.2,0,0.2,0l0.5,1.1v0.2c-0.3,0.2-0.7,0.3-1.1,0.3c-1.6,0-2.5-1-2.5-2.6v-4.1h-0.8c-0.1,0-0.2,0-0.2-0.2v-1.3
		c0-0.1,0-0.2,0.2-0.2h0.8v-1.9c0,0,0-0.2,0.1-0.2l1.5-0.5c0.1,0,0.2,0,0.2,0.2v2.5h1.9l0,0H221.1z"/>
	<path class="st0" d="M224.4,116.7c0,1.6,0.8,2.6,2,2.6s2-0.9,2-2.6s-0.8-2.5-2-2.5S224.4,115.2,224.4,116.7 M230.3,116.7
		c0,2.6-1.5,4.2-3.9,4.2s-3.9-1.6-3.9-4.2s1.5-4.2,3.9-4.2S230.3,114.1,230.3,116.7"/>
	<path class="st0" d="M45.9,49.7c0-8.1,4.2-15.2,10.5-19.3l6.1,9.5c-3.2,2.1-5.3,5.7-5.3,9.8c0,6.4,5.2,11.6,11.6,11.6
		s11.6-5.2,11.6-11.6s-2.1-7.7-5.3-9.8l6.1-9.5c6.3,4.1,10.5,11.2,10.5,19.3c0,12.7-10.3,22.9-22.9,22.9S45.9,62.3,45.9,49.7"/>
	<path class="st0" d="M180.6,26.8v24.8c0,11.4-9,20.9-20.4,21.1c-11.6,0.2-21.2-9.2-21.2-20.8V26.7h11.3v25c0,5.1,4,9.5,9.1,9.7
		c5.4,0.2,9.8-4.1,9.8-9.4V33.6c0-3.7,3-6.7,6.7-6.7L180.6,26.8L180.6,26.8z"/>
	<path class="st0" d="M131,54.2c2.6-3,4.2-6.9,4.1-11.2c-0.2-9.1-7.8-16.3-16.9-16.3H94.6V38h23.7c2.7,0,5.1,2,5.4,4.7
		c0.3,3.1-2.2,5.7-5.2,5.7h-16.2c-4.3,0-7.7,3.5-7.7,7.7v16.3h11.3V59.7h12.6c2.9,0,5.2,2.3,5.2,5.2v7.5H135v-7.5c0-2-0.4-3.9-1-5.7
		c-0.7-1.9-1.8-3.7-3.1-5.2"/>
	
		<linearGradient id="SVGID_1_" gradientUnits="userSpaceOnUse" x1="68.95" y1="465.7056" x2="68.95" y2="479.4056" gradientTransform="matrix(1 0 0 -1 0 505)">
		<stop  offset="0" style="stop-color:#FBB90A"/>
		<stop  offset="1" style="stop-color:#F28B20"/>
	</linearGradient>
	<path class="st1" d="M64,27.6c-1.1,1.1-1.7,2.5-1.9,3.9c0,0.3,0,0.7,0,1c0,1.7,0.7,3.5,2,4.8c1.3,1.3,0.9,0.8,1.5,1.1
		c2.6,1.5,6,1.1,8.2-1.1c0.6-0.6,1.1-1.3,1.4-2.1c0.4-0.9,0.6-1.8,0.6-2.8c0-1.7-0.7-3.5-2-4.9s-3.1-2-4.8-2s-3.5,0.7-4.8,2"/>
	<path class="st0" d="M222.5,26.8l-14.6,16l-14.6-16h-8.2v45.9h3.4c4.4,0,8-3.6,8-8V47.1l0.2,0.3l0,0l11.2,12.3l11.4-12.5v17.6
		c0,4.4,3.6,8,8,8h3.4v-46H222.5L222.5,26.8z"/>
	<path class="st0" d="M35.3,38.1c4,0,7.2-3.2,7.2-7.2v-4.1h-32c-4.7,0-8.4,3.8-8.4,8.4v20.2l0,0v17.3h3.4c4.4,0,8-3.6,8-8v-9.3h21.8
		c4,0,7.3-3.2,7.3-7.3V44H13.4v-5.9H35.3z"/>
	
		<linearGradient id="SVGID_00000060000557104288848490000006488930583600617659_" gradientUnits="userSpaceOnUse" x1="307.7" y1="369.5" x2="307.7" y2="396.3" gradientTransform="matrix(1 0 0 -1 0 505)">
		<stop  offset="0" style="stop-color:#FBB90A"/>
		<stop  offset="1" style="stop-color:#F28B20"/>
	</linearGradient>
	<path style="fill:url(#SVGID_00000060000557104288848490000006488930583600617659_);" d="M298.2,112.6c-2.1,2.1-3.4,4.8-3.8,7.6
		c-0.1,0.6-0.1,1.3-0.1,1.9c0,3.4,1.3,6.9,3.9,9.5c0.9,0.9,1.8,1.6,2.9,2.2c5.1,2.9,11.7,2.2,16.1-2.2c1.2-1.2,2.1-2.6,2.8-4.1
		c0.8-1.7,1.1-3.6,1.1-5.4c0-3.4-1.3-6.9-3.9-9.5s-6-3.9-9.5-3.9S300.8,110,298.2,112.6"/>
	<path class="st0" d="M300.9,62.8h-14.7c-2.9,0-5.6,1.2-7.5,3.1s-3.1,4.6-3.1,7.5h10.3l-7.6,7.8c-8.4,8.4-8.4,21.9,0,30.3
		c0.7,0.7,1.4,1.3,2.1,1.8c1-3.4,2.8-6.7,5.5-9.4L301,88.4v10.3c2.9,0,5.6-1.2,7.5-3.1s3.1-4.6,3.1-7.5V62.8L300.9,62.8L300.9,62.8
		L300.9,62.8z"/>
	<path class="st0" d="M302.6,0h-18.5c-3.7,0-7,1.5-9.5,3.9s-3.9,5.8-3.9,9.5h12.9l-33,33c-5.2,5.2-7.9,12.1-7.9,18.9
		s2.6,13.7,7.9,18.9l7.2,7.2c0.5-9.5,4.4-18.9,11.7-26.2l33-33v12.9c3.7,0,7-1.5,9.5-3.9c2.4-2.4,3.9-5.8,3.9-9.5V0H302.6L302.6,0z"
		/>
</g>
</svg>
