<?xml version="1.0" encoding="utf-8"?>
<!-- Generator: Adobe Illustrator 27.9.0, SVG Export Plug-In . SVG Version: 6.00 Build 0)  -->
<svg version="1.1" id="Camada_2_00000008868406126918602210000007963131781034920635_"
	 xmlns="http://www.w3.org/2000/svg" xmlns:xlink="http://www.w3.org/1999/xlink" x="0px" y="0px" viewBox="0 0 352.8 165.5"
	 style="enable-background:new 0 0 352.8 165.5;" xml:space="preserve">
<style type="text/css">
	.st0{fill:#00629A;}
	.st1{fill:#00923F;}
	.st2{fill:url(#SVGID_1_);}
	.st3{fill:url(#SVGID_00000119119202021001092880000011487052907259135414_);}
	.st4{fill:url(#SVGID_00000168099739220321769440000015027495639035628709_);}
	.st5{fill:url(#SVGID_00000162318546435984088330000015546175437454114434_);}
</style>
<g id="Logo_2">
	<polygon class="st0" points="30.8,116.6 16.7,116.6 16.7,96.2 30.5,96.2 30,99.7 21.1,99.7 21.1,104.3 29.6,104.3 29.2,107.9 
		21.1,107.9 21.1,113.1 30.5,113.1 	"/>
	<polygon class="st0" points="60.7,116.6 56.1,116.6 56.2,102.8 55.2,102.8 50.9,116.6 46.8,116.6 42.7,102.8 41.6,102.8 
		41.7,116.6 37.3,116.6 38,96.2 44.6,96.2 49,110.8 53.4,96.2 60,96.2 	"/>
	<path class="st0" d="M75.9,99.6h-3v7.1h2.3c2.4,0,3.5-1.8,3.5-3.9s-0.8-3.1-2.9-3.1 M75.4,110.1h-2.5v6.5h-4.4V96.2h7.6
		c5.3,0,7.3,1.6,7.3,6.4S80,110.2,75.4,110.1"/>
	<path class="st0" d="M97.3,99.6h-3v5.7h2.4c1.9,0,3-1.5,3-3.2S99.1,99.6,97.3,99.6 M106.7,116.6h-5.2l-3.9-8.1h-3.2v8.1H90V96.2h8
		c4.8,0,6.4,1.4,6.4,4.7s-3.8,5.5-3.8,5.5v0.6c0.9,0,1.7,0.8,2.1,1.5C104.1,111.3,105.4,114,106.7,116.6"/>
	<polygon class="st0" points="126.2,116.6 112.1,116.6 112.1,96.2 126,96.2 125.4,99.7 116.6,99.7 116.6,104.3 125,104.3 
		124.7,107.9 116.6,107.9 116.6,113.1 126,113.1 	"/>
	<path class="st0" d="M138.7,117c-5.2,0-7.5-1.2-7.5-1.2l1.2-3.7c0,0,2.6,1.2,6.3,1.2s2.8-1.2,2.8-2.3c0-3.8-9.9-3-9.9-9.6
		s2.3-5.4,5.8-5.4s7.5,0.3,7.5,0.3l-0.9,3.6c0,0-3.1-0.3-5.6-0.3s-2.3,0.5-2.3,1.7c0,3.4,9.9,2.3,9.9,9.5S143.2,117.1,138.7,117"/>
	<path class="st0" d="M162.8,108.3l-2-7.7h-1.4l-2.3,7.7h5.8H162.8z M169.7,116.6h-4.6l-1.5-5h-7.5l-1.6,5H150l6.8-20.4h6.7
		L169.7,116.6L169.7,116.6L169.7,116.6z"/>
	<path class="st0" d="M182.8,99.6h-3v5.7h2.4c1.9,0,3-1.5,3-3.2s-0.6-2.5-2.5-2.5 M192.2,116.6H187l-3.9-8.1h-3.2v8.1h-4.4V96.2h8
		c4.8,0,6.4,1.4,6.4,4.7s-3.8,5.5-3.8,5.5v0.6c0.9,0,1.7,0.8,2.1,1.5c1.4,2.8,2.7,5.5,4.1,8.2"/>
	<rect x="197.8" y="96.2" class="st0" width="4.4" height="20.4"/>
	<path class="st0" d="M220.8,108.3l-2-7.7h-1.4l-2.3,7.7h5.8H220.8z M227.7,116.6h-4.6l-1.5-5h-7.5l-1.6,5H208l6.8-20.4h6.7
		L227.7,116.6L227.7,116.6L227.7,116.6z"/>
	<polygon class="st0" points="247.5,116.6 233.5,116.6 233.5,96.2 237.9,96.2 237.9,113.1 247.2,113.1 	"/>
	<path class="st1" d="M21.1,129.4c-0.4-0.2-0.8-0.3-1.4-0.3c-1.3,0-2,1-2,2.5c0,1.6,0.7,2.6,2,2.6s1.9-1.1,1.9-2.5v-2.1L21.1,129.4
		L21.1,129.4z M23.5,135.5c0,0.1,0,0.2-0.2,0.2h-0.8c-0.1,0-0.2,0-0.2-0.2l-0.2-0.7c0-0.2-0.2-0.2-0.3,0c-0.6,0.7-1.4,1-2.3,1
		c-2.2,0-3.5-1.6-3.5-4.2s1.4-4.2,3.8-4.2s1,0,1.5,0.3l0.5,0.2v-4c0-0.1,0-0.2,0.2-0.2h1.5c0.1,0,0.2,0,0.2,0.2v11.6l0,0H23.5z"/>
	<path class="st1" d="M29.7,130.9c0.6,0,0.9-0.4,0.9-0.8c0-0.7-0.5-1-1.4-1c-0.9,0-1.9,0.7-2,2.2L29.7,130.9
		C29.7,130.9,29.7,130.9,29.7,130.9z M31,135.7c-0.6,0.2-1.2,0.2-1.7,0.2c-2.5,0-3.9-1.6-3.9-4.2s1.4-4.2,3.9-4.2s3.2,1,3.2,2.7
		s-0.8,2-2.5,2.3l-2.6,0.4c0.2,0.9,0.9,1.4,1.9,1.4s1,0,1.3-0.2l0.7-0.2c0.1,0,0.2,0,0.2,0.1l0.3,1.3c0,0.1,0,0.2-0.1,0.2l-0.8,0.2
		L31,135.7z"/>
	<path class="st1" d="M38.1,124h1.5c0.1,0,0.2,0,0.2,0.2v11.3c0,0,0,0.2-0.2,0.2h-1.5c-0.1,0-0.2,0-0.2-0.2v-11.3
		C37.9,124.2,37.9,124,38.1,124z"/>
	<path class="st1" d="M43.6,128.4c0.1,0.2,0.2,0.2,0.4,0c0.6-0.7,1.5-1,2.3-1c1.9,0,3.1,1.2,3.1,3.2v4.9c0,0.1,0,0.2-0.2,0.2h-1.5
		c-0.1,0-0.2,0-0.2-0.2v-4.7c0-1.1-0.5-1.7-1.5-1.7s-2,0.9-2,2.5v3.9c0,0.1,0,0.2-0.2,0.2h-1.5c-0.1,0-0.2,0-0.2-0.2v-7.8
		c0-0.1,0-0.2,0.2-0.2h0.8c0.1,0,0.2,0,0.2,0.2v0.7c0.1,0,0.1,0,0.1,0H43.6z"/>
	<path class="st1" d="M53,131.7c0,1.6,0.8,2.6,2,2.6s2-0.9,2-2.6s-0.8-2.5-2-2.5S53,130.2,53,131.7 M58.9,131.7
		c0,2.6-1.5,4.2-3.8,4.2s-3.9-1.6-3.9-4.2s1.5-4.2,3.9-4.2S58.9,129.1,58.9,131.7"/>
	<path class="st1" d="M66.2,131.8c-0.5,1.3-1,2.7-1.3,3.8c0,0,0,0.2-0.2,0.2h-1.8c-0.1,0-0.2,0-0.2-0.2c-0.3-1.1-0.8-2.5-1.3-3.8
		l-1.7-3.9c0-0.1,0-0.2,0.2-0.2h1.6c0,0,0.2,0,0.2,0.1l1.2,2.8c0.4,1,0.7,2,0.8,2.8c0,0.2,0.2,0.2,0.3,0c0.1-0.8,0.4-1.8,0.8-2.8
		l1.2-2.8c0,0,0.1-0.1,0.2-0.1h1.6c0.1,0,0.2,0,0.2,0.2L66.2,131.8L66.2,131.8z"/>
	<path class="st1" d="M71.9,132.2c-0.8,0-1.2,0.4-1.2,1s0.5,1.1,1.3,1.1c1.3,0,2-0.7,2-1.9l0,0C74,132.3,71.9,132.3,71.9,132.2
		L71.9,132.2z M70.4,127.7c0.6-0.2,1.1-0.2,1.8-0.2c2.3,0,3.7,1.2,3.7,3.2v4.9c0,0.1,0,0.2-0.2,0.2h-0.8c-0.1,0-0.2,0-0.2-0.2v-0.5
		c-0.2-0.2-0.3-0.2-0.5,0c-0.5,0.6-1.3,0.9-2.3,0.9c-1.9,0-2.9-1-2.9-2.5s1.1-2.6,3-2.6h2.1c0-1.1-0.7-1.7-1.9-1.7s-0.9,0-1.3,0.2
		l-0.6,0.2c-0.1,0-0.2,0-0.2-0.1l-0.4-1.2c0-0.1,0-0.2,0.1-0.2l0.6-0.2l0,0L70.4,127.7z"/>
	<path class="st1" d="M83.1,135.7c-0.5,0.1-1,0.2-1.6,0.2l-0.2,0.5h0.1c0.8,0,1.3,0.6,1.3,1.5s-0.6,1.6-1.8,1.6s-0.6,0-0.8-0.1h-0.3
		c0-0.1-0.2-0.2,0-0.3l0.3-0.9c0-0.1,0.1-0.2,0.2-0.1h0.2c0.2,0.1,0.3,0.1,0.5,0.1c0.3,0,0.6-0.2,0.6-0.5c0-0.3-0.2-0.5-0.6-0.5
		h-0.6c0,0-0.2,0-0.2-0.1c0,0,0-0.1,0-0.2l0.3-1.1c-1.9-0.4-2.9-1.9-2.9-4.2c0-2.3,1.4-4.2,4-4.2s0.9,0,1.4,0.2l0.7,0.2
		c0.1,0,0.2,0.1,0.1,0.2l-0.4,1.3c0,0-0.1,0.2-0.2,0.1l-0.6-0.2c-0.4-0.1-0.8-0.2-1.1-0.2c-1.5,0-2.2,0.9-2.2,2.5s0.7,2.6,2.1,2.6
		s0.8,0,1.2-0.2l0.6-0.2c0.1,0,0.2,0,0.2,0.1l0.4,1.3c0,0.1,0,0.2-0.1,0.2l-0.7,0.2l0,0L83.1,135.7z"/>
	<path class="st1" d="M88.4,132.2c-0.8,0-1.2,0.4-1.2,1s0.4,1.1,1.3,1.1c1.3,0,2-0.7,2-1.9l0,0C90.5,132.3,88.4,132.3,88.4,132.2
		L88.4,132.2L88.4,132.2z M86.8,124.5c0.3-0.6,0.7-0.9,1.3-0.9s0.6,0,0.9,0.3l0.6,0.4c0.1,0,0.2,0.1,0.3,0.1s0.2,0,0.4-0.3l0.2-0.3
		c0,0,0.1-0.1,0.2-0.1h0.8c0.2,0,0.2,0,0.1,0.2l-0.4,0.8c-0.3,0.6-0.7,0.9-1.3,0.9s-0.6-0.1-0.9-0.3l-0.6-0.3
		c-0.1,0-0.2-0.2-0.3-0.2s-0.2,0-0.3,0.3l-0.2,0.3c0,0-0.1,0.1-0.2,0.1h-0.8c-0.1,0-0.2,0-0.1-0.2L86.8,124.5L86.8,124.5L86.8,124.5
		z M86.8,127.7c0.6-0.2,1.1-0.2,1.8-0.2c2.3,0,3.7,1.2,3.7,3.2v4.9c0,0.1,0,0.2-0.2,0.2h-0.8c-0.1,0-0.2,0-0.2-0.2v-0.5
		c-0.2-0.2-0.3-0.2-0.5,0c-0.5,0.6-1.3,0.9-2.3,0.9c-1.9,0-2.9-1-2.9-2.5s1.1-2.6,3.1-2.6h2.1c0-1.1-0.7-1.7-1.9-1.7s-0.9,0-1.3,0.2
		l-0.6,0.2c-0.1,0-0.2,0-0.2-0.1l-0.4-1.2c0-0.1,0-0.2,0.1-0.2l0.6-0.2l0,0L86.8,127.7z"/>
	<path class="st1" d="M95.9,131.7c0,1.6,0.8,2.6,2,2.6s2-0.9,2-2.6s-0.8-2.5-2-2.5S95.9,130.2,95.9,131.7 M101.7,131.7
		c0,2.6-1.5,4.2-3.8,4.2s-3.9-1.6-3.9-4.2s1.5-4.2,3.9-4.2S101.7,129.1,101.7,131.7"/>
	<path class="st1" d="M111,130.9c0.6,0,0.9-0.4,0.9-0.8c0-0.7-0.5-1-1.4-1s-1.9,0.7-2,2.2L111,130.9C111,130.9,111,130.9,111,130.9z
		 M112.3,135.7c-0.6,0.2-1.2,0.2-1.7,0.2c-2.5,0-3.9-1.6-3.9-4.2s1.4-4.2,3.9-4.2s3.2,1,3.2,2.7s-0.8,2-2.5,2.3l-2.6,0.4
		c0.2,0.9,0.8,1.4,1.9,1.4s1,0,1.3-0.2l0.7-0.2c0.1,0,0.2,0,0.2,0.1l0.3,1.3c0,0.1,0,0.2-0.1,0.2L112.3,135.7L112.3,135.7
		L112.3,135.7z"/>
	<path class="st1" d="M121.2,134h2.2c2,0,3.2-1.5,3.2-4.2s-1.2-4.2-3.2-4.2h-2.2V134L121.2,134z M123.4,124c3.2,0,5.1,2.3,5.1,5.9
		c0,3.6-2,5.8-5.1,5.8h-3.9c-0.1,0-0.2,0-0.2-0.2v-11.3c0-0.1,0-0.2,0.2-0.2C119.5,124,123.4,124,123.4,124z"/>
	<path class="st1" d="M134.4,130.9c0.6,0,0.9-0.4,0.9-0.8c0-0.7-0.5-1-1.4-1s-1.9,0.7-2,2.2L134.4,130.9
		C134.4,130.9,134.4,130.9,134.4,130.9z M135.7,135.7c-0.6,0.2-1.2,0.2-1.7,0.2c-2.5,0-3.9-1.6-3.9-4.2s1.4-4.2,3.9-4.2
		s3.2,1,3.2,2.7s-0.8,2-2.5,2.3l-2.6,0.4c0.2,0.9,0.8,1.4,1.9,1.4s1,0,1.3-0.2l0.7-0.2c0.1,0,0.2,0,0.2,0.1l0.3,1.3
		c0,0.1,0,0.2-0.1,0.2L135.7,135.7L135.7,135.7L135.7,135.7z"/>
	<path class="st1" d="M140.9,132.1c-1.4-0.3-2-1.1-2-2.3c0-1.2,1.1-2.4,3.1-2.4s1.5,0.1,2.1,0.3l0.7,0.2c0.1,0,0.2,0.1,0.1,0.2
		l-0.4,1.2c0,0.1-0.1,0.2-0.2,0.1l-0.7-0.2c-0.4-0.1-1.1-0.2-1.6-0.2c-0.8,0-1.2,0.3-1.2,0.7s0.2,0.6,0.8,0.8l1.7,0.4
		c1.5,0.4,2.1,1.1,2.1,2.3s-1.2,2.5-3.2,2.5s-1.7-0.1-2.6-0.3l-0.7-0.2c-0.1,0-0.2-0.1-0.1-0.2l0.4-1.3c0,0,0.1-0.2,0.2-0.1l0.6,0.2
		c0.6,0.2,1.5,0.3,2.1,0.3c0.6,0,1.3-0.3,1.3-0.8s-0.2-0.7-0.8-0.8L140.9,132.1L140.9,132.1L140.9,132.1z"/>
	<path class="st1" d="M151,130.9c0.6,0,0.9-0.4,0.9-0.8c0-0.7-0.5-1-1.4-1s-1.9,0.7-2,2.2L151,130.9C151,130.9,151,130.9,151,130.9z
		 M152.3,135.7c-0.6,0.2-1.2,0.2-1.7,0.2c-2.5,0-3.9-1.6-3.9-4.2s1.4-4.2,3.9-4.2s3.2,1,3.2,2.7s-0.8,2-2.5,2.3l-2.6,0.4
		c0.2,0.9,0.9,1.4,1.9,1.4s1,0,1.3-0.2l0.7-0.2c0.1,0,0.2,0,0.2,0.1l0.3,1.3c0,0.1,0,0.2-0.1,0.2l-0.8,0.2l0,0L152.3,135.7z"/>
	<path class="st1" d="M156.9,128.4c0.1,0.2,0.2,0.2,0.4,0c0.6-0.7,1.5-1,2.3-1c1.9,0,3.1,1.2,3.1,3.2v4.9c0,0.1,0,0.2-0.2,0.2H161
		c-0.1,0-0.2,0-0.2-0.2v-4.7c0-1.1-0.6-1.7-1.5-1.7s-2,0.9-2,2.5v3.9c0,0.1,0,0.2-0.2,0.2h-1.5c-0.1,0-0.2,0-0.2-0.2v-7.8
		c0-0.1,0-0.2,0.2-0.2h0.8c0.1,0,0.2,0,0.2,0.2v0.7C156.7,128.4,156.8,128.4,156.9,128.4L156.9,128.4z"/>
	<path class="st1" d="M170.4,131.8c-0.5,1.3-1,2.7-1.3,3.8c0,0-0.1,0.2-0.2,0.2h-1.8c-0.1,0-0.2,0-0.2-0.2c-0.3-1.1-0.8-2.5-1.3-3.8
		l-1.7-3.9c0-0.1,0-0.2,0.1-0.2h1.6c0.1,0,0.2,0,0.2,0.1l1.2,2.8c0.4,1,0.7,2,0.8,2.8c0,0.2,0.2,0.2,0.3,0c0.1-0.8,0.4-1.8,0.8-2.8
		l1.2-2.8c0,0,0.1-0.1,0.2-0.1h1.6c0.1,0,0.2,0,0.1,0.2L170.4,131.8L170.4,131.8z"/>
	<path class="st1" d="M175,131.7c0,1.6,0.8,2.6,2,2.6s2-0.9,2-2.6s-0.8-2.5-2-2.5S175,130.2,175,131.7 M180.9,131.7
		c0,2.6-1.5,4.2-3.9,4.2s-3.9-1.6-3.9-4.2s1.5-4.2,3.9-4.2S180.9,129.1,180.9,131.7"/>
	<path class="st1" d="M184.6,133.8c0,0.3,0.1,0.4,0.3,0.4h0.1c0.1,0,0.2,0,0.2,0l0.5,1.2c0,0.1,0,0.2,0,0.2c-0.2,0-0.5,0.2-0.8,0.2
		c-1.4,0-2.2-0.8-2.2-2.1v-9.9c0-0.1,0-0.2,0.2-0.2h1.5c0.1,0,0.2,0,0.2,0.2v9.9l0,0V133.8z"/>
	<path class="st1" d="M192.8,131.8c-0.5,1.3-1,2.7-1.3,3.8c0,0-0.1,0.2-0.2,0.2h-1.8c-0.1,0-0.2,0-0.2-0.2c-0.3-1.1-0.8-2.5-1.3-3.8
		l-1.7-3.9c0-0.1,0-0.2,0.1-0.2h1.6c0.1,0,0.2,0,0.2,0.1l1.2,2.8c0.4,1,0.7,2,0.8,2.8c0,0.2,0.2,0.2,0.3,0c0.1-0.8,0.4-1.8,0.8-2.8
		l1.2-2.8c0,0,0.1-0.1,0.2-0.1h1.6c0.1,0,0.2,0,0.1,0.2L192.8,131.8L192.8,131.8z"/>
	<path class="st1" d="M198.6,124.7c0,0.7-0.4,1.1-1.1,1.1s-1.1-0.4-1.1-1.1s0.4-1.1,1.1-1.1S198.6,124,198.6,124.7 M198.6,135.5
		c0,0.1,0,0.2-0.2,0.2h-1.5c-0.1,0-0.2,0-0.2-0.2v-6.3h-0.8c-0.1,0-0.2,0-0.2-0.2v-1.3c0-0.1,0-0.2,0.2-0.2h2.5c0.1,0,0.2,0,0.2,0.2
		V135.5z"/>
	<path class="st1" d="M202.2,128.4c0.1,0.2,0.2,0.2,0.4,0c0.6-0.7,1.4-1,2.2-1s1.7,0.5,2.2,1.1c0.2,0.2,0.4,0.2,0.6,0
		c0.7-0.9,1.5-1.1,2.3-1.1c1.9,0,2.9,1.2,2.9,3.2v4.9c0,0.1,0,0.2-0.2,0.2h-1.5c-0.1,0-0.2,0-0.2-0.2v-4.7c0-1.1-0.4-1.7-1.3-1.7
		c-1.3,0-1.8,1-1.8,2.5v3.9c0,0.1,0,0.2-0.2,0.2h-1.5c-0.1,0-0.2,0-0.2-0.2v-4.8c0-1-0.5-1.7-1.3-1.7c-1.3,0-1.8,1-1.8,2.5v3.9
		c0,0.1,0,0.2-0.2,0.2h-1.5c-0.1,0-0.2,0-0.2-0.2v-7.8c0-0.1,0-0.2,0.2-0.2h0.8c0.1,0,0.2,0,0.2,0.2v0.7
		C202.2,128.3,202.2,128.3,202.2,128.4L202.2,128.4z"/>
	<path class="st1" d="M218.9,130.9c0.6,0,0.9-0.4,0.9-0.8c0-0.7-0.5-1-1.4-1s-1.9,0.7-2,2.2L218.9,130.9
		C218.9,130.9,218.9,130.9,218.9,130.9z M220.2,135.7c-0.6,0.2-1.2,0.2-1.7,0.2c-2.5,0-3.9-1.6-3.9-4.2s1.4-4.2,3.9-4.2
		s3.2,1,3.2,2.7s-0.8,2-2.5,2.3l-2.6,0.4c0.2,0.9,0.9,1.4,1.9,1.4s1,0,1.3-0.2l0.7-0.2c0.1,0,0.2,0,0.2,0.1l0.3,1.3
		c0,0.1,0,0.2-0.1,0.2l-0.8,0.2l0,0L220.2,135.7z"/>
	<path class="st1" d="M224.9,128.4c0.1,0.2,0.2,0.2,0.4,0c0.6-0.7,1.5-1,2.3-1c1.9,0,3.1,1.2,3.1,3.2v4.9c0,0.1,0,0.2-0.2,0.2H229
		c-0.1,0-0.2,0-0.2-0.2v-4.7c0-1.1-0.6-1.7-1.5-1.7s-2,0.9-2,2.5v3.9c0,0.1,0,0.2-0.2,0.2h-1.5c-0.1,0-0.2,0-0.2-0.2v-7.8
		c0-0.1,0-0.2,0.2-0.2h0.8c0.1,0,0.2,0,0.2,0.2v0.7C224.7,128.4,224.8,128.4,224.9,128.4L224.9,128.4z"/>
	<path class="st1" d="M237,127.6c0.1,0,0.2,0,0.2,0.2v1.3c0,0.1,0,0.2-0.2,0.2h-1.9v4.1c0,0.6,0.2,0.9,0.6,0.9s0.3,0,0.4,0
		c0.1,0,0.2,0,0.2,0l0.5,1.1v0.2c-0.3,0.2-0.7,0.3-1.1,0.3c-1.6,0-2.5-1-2.5-2.6v-4.1h-0.8c-0.1,0-0.2,0-0.2-0.2v-1.3
		c0-0.1,0-0.2,0.2-0.2h0.8v-1.9c0,0,0-0.2,0.1-0.2l1.5-0.5c0.1,0,0.2,0,0.2,0.2v2.5h1.9l0,0H237z"/>
	<path class="st1" d="M240.3,131.7c0,1.6,0.8,2.6,2,2.6s2-0.9,2-2.6s-0.8-2.5-2-2.5S240.3,130.2,240.3,131.7 M246.2,131.7
		c0,2.6-1.5,4.2-3.9,4.2s-3.9-1.6-3.9-4.2s1.5-4.2,3.9-4.2S246.2,129.1,246.2,131.7"/>
	<path class="st0" d="M61.8,64.7c0-8.1,4.2-15.2,10.5-19.3l6.1,9.5c-3.2,2.1-5.3,5.7-5.3,9.8c0,6.4,5.2,11.6,11.6,11.6
		s11.6-5.2,11.6-11.6S94.2,57,91,54.9l6.1-9.5c6.3,4.1,10.5,11.2,10.5,19.3c0,12.7-10.3,22.9-22.9,22.9S61.8,77.3,61.8,64.7"/>
	<path class="st0" d="M196.5,41.8v24.8c0,11.4-9,20.9-20.4,21.1c-11.6,0.2-21.2-9.2-21.2-20.8V41.7h11.3v25c0,5.1,4,9.5,9.1,9.7
		c5.4,0.2,9.8-4.1,9.8-9.4V48.6c0-3.7,3-6.7,6.7-6.7L196.5,41.8L196.5,41.8z"/>
	<path class="st0" d="M146.9,69.2c2.6-3,4.2-6.9,4.1-11.2c-0.2-9.1-7.8-16.3-16.9-16.3h-23.6V53h23.7c2.7,0,5.1,2,5.4,4.7
		c0.3,3.1-2.2,5.7-5.2,5.7h-16.2c-4.3,0-7.7,3.5-7.7,7.7v16.3h11.3V74.7h12.6c2.9,0,5.2,2.3,5.2,5.2v7.5h11.3v-7.5
		c0-2-0.4-3.9-1-5.7c-0.7-1.9-1.8-3.7-3.1-5.2"/>
	
		<linearGradient id="SVGID_1_" gradientUnits="userSpaceOnUse" x1="84.85" y1="480.7056" x2="84.85" y2="494.4056" gradientTransform="matrix(1 0 0 -1 0 535)">
		<stop  offset="0" style="stop-color:#FBB90A"/>
		<stop  offset="1" style="stop-color:#F28B20"/>
	</linearGradient>
	<path class="st2" d="M79.9,42.6c-1.1,1.1-1.7,2.5-1.9,3.9c0,0.3,0,0.7,0,1c0,1.7,0.7,3.5,2,4.8s0.9,0.8,1.5,1.1
		c2.6,1.5,6,1.1,8.2-1.1c0.6-0.6,1.1-1.3,1.4-2.1c0.4-0.9,0.6-1.8,0.6-2.8c0-1.7-0.7-3.5-2-4.9c-1.3-1.4-3.1-2-4.8-2s-3.5,0.7-4.8,2
		"/>
	<path class="st0" d="M238.4,41.8l-14.6,16l-14.6-16H201v45.9h3.4c4.4,0,8-3.6,8-8V62.1l0.2,0.3l0,0l11.2,12.3l11.4-12.5v17.6
		c0,4.4,3.6,8,8,8h3.4v-46H238.4L238.4,41.8z"/>
	<path class="st0" d="M51.2,53.1c4,0,7.2-3.2,7.2-7.2v-4.1h-32c-4.7,0-8.4,3.8-8.4,8.4v20.2l0,0v17.3h3.4c4.4,0,8-3.6,8-8v-9.3h21.8
		c4,0,7.3-3.2,7.3-7.3V59H29.3v-5.9H51.2z"/>
	
		<linearGradient id="SVGID_00000143597697736554304020000006779186984489624966_" gradientUnits="userSpaceOnUse" x1="323.6" y1="384.5" x2="323.6" y2="411.3" gradientTransform="matrix(1 0 0 -1 0 535)">
		<stop  offset="0" style="stop-color:#FBB90A"/>
		<stop  offset="1" style="stop-color:#F28B20"/>
	</linearGradient>
	<path style="fill:url(#SVGID_00000143597697736554304020000006779186984489624966_);" d="M314.1,127.6c-2.1,2.1-3.4,4.8-3.8,7.6
		c-0.1,0.6-0.1,1.3-0.1,1.9c0,3.4,1.3,6.9,3.9,9.5c0.9,0.9,1.8,1.6,2.9,2.2c5.1,2.9,11.7,2.2,16.1-2.2c1.2-1.2,2.1-2.6,2.8-4.1
		c0.8-1.7,1.1-3.6,1.1-5.4c0-3.4-1.3-6.9-3.9-9.5c-2.6-2.6-6-3.9-9.5-3.9S316.7,125,314.1,127.6"/>
	
		<linearGradient id="SVGID_00000176739158089836832170000006645402261466611607_" gradientUnits="userSpaceOnUse" x1="284.7159" y1="1051.2544" x2="331.9083" y2="1029.2579" gradientTransform="matrix(1 0 0 1 0 -942)">
		<stop  offset="0" style="stop-color:#00639C"/>
		<stop  offset="0.2" style="stop-color:#036597"/>
		<stop  offset="0.4" style="stop-color:#086C8C"/>
		<stop  offset="0.7" style="stop-color:#0D8F52"/>
		<stop  offset="0.9" style="stop-color:#109D3C"/>
	</linearGradient>
	<path style="fill:url(#SVGID_00000176739158089836832170000006645402261466611607_);" d="M316.8,77.8h-14.7c-2.9,0-5.6,1.2-7.5,3.1
		s-3.1,4.6-3.1,7.5h10.3l-7.6,7.8c-8.4,8.4-8.4,21.9,0,30.3c0.7,0.7,1.4,1.3,2.1,1.8c1-3.4,2.8-6.7,5.5-9.4l15.1-15.5v10.3
		c2.9,0,5.6-1.2,7.5-3.1s3.1-4.6,3.1-7.5V77.8H316.8L316.8,77.8L316.8,77.8z"/>
	
		<linearGradient id="SVGID_00000142148621198995168330000011967494024918098848_" gradientUnits="userSpaceOnUse" x1="282.8022" y1="1050.8442" x2="309.6035" y2="951.0394" gradientTransform="matrix(1 0 0 1 0 -942)">
		<stop  offset="0" style="stop-color:#00639C"/>
		<stop  offset="0.2" style="stop-color:#036597"/>
		<stop  offset="0.4" style="stop-color:#026B8D"/>
		<stop  offset="0.5" style="stop-color:#01757C"/>
		<stop  offset="0.7" style="stop-color:#00895C"/>
		<stop  offset="0.8" style="stop-color:#009648"/>
		<stop  offset="0.9" style="stop-color:#009B41"/>
	</linearGradient>
	<path style="fill:url(#SVGID_00000142148621198995168330000011967494024918098848_);" d="M318.5,15H300c-3.7,0-7,1.5-9.5,3.9
		s-3.9,5.8-3.9,9.5h12.9l-33,33c-5.2,5.2-7.9,12.1-7.9,18.9s2.6,13.7,7.9,18.9l7.2,7.2c0.5-9.5,4.4-18.9,11.7-26.2l33-33v12.9
		c3.7,0,7-1.5,9.5-3.9c2.4-2.4,3.9-5.8,3.9-9.5V15H318.5L318.5,15z"/>
</g>
</svg>
