<?xml version="1.0" encoding="UTF-8"?>
<svg id="Camada_2" data-name="Camada 2" xmlns="http://www.w3.org/2000/svg" xmlns:xlink="http://www.w3.org/1999/xlink" viewBox="0 0 321.03 135.5">
  <defs>
    <style>
      .cls-1 {
        fill: url(#Seta_Maior);
      }

      .cls-1, .cls-2, .cls-3, .cls-4, .cls-5, .cls-6 {
        stroke-width: 0px;
      }

      .cls-2 {
        fill: url(#Seta_Menor);
      }

      .cls-3 {
        fill: #00923f;
      }

      .cls-4 {
        fill: #00629a;
      }

      .cls-5 {
        fill: url(#Gradiente_sem_nome_4-2);
      }

      .cls-6 {
        fill: url(#Gradiente_sem_nome_4);
      }
    </style>
    <linearGradient id="Gradiente_sem_nome_4" data-name="Gradiente sem nome 4" x1="68.89" y1="1121.11" x2="68.89" y2="1134.8" gradientTransform="translate(0 1159) scale(1 -1)" gradientUnits="userSpaceOnUse">
      <stop offset="0" stop-color="#fbb90a"/>
      <stop offset="1" stop-color="#f28b20"/>
    </linearGradient>
    <linearGradient id="Gradiente_sem_nome_4-2" data-name="Gradiente sem nome 4" x1="307.64" y1="1023.5" x2="307.64" y2="1050.29" xlink:href="#Gradiente_sem_nome_4"/>
    <linearGradient id="Seta_Menor" data-name="Seta Menor" x1="268.78" y1="94.33" x2="315.96" y2="72.33" gradientUnits="userSpaceOnUse">
      <stop offset="0" stop-color="#00639c"/>
      <stop offset=".2" stop-color="#036597"/>
      <stop offset=".41" stop-color="#086c8c"/>
      <stop offset=".73" stop-color="#0d8f52"/>
      <stop offset=".89" stop-color="#109d3c"/>
    </linearGradient>
    <linearGradient id="Seta_Maior" data-name="Seta Maior" x1="267.03" y1="93.93" x2="293.79" y2="-5.95" gradientUnits="userSpaceOnUse">
      <stop offset="0" stop-color="#00639c"/>
      <stop offset=".2" stop-color="#036597"/>
      <stop offset=".4" stop-color="#026b8d"/>
      <stop offset=".48" stop-color="#01757c"/>
      <stop offset=".67" stop-color="#00895c"/>
      <stop offset=".82" stop-color="#009648"/>
      <stop offset=".93" stop-color="#009b41"/>
    </linearGradient>
  </defs>
  <g id="Logos">
    <g id="Logo_2" data-name="Logo 2">
      <polygon class="cls-4" points="14.91 100.22 .8 100.22 .8 79.77 14.63 79.77 14.1 83.33 5.21 83.33 5.21 87.95 13.67 87.95 13.32 91.48 5.21 91.48 5.21 96.66 14.63 96.66 14.91 100.22"/>
      <polygon class="cls-4" points="44.78 100.22 40.23 100.22 40.34 86.44 39.28 86.44 35.05 100.22 30.85 100.22 26.76 86.44 25.7 86.44 25.81 100.22 21.36 100.22 22.07 79.77 28.7 79.77 33.14 94.44 37.55 79.77 44.11 79.77 44.78 100.22"/>
      <path class="cls-4" d="M60.02,83.23h-2.96v7.09h2.33c2.4,0,3.53-1.76,3.53-3.95,0-2.36-.78-3.14-2.89-3.14M59.52,93.74h-2.47v6.49h-4.41v-20.45h7.58c5.29,0,7.26,1.55,7.26,6.38,0,4.41-3.38,7.58-7.97,7.58"/>
      <path class="cls-4" d="M81.39,83.16h-2.96v5.68h2.4c1.9,0,3.03-1.48,3.03-3.17,0-1.87-.56-2.5-2.47-2.5M90.8,100.22h-5.18l-3.91-8.11h-3.24v8.11h-4.41v-20.42h8.04c4.76,0,6.45,1.41,6.45,4.65,0,4.13-3.84,5.47-3.84,5.47v.56c.92.1,1.69.78,2.05,1.52,1.38,2.75,2.71,5.5,4.05,8.22"/>
      <polygon class="cls-4" points="110.34 100.22 96.24 100.22 96.24 79.77 110.06 79.77 109.53 83.33 100.65 83.33 100.65 87.95 109.11 87.95 108.76 91.48 100.65 91.48 100.65 96.66 110.06 96.66 110.34 100.22"/>
      <path class="cls-4" d="M122.83,100.61c-5.25,0-7.48-1.23-7.48-1.23l1.16-3.74s2.57,1.23,6.28,1.23c2.08,0,2.82-1.16,2.82-2.33,0-3.77-9.91-2.96-9.91-9.63,0-3.67,2.29-5.43,5.85-5.43,4.73,0,7.51.28,7.51.28l-.88,3.56s-3.07-.28-5.61-.28c-1.69,0-2.26.46-2.26,1.69,0,3.42,9.91,2.29,9.91,9.52,0,3.95-2.79,6.35-7.4,6.35"/>
      <path class="cls-4" d="M146.88,91.87l-2.01-7.69h-1.41l-2.33,7.69h5.75ZM153.79,100.22h-4.58l-1.52-5.04h-7.48l-1.59,5.04h-4.48l6.77-20.42h6.7l6.17,20.42Z"/>
      <path class="cls-4" d="M166.91,83.16h-2.96v5.68h2.4c1.9,0,3.03-1.48,3.03-3.17,0-1.87-.57-2.5-2.47-2.5M176.33,100.22h-5.18l-3.91-8.11h-3.24v8.11h-4.41v-20.42h8.04c4.76,0,6.45,1.41,6.45,4.65,0,4.13-3.84,5.47-3.84,5.47v.56c.92.1,1.69.78,2.05,1.52,1.38,2.75,2.71,5.5,4.05,8.22"/>
      <rect class="cls-4" x="181.87" y="79.77" width="4.44" height="20.45"/>
      <path class="cls-4" d="M204.9,91.87l-2.01-7.69h-1.41l-2.33,7.69h5.75ZM211.81,100.22h-4.58l-1.52-5.04h-7.48l-1.59,5.04h-4.48l6.77-20.42h6.7l6.17,20.42Z"/>
      <polygon class="cls-4" points="231.59 100.22 217.59 100.22 217.59 79.77 222 79.77 222 96.66 231.31 96.66 231.59 100.22"/>
      <path class="cls-3" d="M5.24,112.99c-.4-.18-.85-.28-1.37-.28-1.27,0-2.04.96-2.03,2.54,0,1.59.74,2.56,1.98,2.56s1.93-1.05,1.93-2.46v-2.13l-.5-.23ZM7.58,119.14c0,.12-.07.18-.18.18h-.84c-.12,0-.18-.05-.2-.15l-.18-.7c-.05-.15-.17-.18-.34,0-.6.67-1.41,1.04-2.33,1.04-2.19,0-3.52-1.64-3.52-4.25s1.41-4.22,3.75-4.22c.57,0,1.02.07,1.49.29l.49.22v-4.03c0-.12.07-.18.18-.18h1.49c.12,0,.18.07.18.18v11.64Z"/>
      <path class="cls-3" d="M13.8,114.53c.59-.1.9-.37.9-.8,0-.67-.52-1.02-1.42-1.02-1.1,0-1.86.69-1.99,2.23l2.51-.4ZM15.09,119.29c-.6.15-1.17.22-1.71.22-2.53,0-3.95-1.64-3.95-4.23s1.44-4.24,3.88-4.24c2.01,0,3.23,1.01,3.23,2.66,0,1.29-.79,2.03-2.46,2.28l-2.63.4c.18.89.85,1.44,1.91,1.44.47,0,.97-.05,1.32-.17l.74-.18c.12-.03.2.02.23.13l.34,1.26c.03.12-.02.2-.13.23l-.77.2Z"/>
      <rect class="cls-3" x="22.04" y="107.62" width="1.89" height="11.7" rx=".18" ry=".18"/>
      <path class="cls-3" d="M27.71,112.04c.1.2.2.18.39.02.65-.74,1.49-1.02,2.31-1.02,1.91,0,3.06,1.19,3.06,3.16v4.94c0,.12-.07.18-.19.18h-1.49c-.12,0-.18-.07-.18-.18v-4.74c0-1.05-.55-1.69-1.46-1.69-1.24,0-1.96.9-1.96,2.53v3.9c0,.12-.07.18-.18.18h-1.49c-.12,0-.18-.07-.18-.18v-7.75c0-.12.07-.18.18-.18h.84c.12,0,.18.05.2.17l.15.67Z"/>
      <path class="cls-3" d="M37.08,115.25c0,1.61.75,2.56,2.03,2.56s2.01-.95,2.01-2.56-.77-2.54-2.01-2.54-2.03.96-2.03,2.54M42.95,115.25c0,2.61-1.47,4.25-3.85,4.25s-3.87-1.64-3.87-4.25,1.47-4.22,3.87-4.22,3.85,1.64,3.85,4.22"/>
      <path class="cls-3" d="M50.34,115.37c-.5,1.29-1,2.73-1.29,3.8-.03.1-.1.15-.22.15h-1.77c-.12,0-.18-.05-.22-.15-.28-1.07-.79-2.49-1.29-3.8l-1.66-3.95c-.05-.14.02-.22.15-.22h1.56c.1,0,.17.05.22.13l1.19,2.81c.37.99.67,2.01.8,2.76.03.18.22.18.27,0,.12-.75.42-1.79.8-2.76l1.19-2.81c.05-.08.12-.13.22-.13h1.56c.13,0,.2.08.15.22l-1.66,3.95Z"/>
      <path class="cls-3" d="M56.02,115.86c-.82,0-1.21.39-1.21.96,0,.65.45,1.05,1.26,1.05,1.32,0,2.04-.65,2.04-1.89v-.12h-2.09ZM54.48,111.29c.57-.17,1.14-.25,1.82-.25,2.26,0,3.65,1.17,3.65,3.2v4.9c0,.12-.07.18-.18.18h-.84c-.12,0-.18-.05-.22-.15l-.13-.52c-.1-.23-.2-.23-.42-.03-.52.57-1.27.89-2.29.89-1.86,0-2.9-.96-2.9-2.53s1.07-2.58,3.05-2.58h2.09v-.1c0-1.02-.65-1.57-1.89-1.57-.49,0-.9.05-1.3.17l-.6.18c-.12.03-.2-.02-.24-.13l-.37-1.24c-.03-.12.02-.2.13-.23l.64-.18Z"/>
      <path class="cls-3" d="M67.2,119.29c-.5.13-1.04.22-1.56.22l-.2.5h.12c.75,0,1.32.57,1.32,1.47,0,.97-.64,1.62-1.77,1.62-.3,0-.57-.05-.84-.13l-.28-.1c-.1-.03-.15-.12-.1-.22l.28-.87c.05-.12.13-.17.23-.12l.22.07c.18.05.32.07.49.07.35,0,.57-.17.57-.48s-.24-.49-.6-.49h-.59c-.08,0-.15-.03-.22-.12-.05-.07-.05-.13-.02-.23l.35-1.07c-1.89-.39-2.93-1.91-2.93-4.15,0-2.6,1.39-4.22,4.02-4.22.44,0,.92.05,1.44.2l.72.2c.12.03.17.12.13.23l-.39,1.26c-.03.1-.12.15-.22.12l-.57-.15c-.42-.13-.82-.18-1.12-.18-1.49,0-2.18.95-2.18,2.53s.72,2.58,2.14,2.58c.35,0,.82-.07,1.24-.18l.55-.17c.12-.03.2.02.23.12l.39,1.26c.03.12-.02.2-.13.23l-.74.22Z"/>
      <path class="cls-3" d="M72.46,115.86c-.82,0-1.2.39-1.2.96,0,.65.45,1.05,1.26,1.05,1.32,0,2.04-.65,2.04-1.89v-.12h-2.09ZM70.87,108.14c.3-.62.7-.89,1.32-.89.42,0,.64.1.89.27l.62.38c.13.08.23.12.33.12.13,0,.24-.08.37-.3l.17-.27c.05-.1.12-.13.22-.13h.84c.15,0,.2.08.14.22l-.39.77c-.3.6-.7.87-1.32.87-.4,0-.64-.12-.92-.3l-.59-.32c-.13-.1-.25-.15-.35-.15-.13,0-.23.08-.35.29l-.17.3c-.05.1-.12.13-.22.13h-.84c-.13,0-.18-.08-.13-.22l.39-.77ZM70.92,111.29c.57-.17,1.14-.25,1.82-.25,2.26,0,3.65,1.17,3.65,3.2v4.9c0,.12-.07.18-.18.18h-.84c-.12,0-.18-.05-.22-.15l-.13-.52c-.1-.23-.2-.23-.42-.03-.52.57-1.27.89-2.29.89-1.86,0-2.9-.96-2.9-2.53s1.07-2.58,3.05-2.58h2.09v-.1c0-1.02-.65-1.57-1.89-1.57-.49,0-.9.05-1.3.17l-.6.18c-.12.03-.2-.02-.23-.13l-.37-1.24c-.03-.12.02-.2.13-.23l.63-.18Z"/>
      <path class="cls-3" d="M79.97,115.25c0,1.61.75,2.56,2.03,2.56s2.01-.95,2.01-2.56-.77-2.54-2.01-2.54-2.03.96-2.03,2.54M85.84,115.25c0,2.61-1.47,4.25-3.85,4.25s-3.87-1.64-3.87-4.25,1.47-4.22,3.87-4.22,3.85,1.64,3.85,4.22"/>
      <path class="cls-3" d="M95.14,114.53c.59-.1.9-.37.9-.8,0-.67-.52-1.02-1.42-1.02-1.1,0-1.86.69-1.99,2.23l2.51-.4ZM96.43,119.29c-.6.15-1.17.22-1.71.22-2.53,0-3.95-1.64-3.95-4.23s1.44-4.24,3.88-4.24c2.01,0,3.23,1.01,3.23,2.66,0,1.29-.79,2.03-2.46,2.28l-2.63.4c.18.89.85,1.44,1.91,1.44.47,0,.97-.05,1.32-.17l.74-.18c.12-.03.2.02.23.13l.34,1.26c.03.12-.02.2-.13.23l-.77.2Z"/>
      <path class="cls-3" d="M105.27,117.63h2.21c1.97,0,3.16-1.52,3.16-4.15s-1.19-4.17-3.16-4.17h-2.21v8.32ZM107.48,107.62c3.18,0,5.11,2.26,5.11,5.86s-1.96,5.84-5.11,5.84h-3.92c-.12,0-.18-.07-.18-.18v-11.33c0-.12.07-.18.18-.18h3.92Z"/>
      <path class="cls-3" d="M118.53,114.53c.59-.1.9-.37.9-.8,0-.67-.52-1.02-1.42-1.02-1.11,0-1.86.69-1.99,2.23l2.51-.4ZM119.82,119.29c-.6.15-1.17.22-1.71.22-2.53,0-3.95-1.64-3.95-4.23s1.44-4.24,3.88-4.24c2.01,0,3.23,1.01,3.23,2.66,0,1.29-.79,2.03-2.46,2.28l-2.63.4c.19.89.85,1.44,1.91,1.44.47,0,.97-.05,1.32-.17l.74-.18c.12-.03.2.02.23.13l.34,1.26c.03.12-.02.2-.13.23l-.77.2Z"/>
      <path class="cls-3" d="M124.98,115.72c-1.39-.35-2.04-1.07-2.04-2.28,0-1.51,1.12-2.41,3.06-2.41.75,0,1.52.12,2.08.27l.74.18c.12.03.17.12.13.23l-.35,1.25c-.03.12-.12.17-.23.13l-.74-.2c-.45-.13-1.12-.2-1.62-.2-.77,0-1.22.28-1.22.74,0,.38.23.62.75.77l1.68.44c1.46.37,2.11,1.12,2.11,2.33,0,1.57-1.17,2.53-3.15,2.53-.87,0-1.74-.12-2.56-.35l-.65-.18c-.12-.03-.17-.12-.13-.24l.39-1.26c.03-.1.12-.15.22-.12l.6.17c.64.18,1.52.29,2.14.29.82,0,1.29-.32,1.29-.84,0-.4-.23-.65-.79-.82l-1.69-.43Z"/>
      <path class="cls-3" d="M135.06,114.53c.59-.1.9-.37.9-.8,0-.67-.52-1.02-1.42-1.02-1.1,0-1.86.69-1.99,2.23l2.51-.4ZM136.35,119.29c-.6.15-1.17.22-1.71.22-2.53,0-3.95-1.64-3.95-4.23s1.44-4.24,3.88-4.24c2.01,0,3.23,1.01,3.23,2.66,0,1.29-.79,2.03-2.46,2.28l-2.63.4c.18.89.85,1.44,1.91,1.44.47,0,.97-.05,1.32-.17l.74-.18c.12-.03.2.02.23.13l.34,1.26c.03.12-.02.2-.13.23l-.77.2Z"/>
      <path class="cls-3" d="M141.03,112.04c.1.2.2.18.38.02.65-.74,1.49-1.02,2.31-1.02,1.91,0,3.06,1.19,3.06,3.16v4.94c0,.12-.07.18-.18.18h-1.49c-.12,0-.18-.07-.18-.18v-4.74c0-1.05-.55-1.69-1.46-1.69-1.24,0-1.96.9-1.96,2.53v3.9c0,.12-.07.18-.18.18h-1.49c-.12,0-.18-.07-.18-.18v-7.75c0-.12.07-.18.18-.18h.84c.12,0,.18.05.2.17l.15.67Z"/>
      <path class="cls-3" d="M154.49,115.37c-.5,1.29-1,2.73-1.29,3.8-.03.1-.1.15-.22.15h-1.77c-.12,0-.18-.05-.22-.15-.28-1.07-.79-2.49-1.29-3.8l-1.66-3.95c-.05-.14.02-.22.15-.22h1.56c.1,0,.17.05.22.13l1.19,2.81c.37.99.67,2.01.8,2.76.03.18.22.18.27,0,.12-.75.42-1.79.8-2.76l1.19-2.81c.05-.08.12-.13.22-.13h1.56c.13,0,.2.08.15.22l-1.66,3.95Z"/>
      <path class="cls-3" d="M159.1,115.25c0,1.61.75,2.56,2.03,2.56s2.01-.95,2.01-2.56-.77-2.54-2.01-2.54-2.03.96-2.03,2.54M164.97,115.25c0,2.61-1.47,4.25-3.85,4.25s-3.87-1.64-3.87-4.25,1.47-4.22,3.87-4.22,3.85,1.64,3.85,4.22"/>
      <path class="cls-3" d="M168.68,117.36c0,.28.12.45.34.45h.12c.12-.02.18-.02.23.1l.5,1.19c.05.12.02.2-.08.25-.23.1-.52.15-.77.15-1.37,0-2.19-.79-2.19-2.14v-9.86c0-.12.07-.18.18-.18h1.49c.12,0,.18.07.18.18v9.86Z"/>
      <path class="cls-3" d="M176.93,115.37c-.5,1.29-1,2.73-1.29,3.8-.03.1-.1.15-.22.15h-1.77c-.12,0-.18-.05-.22-.15-.28-1.07-.79-2.49-1.29-3.8l-1.66-3.95c-.05-.14.02-.22.15-.22h1.56c.1,0,.17.05.22.13l1.19,2.81c.37.99.67,2.01.8,2.76.03.18.22.18.27,0,.12-.75.42-1.79.8-2.76l1.19-2.81c.05-.08.12-.13.22-.13h1.56c.13,0,.2.08.15.22l-1.66,3.95Z"/>
      <path class="cls-3" d="M182.69,108.31c0,.72-.4,1.14-1.11,1.14s-1.12-.42-1.12-1.14.42-1.12,1.12-1.12,1.11.42,1.11,1.12M182.71,119.14c0,.12-.07.18-.18.18h-1.49c-.12,0-.18-.07-.18-.18v-6.28h-.82c-.12,0-.18-.07-.18-.18v-1.29c0-.12.07-.18.18-.18h2.49c.12,0,.18.07.18.18v7.75Z"/>
      <path class="cls-3" d="M186.33,112.02c.1.2.2.2.4.02.64-.72,1.37-1.01,2.18-1.01.95,0,1.73.47,2.18,1.12.22.23.37.18.57,0,.74-.87,1.49-1.12,2.29-1.12,1.87,0,2.95,1.19,2.95,3.16v4.94c0,.12-.07.18-.18.18h-1.51c-.12,0-.18-.07-.18-.18v-4.74c0-1.05-.44-1.69-1.32-1.69-1.27,0-1.84.99-1.84,2.53v3.9c0,.12-.07.18-.18.18h-1.51c-.12,0-.18-.07-.18-.18v-4.75c0-1.04-.47-1.67-1.32-1.67-1.29,0-1.84.99-1.84,2.53v3.9c0,.12-.07.18-.18.18h-1.49c-.12,0-.19-.07-.19-.18v-7.75c0-.12.07-.18.19-.18h.84c.12,0,.18.05.2.17l.15.65Z"/>
      <path class="cls-3" d="M203.01,114.53c.59-.1.9-.37.9-.8,0-.67-.52-1.02-1.42-1.02-1.11,0-1.86.69-1.99,2.23l2.51-.4ZM204.3,119.29c-.6.15-1.17.22-1.71.22-2.53,0-3.95-1.64-3.95-4.23s1.44-4.24,3.88-4.24c2.01,0,3.23,1.01,3.23,2.66,0,1.29-.79,2.03-2.46,2.28l-2.63.4c.19.89.85,1.44,1.91,1.44.47,0,.97-.05,1.32-.17l.74-.18c.12-.03.2.02.23.13l.34,1.26c.03.12-.02.2-.13.23l-.77.2Z"/>
      <path class="cls-3" d="M208.97,112.04c.1.2.2.18.38.02.65-.74,1.49-1.02,2.31-1.02,1.91,0,3.06,1.19,3.06,3.16v4.94c0,.12-.07.18-.19.18h-1.49c-.12,0-.18-.07-.18-.18v-4.74c0-1.05-.55-1.69-1.46-1.69-1.24,0-1.96.9-1.96,2.53v3.9c0,.12-.07.18-.18.18h-1.49c-.12,0-.19-.07-.19-.18v-7.75c0-.12.07-.18.19-.18h.84c.12,0,.18.05.2.17l.15.67Z"/>
      <path class="cls-3" d="M221.14,111.2c.12,0,.18.07.18.18v1.29c0,.12-.07.18-.18.18h-1.88v4.07c0,.57.25.89.65.89.15,0,.3-.02.44-.07.12-.05.2-.03.25.08l.54,1.14c.05.1.02.18-.08.25-.3.17-.74.29-1.14.29-1.59,0-2.51-.96-2.51-2.58v-4.07h-.82c-.12,0-.18-.07-.18-.18v-1.29c0-.12.07-.18.18-.18h.82v-1.92c0-.1.05-.17.15-.2l1.49-.5c.13-.03.22.02.22.15v2.48h1.88Z"/>
      <path class="cls-3" d="M224.44,115.25c0,1.61.75,2.56,2.03,2.56s2.01-.95,2.01-2.56-.77-2.54-2.01-2.54-2.03.96-2.03,2.54M230.32,115.25c0,2.61-1.47,4.25-3.85,4.25s-3.87-1.64-3.87-4.25,1.47-4.22,3.87-4.22,3.85,1.64,3.85,4.22"/>
      <path class="cls-4" d="M45.94,48.32c0-8.08,4.19-15.19,10.52-19.28l6.14,9.53c-3.2,2.07-5.32,5.67-5.32,9.75,0,6.4,5.21,11.61,11.61,11.61s11.61-5.21,11.61-11.61c0-4.09-2.12-7.68-5.32-9.75l6.14-9.53c6.32,4.09,10.52,11.2,10.52,19.28,0,12.65-10.29,22.94-22.94,22.94s-22.94-10.29-22.94-22.94"/>
      <path class="cls-4" d="M180.58,25.37v24.76c0,11.37-9,20.9-20.37,21.12-11.64.22-21.18-9.18-21.18-20.77v-25.22h11.34v24.99c0,5.11,3.97,9.47,9.07,9.66,5.37.2,9.8-4.11,9.8-9.43v-18.37c0-3.72,3.02-6.74,6.74-6.74h4.59Z"/>
      <path class="cls-4" d="M130.98,52.85c2.62-2.99,4.18-6.92,4.1-11.21-.17-9.09-7.81-16.26-16.9-16.26h-23.56v11.34h23.74c2.73,0,5.11,2.02,5.37,4.73.29,3.11-2.16,5.74-5.21,5.74h-16.15c-4.28,0-7.74,3.47-7.74,7.74v16.33h11.34v-12.74h12.55c2.89,0,5.24,2.34,5.24,5.24v7.5h11.34v-7.5c0-1.99-.35-3.9-1-5.67-.71-1.94-1.77-3.71-3.1-5.24"/>
      <path class="cls-6" d="M64.04,26.19c-1.08,1.08-1.74,2.45-1.94,3.88-.06.31-.06.66-.06.97,0,1.74.66,3.51,2,4.85.46.46.94.83,1.48,1.11,2.62,1.48,5.99,1.11,8.21-1.11.63-.63,1.08-1.34,1.43-2.08.4-.88.57-1.82.57-2.76,0-1.74-.66-3.51-2-4.85s-3.08-2-4.85-2-3.51.66-4.85,2"/>
      <path class="cls-4" d="M222.47,25.37l-14.56,16.01-14.56-16.01h-8.2v45.88h3.38c4.4,0,7.96-3.56,7.96-7.96v-17.6l.25.28v-.02l11.17,12.28,11.4-12.53v17.6c0,4.4,3.56,7.96,7.96,7.96h3.38V25.37h-8.17Z"/>
      <path class="cls-4" d="M35.33,36.71c4,0,7.25-3.25,7.25-7.25v-4.09H10.54c-4.66,0-8.43,3.77-8.43,8.43v20.18h.03v17.27h3.38c4.4,0,7.96-3.56,7.96-7.96v-9.31h21.83c4.01,0,7.26-3.25,7.26-7.26v-4.08H13.45v-5.94h21.88Z"/>
      <path class="cls-5" d="M298.16,112.62c-2.12,2.12-3.4,4.8-3.79,7.59-.11.61-.11,1.28-.11,1.9,0,3.4,1.28,6.86,3.91,9.48.89.89,1.84,1.62,2.9,2.18,5.13,2.9,11.72,2.18,16.07-2.18,1.23-1.23,2.12-2.62,2.79-4.07.78-1.73,1.12-3.57,1.12-5.41,0-3.4-1.28-6.86-3.91-9.48s-6.03-3.91-9.48-3.91-6.86,1.28-9.48,3.91"/>
      <path class="cls-2" d="M300.91,62.85h-14.68c-2.94,0-5.59,1.19-7.52,3.11-1.92,1.92-3.11,4.58-3.11,7.52h10.27l-7.63,7.79c-8.36,8.36-8.36,21.92,0,30.29.66.66,1.36,1.27,2.08,1.83.96-3.44,2.79-6.69,5.49-9.4l15.09-15.47v10.27c2.94,0,5.59-1.19,7.52-3.11,1.92-1.93,3.11-4.58,3.11-7.52v-25.31h-10.63Z"/>
      <path class="cls-1" d="M302.6,0h-18.49c-3.7,0-7.05,1.5-9.47,3.92-2.42,2.42-3.92,5.77-3.92,9.47h12.94l-32.97,32.97c-5.23,5.23-7.85,12.09-7.85,18.94,0,6.85,2.61,13.71,7.85,18.94l7.23,7.24c.53-9.53,4.43-18.9,11.71-26.18l32.97-32.97v12.94c3.7,0,7.05-1.5,9.47-3.92,2.42-2.42,3.92-5.77,3.92-9.47V0h-13.39Z"/>
    </g>
  </g>
</svg>