<?xml version="1.0" encoding="UTF-8"?>
<svg id="Camada_2" data-name="Camada 2" xmlns="http://www.w3.org/2000/svg" viewBox="0 0 231.59 230.03">
  <defs>
    <style>
      .cls-1 {
        fill: #fff;
        stroke-width: 0px;
      }
    </style>
  </defs>
  <g id="Logos">
    <g id="Logo_1" data-name="Logo 1">
      <polygon class="cls-1" points="14.91 207.15 .8 207.15 .8 186.7 14.63 186.7 14.1 190.26 5.21 190.26 5.21 194.88 13.67 194.88 13.32 198.4 5.21 198.4 5.21 203.59 14.63 203.59 14.91 207.15"/>
      <polygon class="cls-1" points="44.78 207.15 40.23 207.15 40.34 193.36 39.28 193.36 35.05 207.15 30.85 207.15 26.76 193.36 25.7 193.36 25.81 207.15 21.36 207.15 22.07 186.7 28.7 186.7 33.14 201.37 37.55 186.7 44.11 186.7 44.78 207.15"/>
      <path class="cls-1" d="M60.01,190.15h-2.96v7.09h2.33c2.4,0,3.53-1.76,3.53-3.95,0-2.36-.78-3.14-2.89-3.14M59.52,200.66h-2.47v6.49h-4.41v-20.45h7.58c5.29,0,7.26,1.55,7.26,6.38,0,4.41-3.38,7.58-7.97,7.58"/>
      <path class="cls-1" d="M81.39,190.08h-2.96v5.68h2.4c1.9,0,3.03-1.48,3.03-3.17,0-1.87-.56-2.5-2.47-2.5M90.8,207.15h-5.18l-3.91-8.11h-3.24v8.11h-4.41v-20.42h8.04c4.76,0,6.45,1.41,6.45,4.66,0,4.13-3.84,5.47-3.84,5.47v.56c.92.1,1.69.77,2.05,1.52,1.38,2.75,2.71,5.5,4.05,8.22"/>
      <polygon class="cls-1" points="110.34 207.15 96.24 207.15 96.24 186.7 110.06 186.7 109.53 190.26 100.64 190.26 100.64 194.88 109.11 194.88 108.75 198.4 100.64 198.4 100.64 203.59 110.06 203.59 110.34 207.15"/>
      <path class="cls-1" d="M122.83,207.54c-5.25,0-7.48-1.23-7.48-1.23l1.16-3.74s2.58,1.23,6.28,1.23c2.08,0,2.82-1.16,2.82-2.33,0-3.77-9.91-2.96-9.91-9.63,0-3.67,2.29-5.43,5.85-5.43,4.73,0,7.51.28,7.51.28l-.88,3.56s-3.07-.28-5.61-.28c-1.69,0-2.26.46-2.26,1.69,0,3.42,9.91,2.29,9.91,9.52,0,3.95-2.79,6.35-7.4,6.35"/>
      <path class="cls-1" d="M146.88,198.79l-2.01-7.69h-1.41l-2.33,7.69h5.75ZM153.79,207.15h-4.58l-1.52-5.04h-7.48l-1.59,5.04h-4.48l6.77-20.42h6.7l6.17,20.42Z"/>
      <path class="cls-1" d="M166.91,190.08h-2.96v5.68h2.4c1.9,0,3.03-1.48,3.03-3.17,0-1.87-.57-2.5-2.47-2.5M176.33,207.15h-5.18l-3.91-8.11h-3.24v8.11h-4.41v-20.42h8.04c4.76,0,6.45,1.41,6.45,4.66,0,4.13-3.84,5.47-3.84,5.47v.56c.92.1,1.69.77,2.05,1.52,1.38,2.75,2.71,5.5,4.06,8.22"/>
      <rect class="cls-1" x="181.87" y="186.7" width="4.44" height="20.45"/>
      <path class="cls-1" d="M204.89,198.79l-2.01-7.69h-1.41l-2.33,7.69h5.75ZM211.81,207.15h-4.58l-1.52-5.04h-7.48l-1.59,5.04h-4.48l6.77-20.42h6.7l6.17,20.42Z"/>
      <polygon class="cls-1" points="231.59 207.15 217.59 207.15 217.59 186.7 222 186.7 222 203.59 231.31 203.59 231.59 207.15"/>
      <path class="cls-1" d="M5.24,219.92c-.4-.18-.85-.29-1.37-.29-1.27,0-2.04.95-2.03,2.54,0,1.59.74,2.56,1.98,2.56s1.93-1.05,1.93-2.46v-2.13l-.5-.23ZM7.58,226.06c0,.12-.07.18-.18.18h-.84c-.12,0-.18-.05-.2-.15l-.18-.7c-.05-.15-.17-.18-.33,0-.6.67-1.41,1.04-2.33,1.04-2.19,0-3.52-1.64-3.52-4.25s1.41-4.22,3.75-4.22c.57,0,1.02.07,1.49.29l.49.22v-4.04c0-.12.07-.18.18-.18h1.49c.12,0,.18.07.18.18v11.64Z"/>
      <path class="cls-1" d="M13.8,221.46c.59-.1.9-.37.9-.8,0-.67-.52-1.02-1.42-1.02-1.1,0-1.86.69-1.99,2.23l2.51-.4ZM15.09,226.21c-.6.15-1.17.22-1.71.22-2.53,0-3.95-1.64-3.95-4.23s1.44-4.24,3.88-4.24c2.01,0,3.23,1,3.23,2.66,0,1.29-.79,2.03-2.46,2.28l-2.63.4c.18.89.85,1.44,1.91,1.44.47,0,.97-.05,1.32-.17l.74-.18c.12-.03.2.02.23.13l.34,1.26c.03.12-.02.2-.13.23l-.77.2Z"/>
      <path class="cls-1" d="M22.22,214.55h1.52c.1,0,.18.08.18.18v11.33c0,.1-.08.18-.18.18h-1.52c-.1,0-.18-.08-.18-.18v-11.33c0-.1.08-.18.18-.18Z"/>
      <path class="cls-1" d="M27.72,218.96c.1.2.2.18.38.02.65-.74,1.49-1.02,2.31-1.02,1.91,0,3.06,1.19,3.06,3.16v4.94c0,.12-.07.18-.19.18h-1.49c-.12,0-.18-.07-.18-.18v-4.74c0-1.05-.55-1.69-1.46-1.69-1.24,0-1.96.9-1.96,2.53v3.9c0,.12-.07.18-.18.18h-1.49c-.12,0-.18-.07-.18-.18v-7.75c0-.12.07-.18.18-.18h.84c.12,0,.18.05.2.17l.15.67Z"/>
      <path class="cls-1" d="M37.08,222.18c0,1.61.75,2.56,2.03,2.56s2.01-.95,2.01-2.56-.77-2.54-2.01-2.54-2.03.95-2.03,2.54M42.95,222.18c0,2.61-1.47,4.25-3.85,4.25s-3.87-1.64-3.87-4.25,1.47-4.22,3.87-4.22,3.85,1.64,3.85,4.22"/>
      <path class="cls-1" d="M50.34,222.3c-.5,1.29-1,2.73-1.29,3.8-.03.1-.1.15-.22.15h-1.77c-.12,0-.19-.05-.22-.15-.28-1.07-.79-2.49-1.29-3.8l-1.66-3.95c-.05-.13.02-.22.15-.22h1.56c.1,0,.17.05.22.13l1.19,2.81c.37.99.67,2.01.8,2.76.03.18.22.18.27,0,.12-.75.42-1.79.8-2.76l1.19-2.81c.05-.08.12-.13.22-.13h1.56c.13,0,.2.08.15.22l-1.66,3.95Z"/>
      <path class="cls-1" d="M56.02,222.78c-.82,0-1.21.39-1.21.96,0,.65.45,1.05,1.26,1.05,1.32,0,2.04-.65,2.04-1.89v-.12h-2.09ZM54.48,218.21c.57-.17,1.14-.25,1.83-.25,2.26,0,3.65,1.17,3.65,3.2v4.9c0,.12-.07.18-.18.18h-.84c-.12,0-.18-.05-.22-.15l-.13-.52c-.1-.23-.2-.23-.42-.03-.52.57-1.27.89-2.29.89-1.86,0-2.9-.95-2.9-2.53s1.07-2.58,3.05-2.58h2.09v-.1c0-1.02-.65-1.57-1.89-1.57-.49,0-.9.05-1.3.17l-.6.18c-.12.03-.2-.02-.24-.13l-.37-1.24c-.03-.12.02-.2.13-.23l.64-.18Z"/>
      <path class="cls-1" d="M67.2,226.21c-.5.13-1.04.22-1.56.22l-.2.5h.12c.75,0,1.32.57,1.32,1.47,0,.97-.64,1.62-1.77,1.62-.3,0-.57-.05-.84-.13l-.28-.1c-.1-.03-.15-.12-.1-.22l.29-.87c.05-.12.13-.17.23-.12l.22.07c.18.05.32.07.48.07.35,0,.57-.17.57-.48s-.23-.49-.6-.49h-.59c-.08,0-.15-.03-.22-.12-.05-.07-.05-.13-.02-.23l.35-1.07c-1.89-.38-2.93-1.91-2.93-4.15,0-2.6,1.39-4.22,4.02-4.22.44,0,.92.05,1.44.2l.72.2c.12.03.17.12.13.23l-.38,1.26c-.03.1-.12.15-.22.12l-.57-.15c-.42-.13-.82-.18-1.12-.18-1.49,0-2.18.95-2.18,2.53s.72,2.58,2.14,2.58c.35,0,.82-.07,1.24-.18l.55-.17c.12-.03.2.02.23.12l.38,1.26c.03.12-.02.2-.13.23l-.74.22Z"/>
      <path class="cls-1" d="M72.46,222.78c-.82,0-1.2.39-1.2.96,0,.65.45,1.05,1.25,1.05,1.32,0,2.04-.65,2.04-1.89v-.12h-2.09ZM70.87,215.06c.3-.62.7-.89,1.32-.89.42,0,.64.1.89.27l.62.39c.13.08.24.12.34.12.13,0,.23-.08.37-.3l.17-.27c.05-.1.12-.13.22-.13h.84c.15,0,.2.08.14.22l-.38.77c-.3.6-.7.87-1.32.87-.4,0-.64-.12-.92-.3l-.59-.32c-.13-.1-.25-.15-.35-.15-.13,0-.23.08-.35.29l-.17.3c-.05.1-.12.13-.22.13h-.84c-.13,0-.18-.08-.13-.22l.39-.77ZM70.92,218.21c.57-.17,1.14-.25,1.82-.25,2.26,0,3.65,1.17,3.65,3.2v4.9c0,.12-.07.18-.18.18h-.84c-.12,0-.18-.05-.22-.15l-.13-.52c-.1-.23-.2-.23-.42-.03-.52.57-1.27.89-2.29.89-1.86,0-2.9-.95-2.9-2.53s1.07-2.58,3.05-2.58h2.09v-.1c0-1.02-.65-1.57-1.89-1.57-.49,0-.9.05-1.3.17l-.6.18c-.12.03-.2-.02-.24-.13l-.37-1.24c-.03-.12.02-.2.13-.23l.64-.18Z"/>
      <path class="cls-1" d="M79.97,222.18c0,1.61.75,2.56,2.03,2.56s2.01-.95,2.01-2.56-.77-2.54-2.01-2.54-2.03.95-2.03,2.54M85.84,222.18c0,2.61-1.47,4.25-3.85,4.25s-3.87-1.64-3.87-4.25,1.47-4.22,3.87-4.22,3.85,1.64,3.85,4.22"/>
      <path class="cls-1" d="M95.14,221.46c.59-.1.9-.37.9-.8,0-.67-.52-1.02-1.42-1.02-1.1,0-1.86.69-1.99,2.23l2.51-.4ZM96.43,226.21c-.6.15-1.17.22-1.71.22-2.53,0-3.95-1.64-3.95-4.23s1.44-4.24,3.88-4.24c2.01,0,3.23,1,3.23,2.66,0,1.29-.79,2.03-2.46,2.28l-2.63.4c.19.89.85,1.44,1.91,1.44.47,0,.97-.05,1.32-.17l.74-.18c.12-.03.2.02.23.13l.34,1.26c.03.12-.02.2-.13.23l-.77.2Z"/>
      <path class="cls-1" d="M105.27,224.56h2.21c1.98,0,3.16-1.52,3.16-4.15s-1.19-4.17-3.16-4.17h-2.21v8.32ZM107.48,214.54c3.18,0,5.11,2.26,5.11,5.86s-1.96,5.84-5.11,5.84h-3.92c-.12,0-.18-.07-.18-.18v-11.33c0-.12.07-.18.18-.18h3.92Z"/>
      <path class="cls-1" d="M118.53,221.46c.59-.1.9-.37.9-.8,0-.67-.52-1.02-1.42-1.02-1.1,0-1.86.69-1.99,2.23l2.51-.4ZM119.82,226.21c-.6.15-1.17.22-1.71.22-2.53,0-3.95-1.64-3.95-4.23s1.44-4.24,3.88-4.24c2.01,0,3.23,1,3.23,2.66,0,1.29-.79,2.03-2.46,2.28l-2.63.4c.18.89.85,1.44,1.91,1.44.47,0,.97-.05,1.32-.17l.74-.18c.12-.03.2.02.23.13l.34,1.26c.03.12-.02.2-.13.23l-.77.2Z"/>
      <path class="cls-1" d="M124.98,222.65c-1.39-.35-2.04-1.07-2.04-2.28,0-1.51,1.12-2.41,3.06-2.41.75,0,1.52.12,2.08.27l.74.19c.12.03.17.12.13.23l-.35,1.26c-.03.12-.12.17-.23.14l-.74-.2c-.45-.13-1.12-.2-1.62-.2-.77,0-1.22.29-1.22.74,0,.39.24.62.75.77l1.68.44c1.46.37,2.11,1.12,2.11,2.33,0,1.57-1.17,2.53-3.15,2.53-.87,0-1.74-.12-2.56-.35l-.65-.18c-.12-.03-.17-.12-.13-.23l.38-1.26c.03-.1.12-.15.22-.12l.6.17c.64.18,1.52.28,2.14.28.82,0,1.29-.32,1.29-.84,0-.4-.24-.65-.79-.82l-1.69-.43Z"/>
      <path class="cls-1" d="M135.06,221.46c.59-.1.9-.37.9-.8,0-.67-.52-1.02-1.42-1.02-1.11,0-1.86.69-1.99,2.23l2.51-.4ZM136.35,226.21c-.6.15-1.17.22-1.71.22-2.53,0-3.95-1.64-3.95-4.23s1.44-4.24,3.88-4.24c2.01,0,3.23,1,3.23,2.66,0,1.29-.79,2.03-2.46,2.28l-2.63.4c.19.89.85,1.44,1.91,1.44.47,0,.97-.05,1.32-.17l.74-.18c.12-.03.2.02.23.13l.34,1.26c.03.12-.02.2-.13.23l-.77.2Z"/>
      <path class="cls-1" d="M141.03,218.96c.1.2.2.18.38.02.65-.74,1.49-1.02,2.31-1.02,1.91,0,3.06,1.19,3.06,3.16v4.94c0,.12-.07.18-.19.18h-1.49c-.12,0-.18-.07-.18-.18v-4.74c0-1.05-.55-1.69-1.46-1.69-1.24,0-1.96.9-1.96,2.53v3.9c0,.12-.07.18-.18.18h-1.49c-.12,0-.19-.07-.19-.18v-7.75c0-.12.07-.18.19-.18h.84c.12,0,.18.05.2.17l.15.67Z"/>
      <path class="cls-1" d="M154.49,222.3c-.5,1.29-1,2.73-1.29,3.8-.03.1-.1.15-.22.15h-1.77c-.12,0-.19-.05-.22-.15-.28-1.07-.79-2.49-1.29-3.8l-1.66-3.95c-.05-.13.02-.22.15-.22h1.56c.1,0,.17.05.22.13l1.19,2.81c.37.99.67,2.01.8,2.76.03.18.22.18.27,0,.12-.75.42-1.79.8-2.76l1.19-2.81c.05-.08.12-.13.22-.13h1.56c.13,0,.2.08.15.22l-1.66,3.95Z"/>
      <path class="cls-1" d="M159.1,222.18c0,1.61.75,2.56,2.03,2.56s2.01-.95,2.01-2.56-.77-2.54-2.01-2.54-2.03.95-2.03,2.54M164.97,222.18c0,2.61-1.47,4.25-3.85,4.25s-3.87-1.64-3.87-4.25,1.47-4.22,3.87-4.22,3.85,1.64,3.85,4.22"/>
      <path class="cls-1" d="M168.67,224.29c0,.28.12.45.34.45h.12c.12-.02.19-.02.24.1l.5,1.19c.05.12.02.2-.08.25-.24.1-.52.15-.77.15-1.37,0-2.19-.79-2.19-2.14v-9.86c0-.12.07-.18.18-.18h1.49c.12,0,.18.07.18.18v9.86Z"/>
      <path class="cls-1" d="M176.93,222.3c-.5,1.29-1,2.73-1.29,3.8-.03.1-.1.15-.22.15h-1.77c-.12,0-.18-.05-.22-.15-.28-1.07-.79-2.49-1.29-3.8l-1.66-3.95c-.05-.13.02-.22.15-.22h1.56c.1,0,.17.05.22.13l1.19,2.81c.37.99.67,2.01.8,2.76.03.18.22.18.27,0,.12-.75.42-1.79.8-2.76l1.19-2.81c.05-.08.12-.13.22-.13h1.56c.13,0,.2.08.15.22l-1.66,3.95Z"/>
      <path class="cls-1" d="M182.69,215.23c0,.72-.4,1.14-1.1,1.14s-1.12-.42-1.12-1.14.42-1.12,1.12-1.12,1.1.42,1.1,1.12M182.71,226.06c0,.12-.07.18-.18.18h-1.49c-.12,0-.19-.07-.19-.18v-6.28h-.82c-.12,0-.18-.07-.18-.18v-1.29c0-.12.07-.18.18-.18h2.49c.12,0,.18.07.18.18v7.75Z"/>
      <path class="cls-1" d="M186.33,218.95c.1.2.2.2.4.02.64-.72,1.37-1.01,2.18-1.01.95,0,1.73.47,2.18,1.12.22.23.37.18.57,0,.74-.87,1.49-1.12,2.29-1.12,1.87,0,2.95,1.19,2.95,3.16v4.94c0,.12-.07.18-.18.18h-1.51c-.12,0-.18-.07-.18-.18v-4.74c0-1.06-.44-1.69-1.32-1.69-1.27,0-1.84.99-1.84,2.53v3.9c0,.12-.07.18-.18.18h-1.51c-.12,0-.18-.07-.18-.18v-4.75c0-1.04-.47-1.67-1.32-1.67-1.29,0-1.84.99-1.84,2.53v3.9c0,.12-.07.18-.18.18h-1.49c-.12,0-.18-.07-.18-.18v-7.75c0-.12.07-.18.18-.18h.84c.12,0,.18.05.2.17l.15.65Z"/>
      <path class="cls-1" d="M203.01,221.46c.59-.1.9-.37.9-.8,0-.67-.52-1.02-1.42-1.02-1.1,0-1.86.69-1.99,2.23l2.51-.4ZM204.29,226.21c-.6.15-1.17.22-1.71.22-2.53,0-3.95-1.64-3.95-4.23s1.44-4.24,3.88-4.24c2.01,0,3.23,1,3.23,2.66,0,1.29-.79,2.03-2.46,2.28l-2.63.4c.18.89.85,1.44,1.91,1.44.47,0,.97-.05,1.32-.17l.74-.18c.12-.03.2.02.23.13l.34,1.26c.03.12-.02.2-.13.23l-.77.2Z"/>
      <path class="cls-1" d="M208.97,218.96c.1.2.2.18.38.02.65-.74,1.49-1.02,2.31-1.02,1.91,0,3.06,1.19,3.06,3.16v4.94c0,.12-.07.18-.18.18h-1.49c-.12,0-.18-.07-.18-.18v-4.74c0-1.05-.55-1.69-1.46-1.69-1.24,0-1.96.9-1.96,2.53v3.9c0,.12-.07.18-.18.18h-1.49c-.12,0-.18-.07-.18-.18v-7.75c0-.12.07-.18.18-.18h.84c.12,0,.18.05.2.17l.15.67Z"/>
      <path class="cls-1" d="M221.14,218.13c.12,0,.19.07.19.18v1.29c0,.12-.07.18-.19.18h-1.88v4.07c0,.57.25.89.65.89.15,0,.3-.02.44-.07.12-.05.2-.03.25.08l.53,1.14c.05.1.02.18-.08.25-.3.17-.74.29-1.14.29-1.59,0-2.51-.95-2.51-2.58v-4.07h-.82c-.12,0-.18-.07-.18-.18v-1.29c0-.12.07-.18.18-.18h.82v-1.93c0-.1.05-.17.15-.2l1.49-.5c.13-.03.22.02.22.15v2.48h1.88Z"/>
      <path class="cls-1" d="M224.44,222.18c0,1.61.75,2.56,2.03,2.56s2.01-.95,2.01-2.56-.77-2.54-2.01-2.54-2.03.95-2.03,2.54M230.32,222.18c0,2.61-1.47,4.25-3.85,4.25s-3.87-1.64-3.87-4.25,1.47-4.22,3.87-4.22,3.85,1.64,3.85,4.22"/>
      <path class="cls-1" d="M45.94,155.24c0-8.08,4.19-15.19,10.52-19.28l6.14,9.53c-3.2,2.07-5.32,5.67-5.32,9.75,0,6.4,5.21,11.61,11.61,11.61s11.61-5.21,11.61-11.61c0-4.09-2.12-7.68-5.32-9.75l6.14-9.53c6.32,4.09,10.52,11.2,10.52,19.28,0,12.65-10.29,22.94-22.94,22.94s-22.94-10.29-22.94-22.94"/>
      <path class="cls-1" d="M180.58,132.3v24.76c0,11.37-9,20.9-20.37,21.12-11.64.22-21.18-9.18-21.18-20.77v-25.22h11.34v24.99c0,5.11,3.97,9.47,9.07,9.66,5.37.2,9.8-4.1,9.8-9.43v-18.37c0-3.73,3.02-6.74,6.74-6.74h4.59Z"/>
      <path class="cls-1" d="M130.98,159.78c2.62-2.99,4.18-6.92,4.1-11.21-.17-9.09-7.81-16.26-16.9-16.26h-23.56v11.34h23.74c2.73,0,5.11,2.02,5.37,4.73.3,3.11-2.16,5.74-5.21,5.74h-16.15c-4.28,0-7.74,3.47-7.74,7.74v16.33h11.34v-12.74h12.55c2.89,0,5.24,2.34,5.24,5.24v7.5h11.34v-7.5c0-1.99-.35-3.9-1-5.67-.71-1.94-1.77-3.71-3.1-5.24"/>
      <path class="cls-1" d="M64.04,133.12c-1.08,1.08-1.74,2.45-1.94,3.87-.06.31-.06.66-.06.97,0,1.74.66,3.5,1.99,4.84.46.46.94.83,1.48,1.11,2.62,1.48,5.98,1.11,8.2-1.11.63-.63,1.08-1.34,1.42-2.08.4-.88.57-1.82.57-2.76,0-1.74-.66-3.5-1.99-4.84s-3.08-1.99-4.84-1.99-3.5.66-4.84,1.99"/>
      <path class="cls-1" d="M222.47,132.3l-14.56,16.02-14.56-16.02h-8.2v45.89h3.38c4.4,0,7.96-3.56,7.96-7.96v-17.6l.25.28v-.02l11.17,12.28,11.4-12.53v17.6c0,4.4,3.56,7.96,7.96,7.96h3.38v-45.89h-8.17Z"/>
      <path class="cls-1" d="M35.33,143.64c4,0,7.25-3.24,7.25-7.25v-4.09H10.54c-4.66,0-8.43,3.77-8.43,8.43v20.18h.03v17.28h3.38c4.4,0,7.96-3.56,7.96-7.96v-9.32h21.83c4.01,0,7.26-3.25,7.26-7.26v-4.08H13.45v-5.94h21.88Z"/>
      <path class="cls-1" d="M131.15,93.63c-1.76,1.76-2.83,3.99-3.15,6.31-.09.51-.09,1.07-.09,1.58,0,2.83,1.07,5.71,3.25,7.89.74.74,1.53,1.35,2.41,1.81,4.27,2.41,9.74,1.81,13.36-1.81,1.02-1.02,1.76-2.18,2.32-3.39.65-1.44.93-2.97.93-4.5,0-2.83-1.07-5.71-3.25-7.89s-5.01-3.25-7.89-3.25-5.71,1.07-7.89,3.25"/>
      <path class="cls-1" d="M133.44,52.25h-12.2c-2.44,0-4.65.99-6.25,2.59-1.6,1.6-2.59,3.81-2.59,6.25h8.54l-6.34,6.48c-6.95,6.95-6.95,18.23,0,25.18.55.55,1.13,1.06,1.73,1.52.79-2.86,2.32-5.57,4.57-7.82l12.54-12.86v8.54c2.44,0,4.65-.99,6.25-2.59,1.6-1.6,2.59-3.81,2.59-6.25v-21.04h-8.84Z"/>
      <path class="cls-1" d="M134.84,0h-15.37c-3.08,0-5.86,1.25-7.87,3.26-2.01,2.01-3.26,4.8-3.26,7.87h10.76l-27.41,27.41c-4.35,4.35-6.52,10.05-6.52,15.75,0,5.7,2.17,11.4,6.52,15.75l6.02,6.02c.44-7.92,3.68-15.71,9.73-21.76l27.41-27.42v10.76c3.08,0,5.86-1.25,7.88-3.26,2.02-2.01,3.26-4.8,3.26-7.87V0h-11.14Z"/>
    </g>
  </g>
</svg>