<?xml version="1.0" encoding="UTF-8"?>
<svg id="Camada_2" data-name="Camada 2" xmlns="http://www.w3.org/2000/svg" version="1.1" xmlns:xlink="http://www.w3.org/1999/xlink" viewBox="0 0 321 135.5">
  <defs>
    <style>
      .cls-1 {
        fill: url(#Gradiente_sem_nome_2);
      }

      .cls-1, .cls-2, .cls-3, .cls-4, .cls-5, .cls-6 {
        stroke-width: 0px;
      }

      .cls-2 {
        fill: url(#Gradiente_sem_nome);
      }

      .cls-3 {
        fill: url(#Gradiente_sem_nome_4);
      }

      .cls-4 {
        fill: #00629a;
      }

      .cls-5 {
        fill: #00923f;
      }

      .cls-6 {
        fill: url(#Gradiente_sem_nome_3);
      }
    </style>
    <linearGradient id="Gradiente_sem_nome" data-name="Gradiente sem nome" x1="68.9" y1="-327.7" x2="68.9" y2="-341.4" gradientTransform="translate(0 367)" gradientUnits="userSpaceOnUse">
      <stop offset="0" stop-color="#fbb90a"/>
      <stop offset="1" stop-color="#f28b20"/>
    </linearGradient>
    <linearGradient id="Gradiente_sem_nome_2" data-name="Gradiente sem nome 2" x1="307.7" y1="-231.5" x2="307.7" y2="-258.3" gradientTransform="translate(0 367)" gradientUnits="userSpaceOnUse">
      <stop offset="0" stop-color="#fbb90a"/>
      <stop offset="1" stop-color="#f28b20"/>
    </linearGradient>
    <linearGradient id="Gradiente_sem_nome_3" data-name="Gradiente sem nome 3" x1="268.8" y1="43.7" x2="316" y2="65.7" gradientTransform="translate(0 138) scale(1 -1)" gradientUnits="userSpaceOnUse">
      <stop offset="0" stop-color="#00639c"/>
      <stop offset=".2" stop-color="#036597"/>
      <stop offset=".4" stop-color="#086c8c"/>
      <stop offset=".7" stop-color="#0d8f52"/>
      <stop offset=".9" stop-color="#109d3c"/>
    </linearGradient>
    <linearGradient id="Gradiente_sem_nome_4" data-name="Gradiente sem nome 4" x1="267" y1="44.1" x2="293.8" y2="143.9" gradientTransform="translate(0 138) scale(1 -1)" gradientUnits="userSpaceOnUse">
      <stop offset="0" stop-color="#00639c"/>
      <stop offset=".2" stop-color="#036597"/>
      <stop offset=".4" stop-color="#026b8d"/>
      <stop offset=".5" stop-color="#01757c"/>
      <stop offset=".7" stop-color="#00895c"/>
      <stop offset=".8" stop-color="#009648"/>
      <stop offset=".9" stop-color="#009b41"/>
    </linearGradient>
  </defs>
  <g id="Logo_2" data-name="Logo 2">
    <polygon class="cls-4" points="14.9 101.6 .8 101.6 .8 81.2 14.6 81.2 14.1 84.7 5.2 84.7 5.2 89.3 13.7 89.3 13.3 92.9 5.2 92.9 5.2 98.1 14.6 98.1 14.9 101.6"/>
    <polygon class="cls-4" points="44.8 101.6 40.2 101.6 40.3 87.8 39.3 87.8 35 101.6 30.9 101.6 26.8 87.8 25.7 87.8 25.8 101.6 21.4 101.6 22.1 81.2 28.7 81.2 33.1 95.8 37.5 81.2 44.1 81.2 44.8 101.6"/>
    <path class="cls-4" d="M60,84.6h-3v7.1h2.3c2.4,0,3.5-1.8,3.5-3.9s-.8-3.1-2.9-3.1M59.5,95.1h-2.5v6.5h-4.4v-20.4h7.6c5.3,0,7.3,1.6,7.3,6.4s-3.4,7.6-8,7.6"/>
    <path class="cls-4" d="M81.4,84.6h-3v5.7h2.4c1.9,0,3-1.5,3-3.2s-.6-2.5-2.5-2.5M90.8,101.6h-5.2l-3.9-8.1h-3.2v8.1h-4.4v-20.4h8c4.8,0,6.4,1.4,6.4,4.7s-3.8,5.5-3.8,5.5v.6c.9,0,1.7.8,2.1,1.5,1.4,2.8,2.7,5.5,4.1,8.2"/>
    <polygon class="cls-4" points="110.3 101.6 96.2 101.6 96.2 81.2 110.1 81.2 109.5 84.7 100.7 84.7 100.7 89.3 109.1 89.3 108.8 92.9 100.7 92.9 100.7 98.1 110.1 98.1 110.3 101.6"/>
    <path class="cls-4" d="M122.8,102c-5.2,0-7.5-1.2-7.5-1.2l1.2-3.7s2.6,1.2,6.3,1.2,2.8-1.2,2.8-2.3c0-3.8-9.9-3-9.9-9.6s2.3-5.4,5.8-5.4,7.5.3,7.5.3l-.9,3.6s-3.1-.3-5.6-.3-2.3.5-2.3,1.7c0,3.4,9.9,2.3,9.9,9.5s-2.8,6.3-7.4,6.3"/>
    <path class="cls-4" d="M146.9,93.3l-2-7.7h-1.4l-2.3,7.7h5.8ZM153.8,101.6h-4.6l-1.5-5h-7.5l-1.6,5h-4.5l6.8-20.4h6.7l6.2,20.4h0Z"/>
    <path class="cls-4" d="M166.9,84.6h-3v5.7h2.4c1.9,0,3-1.5,3-3.2s-.6-2.5-2.5-2.5M176.3,101.6h-5.2l-3.9-8.1h-3.2v8.1h-4.4v-20.4h8c4.8,0,6.4,1.4,6.4,4.7s-3.8,5.5-3.8,5.5v.6c.9,0,1.7.8,2.1,1.5,1.4,2.8,2.7,5.5,4.1,8.2"/>
    <rect class="cls-4" x="181.9" y="81.2" width="4.4" height="20.4"/>
    <path class="cls-4" d="M204.9,93.3l-2-7.7h-1.4l-2.3,7.7h5.8ZM211.8,101.6h-4.6l-1.5-5h-7.5l-1.6,5h-4.5l6.8-20.4h6.7l6.2,20.4h0Z"/>
    <polygon class="cls-4" points="231.6 101.6 217.6 101.6 217.6 81.2 222 81.2 222 98.1 231.3 98.1 231.6 101.6"/>
    <path class="cls-5" d="M5.2,114.4c-.4-.2-.8-.3-1.4-.3-1.3,0-2,1-2,2.5,0,1.6.7,2.6,2,2.6s1.9-1.1,1.9-2.5v-2.1l-.5-.2h0ZM7.6,120.5c0,.1,0,.2-.2.2h-.8c-.1,0-.2,0-.2-.2l-.2-.7c0-.2-.2-.2-.3,0-.6.7-1.4,1-2.3,1-2.2,0-3.5-1.6-3.5-4.2s1.4-4.2,3.8-4.2,1,0,1.5.3l.5.2v-4c0-.1,0-.2.2-.2h1.5c.1,0,.2,0,.2.2v11.6h0Z"/>
    <path class="cls-5" d="M13.8,115.9c.6,0,.9-.4.9-.8,0-.7-.5-1-1.4-1s-1.9.7-2,2.2l2.5-.4h0ZM15.1,120.7c-.6.2-1.2.2-1.7.2-2.5,0-3.9-1.6-3.9-4.2s1.4-4.2,3.9-4.2,3.2,1,3.2,2.7-.8,2-2.5,2.3l-2.6.4c.2.9.9,1.4,1.9,1.4s1,0,1.3-.2l.7-.2c.1,0,.2,0,.2.1l.3,1.3c0,.1,0,.2-.1.2,0,0-.8.2-.8.2Z"/>
    <path class="cls-5" d="M22.2,109h1.5c.1,0,.2,0,.2.2v11.3c0,0,0,.2-.2.2h-1.5c-.1,0-.2,0-.2-.2v-11.3c0,0,0-.2.2-.2Z"/>
    <path class="cls-5" d="M27.7,113.4c.1.2.2.2.4,0,.6-.7,1.5-1,2.3-1,1.9,0,3.1,1.2,3.1,3.2v4.9c0,.1,0,.2-.2.2h-1.5c-.1,0-.2,0-.2-.2v-4.7c0-1.1-.5-1.7-1.5-1.7s-2,.9-2,2.5v3.9c0,.1,0,.2-.2.2h-1.5c-.1,0-.2,0-.2-.2v-7.8c0-.1,0-.2.2-.2h.8c.1,0,.2,0,.2.2v.7c.1,0,.1,0,.1,0Z"/>
    <path class="cls-5" d="M37.1,116.7c0,1.6.8,2.6,2,2.6s2-.9,2-2.6-.8-2.5-2-2.5-2,1-2,2.5M43,116.7c0,2.6-1.5,4.2-3.8,4.2s-3.9-1.6-3.9-4.2,1.5-4.2,3.9-4.2,3.8,1.6,3.8,4.2"/>
    <path class="cls-5" d="M50.3,116.8c-.5,1.3-1,2.7-1.3,3.8,0,0,0,.2-.2.2h-1.8c-.1,0-.2,0-.2-.2-.3-1.1-.8-2.5-1.3-3.8l-1.7-3.9c0-.1,0-.2.2-.2h1.6c0,0,.2,0,.2.1l1.2,2.8c.4,1,.7,2,.8,2.8,0,.2.2.2.3,0,.1-.8.4-1.8.8-2.8l1.2-2.8c0,0,.1-.1.2-.1h1.6c.1,0,.2,0,.2.2l-1.7,3.9Z"/>
    <path class="cls-5" d="M56,117.2c-.8,0-1.2.4-1.2,1s.5,1.1,1.3,1.1c1.3,0,2-.7,2-1.9h0c0-.1-2.1-.1-2.1-.1ZM54.5,112.7c.6-.2,1.1-.2,1.8-.2,2.3,0,3.7,1.2,3.7,3.2v4.9c0,.1,0,.2-.2.2h-.8c-.1,0-.2,0-.2-.2v-.5c-.2-.2-.3-.2-.5,0-.5.6-1.3.9-2.3.9-1.9,0-2.9-1-2.9-2.5s1.1-2.6,3-2.6h2.1c0-1.1-.7-1.7-1.9-1.7s-.9,0-1.3.2l-.6.2c-.1,0-.2,0-.2-.1l-.4-1.2c0-.1,0-.2.1-.2l.6-.2h0Z"/>
    <path class="cls-5" d="M67.2,120.7c-.5.1-1,.2-1.6.2l-.2.5h.1c.8,0,1.3.6,1.3,1.5s-.6,1.6-1.8,1.6-.6,0-.8-.1h-.3c0-.1-.2-.2,0-.3l.3-.9c0-.1.1-.2.2-.1h.2c.2.1.3.1.5.1.3,0,.6-.2.6-.5s-.2-.5-.6-.5h-.6c0,0-.2,0-.2-.1,0,0,0-.1,0-.2l.3-1.1c-1.9-.4-2.9-1.9-2.9-4.2s1.4-4.2,4-4.2.9,0,1.4.2l.7.2c.1,0,.2.1.1.2l-.4,1.3c0,0-.1.2-.2.1l-.6-.2c-.4-.1-.8-.2-1.1-.2-1.5,0-2.2.9-2.2,2.5s.7,2.6,2.1,2.6.8,0,1.2-.2l.6-.2c.1,0,.2,0,.2.1l.4,1.3c0,.1,0,.2-.1.2l-.7.2h0Z"/>
    <path class="cls-5" d="M72.5,117.2c-.8,0-1.2.4-1.2,1s.4,1.1,1.3,1.1c1.3,0,2-.7,2-1.9h0c0-.1-2.1-.1-2.1-.1h0ZM70.9,109.5c.3-.6.7-.9,1.3-.9s.6,0,.9.3l.6.4c.1,0,.2.1.3.1s.2,0,.4-.3l.2-.3c0,0,.1-.1.2-.1h.8c.2,0,.2,0,.1.2l-.4.8c-.3.6-.7.9-1.3.9s-.6-.1-.9-.3l-.6-.3c-.1,0-.2-.2-.3-.2s-.2,0-.3.3l-.2.3c0,0-.1.1-.2.1h-.8c-.1,0-.2,0-.1-.2l.4-.8h0ZM70.9,112.7c.6-.2,1.1-.2,1.8-.2,2.3,0,3.7,1.2,3.7,3.2v4.9c0,.1,0,.2-.2.2h-.8c-.1,0-.2,0-.2-.2v-.5c-.2-.2-.3-.2-.5,0-.5.6-1.3.9-2.3.9-1.9,0-2.9-1-2.9-2.5s1.1-2.6,3.1-2.6h2.1c0-1.1-.7-1.7-1.9-1.7s-.9,0-1.3.2l-.6.2c-.1,0-.2,0-.2-.1l-.4-1.2c0-.1,0-.2.1-.2l.6-.2h0Z"/>
    <path class="cls-5" d="M80,116.7c0,1.6.8,2.6,2,2.6s2-.9,2-2.6-.8-2.5-2-2.5-2,1-2,2.5M85.8,116.7c0,2.6-1.5,4.2-3.8,4.2s-3.9-1.6-3.9-4.2,1.5-4.2,3.9-4.2,3.8,1.6,3.8,4.2"/>
    <path class="cls-5" d="M95.1,115.9c.6,0,.9-.4.9-.8,0-.7-.5-1-1.4-1s-1.9.7-2,2.2l2.5-.4h0ZM96.4,120.7c-.6.2-1.2.2-1.7.2-2.5,0-3.9-1.6-3.9-4.2s1.4-4.2,3.9-4.2,3.2,1,3.2,2.7-.8,2-2.5,2.3l-2.6.4c.2.9.8,1.4,1.9,1.4s1,0,1.3-.2l.7-.2c.1,0,.2,0,.2.1l.3,1.3c0,.1,0,.2-.1.2l-.8.2h0Z"/>
    <path class="cls-5" d="M105.3,119h2.2c2,0,3.2-1.5,3.2-4.2s-1.2-4.2-3.2-4.2h-2.2v8.3ZM107.5,109c3.2,0,5.1,2.3,5.1,5.9s-2,5.8-5.1,5.8h-3.9c-.1,0-.2,0-.2-.2v-11.3c0-.1,0-.2.2-.2h3.9Z"/>
    <path class="cls-5" d="M118.5,115.9c.6,0,.9-.4.9-.8,0-.7-.5-1-1.4-1s-1.9.7-2,2.2l2.5-.4h0ZM119.8,120.7c-.6.2-1.2.2-1.7.2-2.5,0-3.9-1.6-3.9-4.2s1.4-4.2,3.9-4.2,3.2,1,3.2,2.7-.8,2-2.5,2.3l-2.6.4c.2.9.8,1.4,1.9,1.4s1,0,1.3-.2l.7-.2c.1,0,.2,0,.2.1l.3,1.3c0,.1,0,.2-.1.2l-.8.2h0Z"/>
    <path class="cls-5" d="M125,117.1c-1.4-.3-2-1.1-2-2.3s1.1-2.4,3.1-2.4,1.5.1,2.1.3l.7.2c.1,0,.2.1.1.2l-.4,1.2c0,.1-.1.2-.2.1l-.7-.2c-.4-.1-1.1-.2-1.6-.2-.8,0-1.2.3-1.2.7s.2.6.8.8l1.7.4c1.5.4,2.1,1.1,2.1,2.3s-1.2,2.5-3.2,2.5-1.7-.1-2.6-.3l-.7-.2c-.1,0-.2-.1-.1-.2l.4-1.3c0,0,.1-.2.2-.1l.6.2c.6.2,1.5.3,2.1.3s1.3-.3,1.3-.8-.2-.7-.8-.8l-1.7-.4h0Z"/>
    <path class="cls-5" d="M135.1,115.9c.6,0,.9-.4.9-.8,0-.7-.5-1-1.4-1s-1.9.7-2,2.2l2.5-.4h0ZM136.4,120.7c-.6.2-1.2.2-1.7.2-2.5,0-3.9-1.6-3.9-4.2s1.4-4.2,3.9-4.2,3.2,1,3.2,2.7-.8,2-2.5,2.3l-2.6.4c.2.9.9,1.4,1.9,1.4s1,0,1.3-.2l.7-.2c.1,0,.2,0,.2.1l.3,1.3c0,.1,0,.2-.1.2l-.8.2h0Z"/>
    <path class="cls-5" d="M141,113.4c.1.2.2.2.4,0,.6-.7,1.5-1,2.3-1,1.9,0,3.1,1.2,3.1,3.2v4.9c0,.1,0,.2-.2.2h-1.5c-.1,0-.2,0-.2-.2v-4.7c0-1.1-.6-1.7-1.5-1.7s-2,.9-2,2.5v3.9c0,.1,0,.2-.2.2h-1.5c-.1,0-.2,0-.2-.2v-7.8c0-.1,0-.2.2-.2h.8c.1,0,.2,0,.2.2v.7c.1,0,.2,0,.2,0Z"/>
    <path class="cls-5" d="M154.5,116.8c-.5,1.3-1,2.7-1.3,3.8,0,0-.1.2-.2.2h-1.8c-.1,0-.2,0-.2-.2-.3-1.1-.8-2.5-1.3-3.8l-1.7-3.9c0-.1,0-.2.1-.2h1.6c.1,0,.2,0,.2.1l1.2,2.8c.4,1,.7,2,.8,2.8,0,.2.2.2.3,0,.1-.8.4-1.8.8-2.8l1.2-2.8c0,0,.1-.1.2-.1h1.6c.1,0,.2,0,.1.2l-1.7,3.9Z"/>
    <path class="cls-5" d="M159.1,116.7c0,1.6.8,2.6,2,2.6s2-.9,2-2.6-.8-2.5-2-2.5-2,1-2,2.5M165,116.7c0,2.6-1.5,4.2-3.9,4.2s-3.9-1.6-3.9-4.2,1.5-4.2,3.9-4.2,3.9,1.6,3.9,4.2"/>
    <path class="cls-5" d="M168.7,118.8c0,.3.1.4.3.4h.1c.1,0,.2,0,.2,0l.5,1.2c0,.1,0,.2,0,.2-.2,0-.5.2-.8.2-1.4,0-2.2-.8-2.2-2.1v-9.9c0-.1,0-.2.2-.2h1.5c.1,0,.2,0,.2.2v9.9h0Z"/>
    <path class="cls-5" d="M176.9,116.8c-.5,1.3-1,2.7-1.3,3.8,0,0-.1.2-.2.2h-1.8c-.1,0-.2,0-.2-.2-.3-1.1-.8-2.5-1.3-3.8l-1.7-3.9c0-.1,0-.2.1-.2h1.6c.1,0,.2,0,.2.1l1.2,2.8c.4,1,.7,2,.8,2.8,0,.2.2.2.3,0,.1-.8.4-1.8.8-2.8l1.2-2.8c0,0,.1-.1.2-.1h1.6c.1,0,.2,0,.1.2l-1.7,3.9Z"/>
    <path class="cls-5" d="M182.7,109.7c0,.7-.4,1.1-1.1,1.1s-1.1-.4-1.1-1.1.4-1.1,1.1-1.1,1.1.4,1.1,1.1M182.7,120.5c0,.1,0,.2-.2.2h-1.5c-.1,0-.2,0-.2-.2v-6.3h-.8c-.1,0-.2,0-.2-.2v-1.3c0-.1,0-.2.2-.2h2.5c.1,0,.2,0,.2.2v7.8Z"/>
    <path class="cls-5" d="M186.3,113.4c.1.2.2.2.4,0,.6-.7,1.4-1,2.2-1s1.7.5,2.2,1.1c.2.2.4.2.6,0,.7-.9,1.5-1.1,2.3-1.1,1.9,0,2.9,1.2,2.9,3.2v4.9c0,.1,0,.2-.2.2h-1.5c-.1,0-.2,0-.2-.2v-4.7c0-1.1-.4-1.7-1.3-1.7-1.3,0-1.8,1-1.8,2.5v3.9c0,.1,0,.2-.2.2h-1.5c-.1,0-.2,0-.2-.2v-4.8c0-1-.5-1.7-1.3-1.7-1.3,0-1.8,1-1.8,2.5v3.9c0,.1,0,.2-.2.2h-1.5c-.1,0-.2,0-.2-.2v-7.8c0-.1,0-.2.2-.2h.8c.1,0,.2,0,.2.2v.7c.1,0,.1,0,.1,0Z"/>
    <path class="cls-5" d="M203,115.9c.6,0,.9-.4.9-.8,0-.7-.5-1-1.4-1s-1.9.7-2,2.2l2.5-.4h0ZM204.3,120.7c-.6.2-1.2.2-1.7.2-2.5,0-3.9-1.6-3.9-4.2s1.4-4.2,3.9-4.2,3.2,1,3.2,2.7-.8,2-2.5,2.3l-2.6.4c.2.9.9,1.4,1.9,1.4s1,0,1.3-.2l.7-.2c.1,0,.2,0,.2.1l.3,1.3c0,.1,0,.2-.1.2l-.8.2h0Z"/>
    <path class="cls-5" d="M209,113.4c.1.2.2.2.4,0,.6-.7,1.5-1,2.3-1,1.9,0,3.1,1.2,3.1,3.2v4.9c0,.1,0,.2-.2.2h-1.5c-.1,0-.2,0-.2-.2v-4.7c0-1.1-.6-1.7-1.5-1.7s-2,.9-2,2.5v3.9c0,.1,0,.2-.2.2h-1.5c-.1,0-.2,0-.2-.2v-7.8c0-.1,0-.2.2-.2h.8c.1,0,.2,0,.2.2v.7c.1,0,.2,0,.2,0Z"/>
    <path class="cls-5" d="M221.1,112.6c.1,0,.2,0,.2.2v1.3c0,.1,0,.2-.2.2h-1.9v4.1c0,.6.2.9.6.9s.3,0,.4,0c.1,0,.2,0,.2,0l.5,1.1c0,0,0,.2,0,.2-.3.2-.7.3-1.1.3-1.6,0-2.5-1-2.5-2.6v-4.1h-.8c-.1,0-.2,0-.2-.2v-1.3c0-.1,0-.2.2-.2h.8v-1.9c0,0,0-.2.1-.2l1.5-.5c.1,0,.2,0,.2.2v2.5h1.9,0Z"/>
    <path class="cls-5" d="M224.4,116.7c0,1.6.8,2.6,2,2.6s2-.9,2-2.6-.8-2.5-2-2.5-2,1-2,2.5M230.3,116.7c0,2.6-1.5,4.2-3.9,4.2s-3.9-1.6-3.9-4.2,1.5-4.2,3.9-4.2,3.9,1.6,3.9,4.2"/>
    <path class="cls-4" d="M45.9,49.7c0-8.1,4.2-15.2,10.5-19.3l6.1,9.5c-3.2,2.1-5.3,5.7-5.3,9.8,0,6.4,5.2,11.6,11.6,11.6s11.6-5.2,11.6-11.6-2.1-7.7-5.3-9.8l6.1-9.5c6.3,4.1,10.5,11.2,10.5,19.3,0,12.7-10.3,22.9-22.9,22.9s-22.9-10.3-22.9-22.9"/>
    <path class="cls-4" d="M180.6,26.8v24.8c0,11.4-9,20.9-20.4,21.1-11.6.2-21.2-9.2-21.2-20.8v-25.2h11.3v25c0,5.1,4,9.5,9.1,9.7,5.4.2,9.8-4.1,9.8-9.4v-18.4c0-3.7,3-6.7,6.7-6.7h4.6Z"/>
    <path class="cls-4" d="M131,54.2c2.6-3,4.2-6.9,4.1-11.2-.2-9.1-7.8-16.3-16.9-16.3h-23.6v11.3h23.7c2.7,0,5.1,2,5.4,4.7.3,3.1-2.2,5.7-5.2,5.7h-16.2c-4.3,0-7.7,3.5-7.7,7.7v16.3h11.3v-12.7h12.6c2.9,0,5.2,2.3,5.2,5.2v7.5h11.3v-7.5c0-2-.4-3.9-1-5.7-.7-1.9-1.8-3.7-3.1-5.2"/>
    <path class="cls-2" d="M64,27.6c-1.1,1.1-1.7,2.5-1.9,3.9,0,.3,0,.7,0,1,0,1.7.7,3.5,2,4.8s.9.8,1.5,1.1c2.6,1.5,6,1.1,8.2-1.1.6-.6,1.1-1.3,1.4-2.1.4-.9.6-1.8.6-2.8,0-1.7-.7-3.5-2-4.9s-3.1-2-4.8-2-3.5.7-4.8,2"/>
    <path class="cls-4" d="M222.5,26.8l-14.6,16-14.6-16h-8.2v45.9h3.4c4.4,0,8-3.6,8-8v-17.6l.2.3h0s11.2,12.3,11.2,12.3l11.4-12.5v17.6c0,4.4,3.6,8,8,8h3.4V26.8h-8.2Z"/>
    <path class="cls-4" d="M35.3,38.1c4,0,7.2-3.2,7.2-7.2v-4.1H10.5c-4.7,0-8.4,3.8-8.4,8.4v20.2h0v17.3h3.4c4.4,0,8-3.6,8-8v-9.3h21.8c4,0,7.3-3.2,7.3-7.3v-4.1H13.4v-5.9h21.9Z"/>
    <path class="cls-1" d="M298.2,112.6c-2.1,2.1-3.4,4.8-3.8,7.6-.1.6-.1,1.3-.1,1.9,0,3.4,1.3,6.9,3.9,9.5.9.9,1.8,1.6,2.9,2.2,5.1,2.9,11.7,2.2,16.1-2.2,1.2-1.2,2.1-2.6,2.8-4.1.8-1.7,1.1-3.6,1.1-5.4,0-3.4-1.3-6.9-3.9-9.5s-6-3.9-9.5-3.9-6.9,1.3-9.5,3.9"/>
    <path class="cls-6" d="M300.9,62.8h-14.7c-2.9,0-5.6,1.2-7.5,3.1-1.9,1.9-3.1,4.6-3.1,7.5h10.3l-7.6,7.8c-8.4,8.4-8.4,21.9,0,30.3.7.7,1.4,1.3,2.1,1.8,1-3.4,2.8-6.7,5.5-9.4l15.1-15.5v10.3c2.9,0,5.6-1.2,7.5-3.1,1.9-1.9,3.1-4.6,3.1-7.5v-25.3h-10.6,0Z"/>
    <path class="cls-3" d="M302.6,0h-18.5c-3.7,0-7,1.5-9.5,3.9s-3.9,5.8-3.9,9.5h12.9l-33,33c-5.2,5.2-7.9,12.1-7.9,18.9s2.6,13.7,7.9,18.9l7.2,7.2c.5-9.5,4.4-18.9,11.7-26.2l33-33v12.9c3.7,0,7-1.5,9.5-3.9,2.4-2.4,3.9-5.8,3.9-9.5V0h-13.4Z"/>
  </g>
</svg>